{
.appVersion = "1340";
DisplayStrings = (
"/uniE0A0.stypo/uniE0B0.stypo/uniE0B1.stypo/uniE0B2.stypo/uniE0B3.stypo/uniE0B4.stypo/uniE0B5.stypo/uniE0B6.stypo/uniE0B7.stypo/uniE0B8.stypo/uniE0B9.stypo/uniE0BA.stypo/uniE0BB.stypo/uniE0BC.stypo/uniE0BD.stypo/uniE0BE.stypo/uniE0BF.stypo/uniE0C0.stypo/uniE0C1.stypo/uniE0C2.stypo/uniE0C3.stypo/uniE0C4.stypo/uniE0C5.stypo/uniE0C6.stypo/uniE0C7.stypo/uniE0C8.stypo/uniE0CA.stypo/uniE0CC.stypo/uniE0CD.stypo/uniE0CE.stypo/uniE0CF.stypo/uniE0D1.stypo/uniE0D2.stypo/uniE0D4.stypo"
);
date = "2019-10-25 21:28:01 +0000";
disablesAutomaticAlignment = 1;
familyName = NerdfontsPL;
featurePrefixes = (
{
automatic = 1;
code = "languagesystem DFLT dflt;\012";
name = Languagesystems;
}
);
features = (
{
automatic = 1;
code = "feature rclt;\012";
name = aalt;
},
{
code = "sub uniE0A0 by uniE0A0.stypo;\012sub uniE0B0 by uniE0B0.stypo;\012sub uniE0B1 by uniE0B1.stypo;\012sub uniE0B2 by uniE0B2.stypo;\012sub uniE0B3 by uniE0B3.stypo;\012sub uniE0B4 by uniE0B4.stypo;\012sub uniE0B5 by uniE0B5.stypo;\012sub uniE0B6 by uniE0B6.stypo;\012sub uniE0B7 by uniE0B7.stypo;\012sub uniE0B8 by uniE0B8.stypo;\012sub uniE0B9 by uniE0B9.stypo;\012sub uniE0BA by uniE0BA.stypo;\012sub uniE0BB by uniE0BB.stypo;\012sub uniE0BC by uniE0BC.stypo;\012sub uniE0BD by uniE0BD.stypo;\012sub uniE0BE by uniE0BE.stypo;\012sub uniE0BF by uniE0BF.stypo;\012sub uniE0C0 by uniE0C0.stypo;\012sub uniE0C1 by uniE0C1.stypo;\012sub uniE0C2 by uniE0C2.stypo;\012sub uniE0C3 by uniE0C3.stypo;\012sub uniE0C4 by uniE0C4.stypo;\012sub uniE0C5 by uniE0C5.stypo;\012sub uniE0C6 by uniE0C6.stypo;\012sub uniE0C7 by uniE0C7.stypo;\012sub uniE0C8 by uniE0C8.stypo;\012sub uniE0CA by uniE0CA.stypo;\012sub uniE0CC by uniE0CC.stypo;\012sub uniE0CD by uniE0CD.stypo;\012sub uniE0CE by uniE0CE.stypo;\012sub uniE0CF by uniE0CF.stypo;\012sub uniE0D1 by uniE0D1.stypo;\012sub uniE0D2 by uniE0D2.stypo;\012sub uniE0D4 by uniE0D4.stypo;";
name = rclt;
}
);
fontMaster = (
{
ascender = 1568;
capHeight = 1420;

glyphs = (
{
color = 2;
glyphname = uniE0A0;
lastChange = "2020-05-18 20:50:46 +0000";
layers = (
{
layerId = "F8C3375C-B372-4BAE-A3FB-5A8DC7FA7AB9";
paths = (
{
closed = 1;
nodes = (
"168 682 LINE",
"444 860 LINE",
"444 2226 LINE",
"168 2226 LINE"
);
},
{
closed = 1;
nodes = (
"168 -480 LINE",
"444 -480 LINE",
"444 48 LINE SMOOTH",
"444 307 OFFCURVE",
"527 350 OFFCURVE",
"788 528 CURVE SMOOTH",
"946 636 OFFCURVE",
"1001 742 OFFCURVE",
"1001 934 CURVE SMOOTH",
"1001 1576 LINE",
"1210 1576 LINE",
"919 1918 LINE",
"626 1576 LINE",
"835 1576 LINE",
"835 990 LINE SMOOTH",
"835 865 OFFCURVE",
"798 777 OFFCURVE",
"669 702 CURVE SMOOTH",
"216 439 OFFCURVE",
"168 348 OFFCURVE",
"168 48 CURVE"
);
}
);
width = 1200;
}
);
note = uniE0A0;
unicode = E0A0;
},
{
color = 2;
glyphname = uniE0A1;
lastChange = "2020-05-18 20:26:26 +0000";
layers = (
{
layerId = "F8C3375C-B372-4BAE-A3FB-5A8DC7FA7AB9";
paths = (
{
closed = 1;
nodes = (
"266 751 LINE",
"770 751 LINE",
"770 883 LINE",
"418 883 LINE",
"418 1651 LINE",
"266 1651 LINE"
);
},
{
closed = 1;
nodes = (
"386 -231 LINE",
"542 -231 LINE",
"542 -35 LINE",
"524 353 LINE",
"768 -231 LINE",
"934 -231 LINE",
"934 669 LINE",
"778 669 LINE",
"778 511 LINE",
"798 83 LINE",
"550 669 LINE",
"386 669 LINE"
);
}
);
width = 1200;
}
);
note = uniE0A1;
unicode = E0A1;
},
{
color = 2;
glyphname = uniE0A2;
lastChange = "2020-05-18 20:26:42 +0000";
layers = (
{
layerId = "F8C3375C-B372-4BAE-A3FB-5A8DC7FA7AB9";
paths = (
{
closed = 1;
nodes = (
"864 -52 LINE SMOOTH",
"959 -52 OFFCURVE",
"1006 -5 OFFCURVE",
"1006 89 CURVE SMOOTH",
"1006 777 LINE SMOOTH",
"1006 878 OFFCURVE",
"965 929 OFFCURVE",
"884 929 CURVE",
"884 1234 LINE SMOOTH",
"884 1445 OFFCURVE",
"790 1550 OFFCURVE",
"600 1550 CURVE SMOOTH",
"410 1550 OFFCURVE",
"316 1445 OFFCURVE",
"316 1234 CURVE SMOOTH",
"316 929 LINE",
"235 929 OFFCURVE",
"194 878 OFFCURVE",
"194 777 CURVE SMOOTH",
"194 89 LINE SMOOTH",
"194 -5 OFFCURVE",
"241 -52 OFFCURVE",
"334 -52 CURVE"
);
},
{
closed = 1;
nodes = (
"452 929 LINE",
"452 1234 LINE SMOOTH",
"452 1359 OFFCURVE",
"501 1421 OFFCURVE",
"600 1421 CURVE SMOOTH",
"699 1421 OFFCURVE",
"748 1359 OFFCURVE",
"748 1234 CURVE SMOOTH",
"748 929 LINE"
);
},
{
closed = 1;
nodes = (
"542 184 LINE",
"542 507 LINE",
"498 530 OFFCURVE",
"476 567 OFFCURVE",
"476 618 CURVE SMOOTH",
"476 688 OFFCURVE",
"531 743 OFFCURVE",
"599 743 CURVE SMOOTH",
"666 743 OFFCURVE",
"722 693 OFFCURVE",
"722 618 CURVE SMOOTH",
"722 567 OFFCURVE",
"700 530 OFFCURVE",
"656 507 CURVE",
"656 184 LINE"
);
}
);
width = 1200;
}
);
note = uniE0A2;
unicode = E0A2;
},
{
color = 2;
glyphname = uniE0A3;
lastChange = "2020-05-18 20:29:18 +0000";
layers = (
{
background = {
paths = (
{
closed = 1;
nodes = (
"177 1765 LINE",
"177 788 LINE",
"797 788 LINE",
"797 930 LINE",
"370 930 LINE",
"367 1605 LINE",
"797 1605 LINE",
"797 1765 LINE",
"177 1765 LINE"
);
},
{
closed = 1;
nodes = (
"330 701 LINE",
"330 -267 LINE",
"528 -267 LINE",
"528 -57 LINE",
"504 362 LINE",
"812 -267 LINE",
"1023 -267 LINE",
"1023 701 LINE",
"822 701 LINE",
"822 531 LINE",
"849 70 LINE",
"538 701 LINE",
"330 701 LINE"
);
}
);
};
layerId = "F8C3375C-B372-4BAE-A3FB-5A8DC7FA7AB9";
paths = (
{
closed = 1;
nodes = (
"542 -231 LINE",
"542 -35 LINE",
"524 353 LINE",
"768 -231 LINE",
"934 -231 LINE",
"934 669 LINE",
"778 669 LINE",
"778 511 LINE",
"798 83 LINE",
"550 669 LINE",
"386 669 LINE",
"386 -231 LINE"
);
},
{
closed = 1;
nodes = (
"770 751 LINE",
"770 883 LINE",
"418 883 LINE",
"418 1519 LINE",
"770 1519 LINE",
"770 1651 LINE",
"266 1651 LINE",
"266 751 LINE"
);
}
);
width = 1200;
}
);
note = uniE0A3;
unicode = E0A3;
},
{
color = 2;
glyphname = uniE0B0;
lastChange = "2020-05-18 20:30:01 +0000";
layers = (
{
layerId = "F8C3375C-B372-4BAE-A3FB-5A8DC7FA7AB9";
paths = (
{
closed = 1;
nodes = (
"0 -480 LINE",
"1200 873 LINE",
"0 2226 LINE"
);
}
);
width = 1200;
}
);
note = uniE0B0;
unicode = E0B0;
},
{
color = 2;
glyphname = uniE0B1;
lastChange = "2020-05-18 20:31:29 +0000";
layers = (
{
layerId = "F8C3375C-B372-4BAE-A3FB-5A8DC7FA7AB9";
paths = (
{
closed = 1;
nodes = (
"103 -480 LINE",
"1200 873 LINE",
"103 2226 LINE",
"0 2119 LINE",
"1000 873 LINE",
"0 -372 LINE"
);
}
);
width = 1200;
}
);
note = uniE0B1;
unicode = E0B1;
},
{
color = 2;
glyphname = uniE0B2;
lastChange = "2020-05-18 20:31:50 +0000";
layers = (
{
layerId = "F8C3375C-B372-4BAE-A3FB-5A8DC7FA7AB9";
paths = (
{
closed = 1;
nodes = (
"0 873 LINE",
"1200 -480 LINE",
"1200 2226 LINE"
);
}
);
width = 1200;
}
);
note = uniE0B2;
unicode = E0B2;
},
{
color = 2;
glyphname = uniE0B3;
lastChange = "2020-05-18 20:31:59 +0000";
layers = (
{
layerId = "F8C3375C-B372-4BAE-A3FB-5A8DC7FA7AB9";
paths = (
{
closed = 1;
nodes = (
"200 873 LINE",
"1200 2119 LINE",
"1097 2226 LINE",
"0 873 LINE",
"1097 -480 LINE",
"1200 -372 LINE"
);
}
);
width = 1200;
}
);
note = uniE0B3;
unicode = E0B3;
},
{
color = 2;
glyphname = uniE0B4;
lastChange = "2020-05-18 20:33:23 +0000";
layers = (
{
layerId = "F8C3375C-B372-4BAE-A3FB-5A8DC7FA7AB9";
paths = (
{
closed = 1;
nodes = (
"0 -492 LINE",
"723 -492 OFFCURVE",
"1200 50 OFFCURVE",
"1200 873 CURVE SMOOTH",
"1200 1689 OFFCURVE",
"723 2226 OFFCURVE",
"0 2226 CURVE"
);
}
);
width = 1200;
}
);
note = uniE0B4;
unicode = E0B4;
},
{
color = 2;
glyphname = uniE0B5;
lastChange = "2020-05-18 20:33:43 +0000";
layers = (
{
background = {
paths = (
{
closed = 1;
nodes = (
"238 -492 LINE",
"490 -401 OFFCURVE",
"706 -256 OFFCURVE",
"856 -91 CURVE SMOOTH",
"1005 74 OFFCURVE",
"1113 268 OFFCURVE",
"1163 460 CURVE SMOOTH",
"1187 556 OFFCURVE",
"1200 652 OFFCURVE",
"1200 747 CURVE SMOOTH",
"1200 842 OFFCURVE",
"1187 938 OFFCURVE",
"1163 1035 CURVE SMOOTH",
"1113 1227 OFFCURVE",
"1057 1386 OFFCURVE",
"697 1692 CURVE",
"727 1705 OFFCURVE",
"575 1804 OFFCURVE",
"238 1990 CURVE",
"0 1990 LINE",
"249 1898 OFFCURVE",
"465 1753 OFFCURVE",
"616 1587 CURVE SMOOTH",
"690 1504 OFFCURVE",
"756 1415 OFFCURVE",
"808 1321 CURVE SMOOTH",
"913 1132 OFFCURVE",
"962 938 OFFCURVE",
"962 747 CURVE SMOOTH",
"962 508 OFFCURVE",
"878 262 OFFCURVE",
"721 41 CURVE SMOOTH",
"563 -180 OFFCURVE",
"310 -377 OFFCURVE",
"0 -492 CURVE"
);
}
);
};
layerId = "F8C3375C-B372-4BAE-A3FB-5A8DC7FA7AB9";
paths = (
{
closed = 1;
nodes = (
"0 2226 LINE",
"580 2012 OFFCURVE",
"962 1475 OFFCURVE",
"962 873 CURVE SMOOTH",
"962 264 OFFCURVE",
"580 -278 OFFCURVE",
"0 -492 CURVE",
"238 -492 LINE",
"818 -283 OFFCURVE",
"1200 259 OFFCURVE",
"1200 873 CURVE SMOOTH",
"1200 1480 OFFCURVE",
"818 2017 OFFCURVE",
"238 2226 CURVE"
);
}
);
width = 1200;
}
);
note = uniE0B5;
unicode = E0B5;
},
{
color = 2;
glyphname = uniE0B6;
lastChange = "2020-05-18 20:34:12 +0000";
layers = (
{
layerId = "F8C3375C-B372-4BAE-A3FB-5A8DC7FA7AB9";
paths = (
{
closed = 1;
nodes = (
"477 2226 OFFCURVE",
"0 1689 OFFCURVE",
"0 873 CURVE SMOOTH",
"0 50 OFFCURVE",
"477 -492 OFFCURVE",
"1200 -492 CURVE",
"1200 2226 LINE"
);
}
);
width = 1200;
}
);
note = uniE0B6;
unicode = E0B6;
},
{
color = 2;
glyphname = uniE0B7;
lastChange = "2020-05-18 20:34:19 +0000";
layers = (
{
layerId = "F8C3375C-B372-4BAE-A3FB-5A8DC7FA7AB9";
paths = (
{
closed = 1;
nodes = (
"382 2017 OFFCURVE",
"0 1480 OFFCURVE",
"0 873 CURVE SMOOTH",
"0 259 OFFCURVE",
"382 -283 OFFCURVE",
"962 -492 CURVE",
"1200 -492 LINE",
"620 -278 OFFCURVE",
"238 264 OFFCURVE",
"238 873 CURVE SMOOTH",
"238 1475 OFFCURVE",
"620 2012 OFFCURVE",
"1200 2226 CURVE",
"962 2226 LINE"
);
}
);
width = 1200;
}
);
note = uniE0B7;
unicode = E0B7;
},
{
color = 2;
glyphname = uniE0B8;
lastChange = "2020-05-18 20:34:45 +0000";
layers = (
{
layerId = "F8C3375C-B372-4BAE-A3FB-5A8DC7FA7AB9";
paths = (
{
closed = 1;
nodes = (
"0 -480 LINE",
"1200 -480 LINE",
"0 2226 LINE"
);
}
);
width = 1200;
}
);
note = uniE0B8;
unicode = E0B8;
},
{
color = 2;
glyphname = uniE0B9;
lastChange = "2020-05-18 20:35:42 +0000";
layers = (
{
layerId = "F8C3375C-B372-4BAE-A3FB-5A8DC7FA7AB9";
paths = (
{
closed = 1;
nodes = (
"1144 -480 LINE",
"1200 -480 LINE",
"56 2226 LINE",
"0 2226 LINE"
);
}
);
width = 1200;
}
);
note = uniE0B9;
unicode = E0B9;
},
{
color = 2;
glyphname = uniE0BA;
lastChange = "2020-05-18 20:35:01 +0000";
layers = (
{
layerId = "F8C3375C-B372-4BAE-A3FB-5A8DC7FA7AB9";
paths = (
{
closed = 1;
nodes = (
"0 -480 LINE",
"1200 -480 LINE",
"1200 2226 LINE"
);
}
);
width = 1200;
}
);
note = uniE0BA;
unicode = E0BA;
},
{
color = 2;
glyphname = uniE0BB;
lastChange = "2020-05-18 20:36:47 +0000";
layers = (
{
layerId = "F8C3375C-B372-4BAE-A3FB-5A8DC7FA7AB9";
paths = (
{
closed = 1;
nodes = (
"1144 2226 LINE",
"0 -480 LINE",
"56 -480 LINE",
"1200 2226 LINE"
);
}
);
width = 1200;
}
);
note = uniE0BB;
unicode = E0BB;
},
{
color = 2;
glyphname = uniE0BC;
lastChange = "2020-05-18 20:36:36 +0000";
layers = (
{
layerId = "F8C3375C-B372-4BAE-A3FB-5A8DC7FA7AB9";
paths = (
{
closed = 1;
nodes = (
"1200 2226 LINE",
"0 2226 LINE",
"0 -480 LINE"
);
}
);
width = 1200;
}
);
note = uniE0BC;
unicode = E0BC;
},
{
color = 2;
glyphname = uniE0BD;
lastChange = "2020-05-18 20:36:50 +0000";
layers = (
{
layerId = "F8C3375C-B372-4BAE-A3FB-5A8DC7FA7AB9";
paths = (
{
closed = 1;
nodes = (
"1144 2226 LINE",
"0 -480 LINE",
"56 -480 LINE",
"1200 2226 LINE"
);
}
);
width = 1200;
}
);
note = uniE0BD;
unicode = E0BD;
},
{
color = 2;
glyphname = uniE0BE;
lastChange = "2020-05-18 20:36:41 +0000";
layers = (
{
layerId = "F8C3375C-B372-4BAE-A3FB-5A8DC7FA7AB9";
paths = (
{
closed = 1;
nodes = (
"1200 2226 LINE",
"0 2226 LINE",
"1200 -480 LINE"
);
}
);
width = 1200;
}
);
note = uniE0BE;
unicode = E0BE;
},
{
color = 2;
glyphname = uniE0BF;
lastChange = "2020-05-18 20:36:20 +0000";
layers = (
{
layerId = "F8C3375C-B372-4BAE-A3FB-5A8DC7FA7AB9";
paths = (
{
closed = 1;
nodes = (
"1144 -480 LINE",
"1200 -480 LINE",
"56 2226 LINE",
"0 2226 LINE"
);
}
);
width = 1200;
}
);
note = uniE0BF;
unicode = E0BF;
},
{
color = 2;
glyphname = uniE0C0;
lastChange = "2020-05-18 20:37:32 +0000";
layers = (
{
layerId = "F8C3375C-B372-4BAE-A3FB-5A8DC7FA7AB9";
paths = (
{
closed = 1;
nodes = (
"10 -480 LINE",
"31 -480 OFFCURVE",
"56 -444 OFFCURVE",
"80 -398 CURVE SMOOTH",
"93 -371 OFFCURVE",
"106 -345 OFFCURVE",
"119 -319 CURVE SMOOTH",
"141 -275 OFFCURVE",
"166 -242 OFFCURVE",
"187 -242 CURVE SMOOTH",
"191 -242 OFFCURVE",
"195 -243 OFFCURVE",
"199 -246 CURVE SMOOTH",
"209 -253 OFFCURVE",
"221 -257 OFFCURVE",
"231 -257 CURVE SMOOTH",
"240 -257 OFFCURVE",
"248 -254 OFFCURVE",
"256 -251 CURVE SMOOTH",
"265 -247 OFFCURVE",
"275 -241 OFFCURVE",
"285 -235 CURVE SMOOTH",
"300 -224 OFFCURVE",
"327 -201 OFFCURVE",
"342 -191 CURVE SMOOTH",
"353 -183 OFFCURVE",
"363 -177 OFFCURVE",
"371 -172 CURVE",
"354 -161 OFFCURVE",
"322 -150 OFFCURVE",
"299 -135 CURVE SMOOTH",
"288 -126 OFFCURVE",
"277 -114 OFFCURVE",
"268 -100 CURVE SMOOTH",
"243 -62 OFFCURVE",
"226 -43 OFFCURVE",
"207 -43 CURVE SMOOTH",
"203 -43 OFFCURVE",
"198 -44 OFFCURVE",
"194 -46 CURVE SMOOTH",
"181 -52 OFFCURVE",
"167 -65 OFFCURVE",
"152 -88 CURVE",
"152 -67 LINE SMOOTH",
"149 54 OFFCURVE",
"189 161 OFFCURVE",
"225 200 CURVE SMOOTH",
"236 213 OFFCURVE",
"249 219 OFFCURVE",
"261 219 CURVE SMOOTH",
"274 219 OFFCURVE",
"288 212 OFFCURVE",
"300 202 CURVE SMOOTH",
"312 192 OFFCURVE",
"324 180 OFFCURVE",
"337 166 CURVE SMOOTH",
"357 144 OFFCURVE",
"391 103 OFFCURVE",
"410 88 CURVE SMOOTH",
"424 77 OFFCURVE",
"437 73 OFFCURVE",
"448 73 CURVE SMOOTH",
"508 73 OFFCURVE",
"578 105 OFFCURVE",
"625 181 CURVE",
"597 158 OFFCURVE",
"571 146 OFFCURVE",
"547 146 CURVE SMOOTH",
"536 146 OFFCURVE",
"526 150 OFFCURVE",
"516 154 CURVE SMOOTH",
"491 166 OFFCURVE",
"471 202 OFFCURVE",
"461 237 CURVE SMOOTH",
"451 271 OFFCURVE",
"434 328 OFFCURVE",
"421 359 CURVE SMOOTH",
"414 374 LINE",
"435 394 OFFCURVE",
"448 411 OFFCURVE",
"462 440 CURVE SMOOTH",
"464 444 OFFCURVE",
"469 455 OFFCURVE",
"476 472 CURVE SMOOTH",
"483 488 OFFCURVE",
"488 500 OFFCURVE",
"491 508 CURVE SMOOTH",
"497 520 OFFCURVE",
"503 524 OFFCURVE",
"512 524 CURVE SMOOTH",
"527 524 OFFCURVE",
"545 509 OFFCURVE",
"562 490 CURVE SMOOTH",
"577 473 OFFCURVE",
"607 436 OFFCURVE",
"624 416 CURVE SMOOTH",
"636 402 OFFCURVE",
"646 390 OFFCURVE",
"655 382 CURVE SMOOTH",
"672 365 OFFCURVE",
"690 359 OFFCURVE",
"705 359 CURVE SMOOTH",
"713 359 OFFCURVE",
"738 365 OFFCURVE",
"747 365 CURVE SMOOTH",
"769 365 OFFCURVE",
"812 411 OFFCURVE",
"842 446 CURVE SMOOTH",
"859 464 OFFCURVE",
"890 503 OFFCURVE",
"906 523 CURVE SMOOTH",
"925 546 OFFCURVE",
"952 580 OFFCURVE",
"969 602 CURVE",
"895 554 OFFCURVE",
"824 520 OFFCURVE",
"784 520 CURVE SMOOTH",
"774 520 OFFCURVE",
"766 522 OFFCURVE",
"760 526 CURVE",
"760 527 OFFCURVE",
"694 582 OFFCURVE",
"683 601 CURVE SMOOTH",
"656 644 OFFCURVE",
"620 719 OFFCURVE",
"590 761 CURVE SMOOTH",
"580 774 OFFCURVE",
"571 781 OFFCURVE",
"564 781 CURVE SMOOTH",
"563 781 OFFCURVE",
"562 781 OFFCURVE",
"560 779 CURVE SMOOTH",
"547 774 LINE",
"556 801 LINE SMOOTH",
"584 888 OFFCURVE",
"616 928 OFFCURVE",
"648 938 CURVE SMOOTH",
"667 944 OFFCURVE",
"675 946 OFFCURVE",
"699 948 CURVE SMOOTH",
"710 949 OFFCURVE",
"719 949 OFFCURVE",
"725 950 CURVE SMOOTH",
"769 958 OFFCURVE",
"802 986 OFFCURVE",
"847 1047 CURVE",
"835 1040 OFFCURVE",
"824 1038 OFFCURVE",
"812 1038 CURVE SMOOTH",
"802 1038 OFFCURVE",
"792 1040 OFFCURVE",
"783 1046 CURVE SMOOTH",
"754 1063 OFFCURVE",
"742 1060 OFFCURVE",
"712 1082 CURVE SMOOTH",
"694 1094 OFFCURVE",
"679 1113 OFFCURVE",
"667 1141 CURVE SMOOTH",
"661 1157 LINE",
"680 1171 OFFCURVE",
"706 1198 OFFCURVE",
"730 1239 CURVE SMOOTH",
"736 1249 OFFCURVE",
"775 1324 OFFCURVE",
"777 1326 CURVE",
"809 1387 OFFCURVE",
"849 1419 OFFCURVE",
"884 1422 CURVE SMOOTH",
"890 1422 OFFCURVE",
"895 1423 OFFCURVE",
"901 1423 CURVE SMOOTH",
"932 1423 OFFCURVE",
"965 1417 OFFCURVE",
"994 1406 CURVE SMOOTH",
"1016 1397 OFFCURVE",
"1039 1393 OFFCURVE",
"1062 1393 CURVE SMOOTH",
"1076 1393 OFFCURVE",
"1089 1394 OFFCURVE",
"1102 1397 CURVE SMOOTH",
"1135 1406 OFFCURVE",
"1171 1446 OFFCURVE",
"1200 1520 CURVE",
"1174 1480 OFFCURVE",
"1146 1465 OFFCURVE",
"1121 1465 CURVE SMOOTH",
"1105 1465 OFFCURVE",
"1086 1473 OFFCURVE",
"1065 1492 CURVE SMOOTH",
"1032 1522 OFFCURVE",
"1009 1551 OFFCURVE",
"972 1605 CURVE SMOOTH",
"915 1688 OFFCURVE",
"858 1730 OFFCURVE",
"803 1730 CURVE SMOOTH",
"772 1730 OFFCURVE",
"741 1718 OFFCURVE",
"711 1692 CURVE SMOOTH",
"679 1663 OFFCURVE",
"636 1595 OFFCURVE",
"605 1549 CURVE SMOOTH",
"578 1510 OFFCURVE",
"545 1477 OFFCURVE",
"513 1477 CURVE SMOOTH",
"505 1477 OFFCURVE",
"497 1479 OFFCURVE",
"489 1484 CURVE SMOOTH",
"445 1507 OFFCURVE",
"418 1577 OFFCURVE",
"418 1658 CURVE SMOOTH",
"418 1727 OFFCURVE",
"437 1789 OFFCURVE",
"474 1825 CURVE SMOOTH",
"493 1846 OFFCURVE",
"521 1870 OFFCURVE",
"540 1890 CURVE SMOOTH",
"548 1898 OFFCURVE",
"557 1908 OFFCURVE",
"567 1922 CURVE SMOOTH",
"588 1948 OFFCURVE",
"605 1981 OFFCURVE",
"622 2024 CURVE",
"591 1973 OFFCURVE",
"562 1940 OFFCURVE",
"531 1940 CURVE SMOOTH",
"512 1940 OFFCURVE",
"493 1952 OFFCURVE",
"471 1980 CURVE SMOOTH",
"448 2008 OFFCURVE",
"427 2021 OFFCURVE",
"407 2021 CURVE SMOOTH",
"391 2021 OFFCURVE",
"377 2014 OFFCURVE",
"363 1998 CURVE SMOOTH",
"347 1981 OFFCURVE",
"328 1952 OFFCURVE",
"308 1912 CURVE SMOOTH",
"297 1890 OFFCURVE",
"277 1850 OFFCURVE",
"259 1819 CURVE SMOOTH",
"250 1802 OFFCURVE",
"243 1790 OFFCURVE",
"237 1782 CURVE SMOOTH",
"230 1775 OFFCURVE",
"222 1765 OFFCURVE",
"214 1754 CURVE SMOOTH",
"201 1738 OFFCURVE",
"188 1729 OFFCURVE",
"176 1729 CURVE SMOOTH",
"159 1729 OFFCURVE",
"144 1746 OFFCURVE",
"134 1785 CURVE SMOOTH",
"130 1797 OFFCURVE",
"129 1808 OFFCURVE",
"129 1820 CURVE SMOOTH",
"129 1839 OFFCURVE",
"134 1859 OFFCURVE",
"143 1878 CURVE SMOOTH",
"150 1891 OFFCURVE",
"163 1911 OFFCURVE",
"182 1936 CURVE SMOOTH",
"201 1961 OFFCURVE",
"213 1981 OFFCURVE",
"216 1993 CURVE SMOOTH",
"224 2021 OFFCURVE",
"252 2114 OFFCURVE",
"263 2136 CURVE SMOOTH",
"279 2171 OFFCURVE",
"294 2191 OFFCURVE",
"321 2188 CURVE",
"303 2213 OFFCURVE",
"285 2226 OFFCURVE",
"267 2226 CURVE SMOOTH",
"241 2226 OFFCURVE",
"216 2203 OFFCURVE",
"190 2157 CURVE SMOOTH",
"172 2125 OFFCURVE",
"160 2108 OFFCURVE",
"142 2086 CURVE SMOOTH",
"132 2074 OFFCURVE",
"124 2066 OFFCURVE",
"116 2063 CURVE SMOOTH",
"110 2060 OFFCURVE",
"104 2058 OFFCURVE",
"98 2058 CURVE SMOOTH",
"78 2058 OFFCURVE",
"60 2077 OFFCURVE",
"43 2126 CURVE SMOOTH",
"32 2158 OFFCURVE",
"29 2179 OFFCURVE",
"20 2196 CURVE SMOOTH",
"14 2206 OFFCURVE",
"10 2206 OFFCURVE",
"1 2207 CURVE",
"1 2183 OFFCURVE",
"0 2155 OFFCURVE",
"0 2123 CURVE SMOOTH",
"0 2062 OFFCURVE",
"1 1985 OFFCURVE",
"2 1896 CURVE SMOOTH",
"3 1763 OFFCURVE",
"3 1675 OFFCURVE",
"4 1638 CURVE SMOOTH",
"4 1162 OFFCURVE",
"2 -259 OFFCURVE",
"1 -478 CURVE",
"4 -480 OFFCURVE",
"7 -480 OFFCURVE",
"10 -480 CURVE"
);
}
);
width = 1200;
}
);
note = uniE0C0;
unicode = E0C0;
},
{
color = 2;
glyphname = uniE0C1;
lastChange = "2020-05-18 20:37:47 +0000";
layers = (
{
background = {
paths = (
{
closed = 1;
nodes = (
"40 -492 OFFCURVE",
"66 -463 OFFCURVE",
"88 -423 CURVE SMOOTH",
"101 -400 OFFCURVE",
"114 -376 OFFCURVE",
"126 -353 CURVE SMOOTH",
"147 -312 OFFCURVE",
"169 -283 OFFCURVE",
"187 -283 CURVE SMOOTH",
"189 -283 OFFCURVE",
"192 -284 OFFCURVE",
"195 -285 CURVE SMOOTH",
"205 -292 OFFCURVE",
"216 -295 OFFCURVE",
"227 -295 CURVE SMOOTH",
"235 -295 OFFCURVE",
"244 -293 OFFCURVE",
"251 -290 CURVE SMOOTH",
"260 -287 OFFCURVE",
"269 -282 OFFCURVE",
"279 -277 CURVE SMOOTH",
"294 -268 OFFCURVE",
"319 -248 OFFCURVE",
"334 -239 CURVE SMOOTH",
"344 -232 OFFCURVE",
"353 -227 OFFCURVE",
"360 -223 CURVE SMOOTH",
"361 -222 OFFCURVE",
"363 -222 OFFCURVE",
"364 -222 CURVE",
"399 -110 LINE",
"382 -101 OFFCURVE",
"352 -90 OFFCURVE",
"330 -76 CURVE SMOOTH",
"319 -69 OFFCURVE",
"309 -59 OFFCURVE",
"301 -47 CURVE SMOOTH",
"276 -13 OFFCURVE",
"260 4 OFFCURVE",
"240 4 CURVE SMOOTH",
"225 4 OFFCURVE",
"209 -5 OFFCURVE",
"191 -26 CURVE",
"190 21 OFFCURVE",
"195 56 OFFCURVE",
"207 79 CURVE SMOOTH",
"213 91 OFFCURVE",
"219 100 OFFCURVE",
"226 107 CURVE SMOOTH",
"236 115 OFFCURVE",
"245 119 OFFCURVE",
"255 119 CURVE SMOOTH",
"270 119 OFFCURVE",
"286 109 OFFCURVE",
"305 92 CURVE SMOOTH",
"320 79 OFFCURVE",
"335 65 OFFCURVE",
"348 51 CURVE SMOOTH",
"374 22 OFFCURVE",
"408 -6 OFFCURVE",
"432 -7 CURVE SMOOTH",
"503 -9 OFFCURVE",
"562 23 OFFCURVE",
"610 88 CURVE SMOOTH",
"612 91 OFFCURVE",
"615 94 OFFCURVE",
"617 97 CURVE SMOOTH",
"629 114 OFFCURVE",
"635 145 OFFCURVE",
"638 171 CURVE",
"638 180 OFFCURVE",
"639 196 OFFCURVE",
"639 199 CURVE",
"612 180 OFFCURVE",
"588 171 OFFCURVE",
"566 171 CURVE SMOOTH",
"556 171 OFFCURVE",
"547 172 OFFCURVE",
"538 176 CURVE SMOOTH",
"514 187 OFFCURVE",
"499 213 OFFCURVE",
"486 250 CURVE SMOOTH",
"483 259 OFFCURVE",
"479 272 OFFCURVE",
"474 287 CURVE SMOOTH",
"461 325 LINE",
"464 331 OFFCURVE",
"475 352 OFFCURVE",
"491 387 CURVE",
"493 388 OFFCURVE",
"494 388 OFFCURVE",
"496 388 CURVE SMOOTH",
"514 388 OFFCURVE",
"549 353 OFFCURVE",
"582 317 CURVE SMOOTH",
"605 292 OFFCURVE",
"622 275 OFFCURVE",
"633 264 CURVE SMOOTH",
"650 250 OFFCURVE",
"667 244 OFFCURVE",
"685 244 CURVE SMOOTH",
"691 244 OFFCURVE",
"697 245 OFFCURVE",
"704 246 CURVE SMOOTH",
"717 249 OFFCURVE",
"724 250 OFFCURVE",
"724 250 CURVE SMOOTH",
"738 250 OFFCURVE",
"763 266 OFFCURVE",
"783 284 CURVE SMOOTH",
"797 296 OFFCURVE",
"818 318 OFFCURVE",
"834 335 CURVE SMOOTH",
"849 351 OFFCURVE",
"873 379 OFFCURVE",
"888 396 CURVE SMOOTH",
"904 415 OFFCURVE",
"927 441 OFFCURVE",
"941 458 CURVE SMOOTH",
"944 461 LINE",
"951 488 LINE SMOOTH",
"955 506 OFFCURVE",
"960 524 OFFCURVE",
"964 542 CURVE SMOOTH",
"971 568 LINE",
"902 527 OFFCURVE",
"832 497 OFFCURVE",
"795 497 CURVE SMOOTH",
"786 497 OFFCURVE",
"779 498 OFFCURVE",
"774 502 CURVE",
"763 516 OFFCURVE",
"718 540 OFFCURVE",
"700 566 CURVE SMOOTH",
"679 597 OFFCURVE",
"646 656 OFFCURVE",
"621 692 CURVE SMOOTH",
"610 708 OFFCURVE",
"600 718 OFFCURVE",
"592 723 CURVE",
"608 745 OFFCURVE",
"629 750 OFFCURVE",
"651 755 CURVE SMOOTH",
"656 756 OFFCURVE",
"665 757 OFFCURVE",
"678 758 CURVE SMOOTH",
"690 759 OFFCURVE",
"699 760 OFFCURVE",
"704 761 CURVE SMOOTH",
"747 768 OFFCURVE",
"783 798 OFFCURVE",
"828 851 CURVE SMOOTH",
"838 863 OFFCURVE",
"846 903 OFFCURVE",
"850 927 CURVE SMOOTH",
"852 938 OFFCURVE",
"853 945 OFFCURVE",
"854 949 CURVE SMOOTH",
"854 953 OFFCURVE",
"854 956 OFFCURVE",
"854 958 CURVE",
"853 957 OFFCURVE",
"852 957 OFFCURVE",
"851 957 CURVE SMOOTH",
"841 953 OFFCURVE",
"831 951 OFFCURVE",
"822 951 CURVE SMOOTH",
"813 951 OFFCURVE",
"804 953 OFFCURVE",
"796 957 CURVE SMOOTH",
"782 964 OFFCURVE",
"755 972 OFFCURVE",
"734 984 CURVE SMOOTH",
"724 989 OFFCURVE",
"714 997 OFFCURVE",
"706 1006 CURVE",
"715 1019 OFFCURVE",
"735 1052 OFFCURVE",
"766 1104 CURVE SMOOTH",
"789 1142 OFFCURVE",
"819 1161 OFFCURVE",
"849 1161 CURVE SMOOTH",
"881 1161 OFFCURVE",
"922 1153 OFFCURVE",
"959 1142 CURVE SMOOTH",
"972 1138 OFFCURVE",
"987 1136 OFFCURVE",
"1001 1136 CURVE SMOOTH",
"1025 1136 OFFCURVE",
"1049 1141 OFFCURVE",
"1071 1151 CURVE SMOOTH",
"1107 1166 OFFCURVE",
"1148 1213 OFFCURVE",
"1182 1288 CURVE SMOOTH",
"1194 1315 OFFCURVE",
"1200 1336 OFFCURVE",
"1200 1349 CURVE SMOOTH",
"1200 1355 OFFCURVE",
"1200 1360 OFFCURVE",
"1196 1363 CURVE",
"1191 1364 OFFCURVE",
"1188 1365 OFFCURVE",
"1188 1365 CURVE",
"1168 1339 OFFCURVE",
"1147 1326 OFFCURVE",
"1125 1326 CURVE SMOOTH",
"1113 1326 OFFCURVE",
"1101 1329 OFFCURVE",
"1089 1336 CURVE SMOOTH",
"1053 1356 OFFCURVE",
"1021 1389 OFFCURVE",
"979 1446 CURVE SMOOTH",
"924 1518 OFFCURVE",
"870 1555 OFFCURVE",
"817 1557 CURVE SMOOTH",
"785 1558 OFFCURVE",
"753 1546 OFFCURVE",
"722 1522 CURVE SMOOTH",
"700 1506 OFFCURVE",
"676 1477 OFFCURVE",
"658 1453 CURVE SMOOTH",
"641 1428 OFFCURVE",
"618 1397 OFFCURVE",
"602 1377 CURVE SMOOTH",
"583 1355 OFFCURVE",
"557 1336 OFFCURVE",
"538 1336 CURVE SMOOTH",
"530 1336 OFFCURVE",
"522 1337 OFFCURVE",
"512 1341 CURVE SMOOTH",
"483 1354 OFFCURVE",
"461 1394 OFFCURVE",
"452 1436 CURVE SMOOTH",
"448 1451 OFFCURVE",
"446 1466 OFFCURVE",
"446 1482 CURVE SMOOTH",
"446 1487 OFFCURVE",
"447 1492 OFFCURVE",
"447 1497 CURVE SMOOTH",
"448 1502 OFFCURVE",
"448 1506 OFFCURVE",
"449 1510 CURVE",
"453 1517 OFFCURVE",
"459 1524 OFFCURVE",
"466 1530 CURVE SMOOTH",
"483 1546 OFFCURVE",
"510 1567 OFFCURVE",
"529 1585 CURVE SMOOTH",
"537 1592 OFFCURVE",
"547 1603 OFFCURVE",
"559 1616 CURVE SMOOTH",
"582 1643 OFFCURVE",
"604 1682 OFFCURVE",
"626 1735 CURVE SMOOTH",
"638 1763 OFFCURVE",
"643 1782 OFFCURVE",
"643 1794 CURVE SMOOTH",
"643 1800 OFFCURVE",
"642 1804 OFFCURVE",
"638 1806 CURVE",
"632 1805 OFFCURVE",
"629 1805 OFFCURVE",
"629 1805 CURVE",
"628 1804 OFFCURVE",
"627 1802 OFFCURVE",
"626 1800 CURVE SMOOTH",
"601 1764 OFFCURVE",
"577 1740 OFFCURVE",
"551 1740 CURVE SMOOTH",
"534 1740 OFFCURVE",
"516 1750 OFFCURVE",
"496 1774 CURVE SMOOTH",
"473 1799 OFFCURVE",
"453 1811 OFFCURVE",
"433 1811 CURVE SMOOTH",
"417 1811 OFFCURVE",
"401 1803 OFFCURVE",
"384 1788 CURVE SMOOTH",
"366 1770 OFFCURVE",
"345 1741 OFFCURVE",
"323 1701 CURVE SMOOTH",
"301 1665 OFFCURVE",
"276 1611 OFFCURVE",
"249 1582 CURVE SMOOTH",
"236 1567 OFFCURVE",
"222 1555 OFFCURVE",
"208 1555 CURVE SMOOTH",
"195 1555 OFFCURVE",
"182 1567 OFFCURVE",
"172 1601 CURVE SMOOTH",
"171 1604 OFFCURVE",
"170 1606 OFFCURVE",
"170 1609 CURVE",
"196 1636 OFFCURVE",
"219 1658 OFFCURVE",
"242 1726 CURVE SMOOTH",
"254 1761 OFFCURVE",
"269 1811 OFFCURVE",
"274 1826 CURVE SMOOTH",
"282 1844 OFFCURVE",
"293 1845 OFFCURVE",
"310 1845 CURVE SMOOTH",
"314 1845 LINE",
"352 1956 LINE",
"334 1979 OFFCURVE",
"316 1990 OFFCURVE",
"296 1990 CURVE SMOOTH",
"269 1990 OFFCURVE",
"241 1966 OFFCURVE",
"211 1919 CURVE SMOOTH",
"197 1896 OFFCURVE",
"168 1852 OFFCURVE",
"149 1846 CURVE SMOOTH",
"144 1844 OFFCURVE",
"139 1843 OFFCURVE",
"134 1843 CURVE SMOOTH",
"116 1843 OFFCURVE",
"101 1857 OFFCURVE",
"84 1901 CURVE SMOOTH",
"75 1927 OFFCURVE",
"70 1948 OFFCURVE",
"61 1963 CURVE SMOOTH",
"55 1974 OFFCURVE",
"51 1974 OFFCURVE",
"41 1975 CURVE SMOOTH",
"33 1975 OFFCURVE",
"18 1945 OFFCURVE",
"10 1920 CURVE SMOOTH",
"7 1911 OFFCURVE",
"5 1903 OFFCURVE",
"4 1896 CURVE SMOOTH",
"2 1886 OFFCURVE",
"0 1878 OFFCURVE",
"0 1872 CURVE SMOOTH",
"0 1866 OFFCURVE",
"2 1862 OFFCURVE",
"5 1862 CURVE SMOOTH",
"15 1862 OFFCURVE",
"21 1860 OFFCURVE",
"26 1845 CURVE SMOOTH",
"27 1840 OFFCURVE",
"36 1814 OFFCURVE",
"42 1795 CURVE",
"59 1751 OFFCURVE",
"80 1731 OFFCURVE",
"99 1731 CURVE SMOOTH",
"110 1731 OFFCURVE",
"122 1737 OFFCURVE",
"135 1749 CURVE SMOOTH",
"159 1770 OFFCURVE",
"176 1793 OFFCURVE",
"199 1830 CURVE SMOOTH",
"220 1862 OFFCURVE",
"240 1878 OFFCURVE",
"262 1878 CURVE SMOOTH",
"264 1878 OFFCURVE",
"266 1877 OFFCURVE",
"269 1877 CURVE",
"253 1842 OFFCURVE",
"234 1778 OFFCURVE",
"224 1753 CURVE",
"204 1722 OFFCURVE",
"186 1712 OFFCURVE",
"163 1668 CURVE SMOOTH",
"158 1659 OFFCURVE",
"153 1650 OFFCURVE",
"149 1639 CURVE SMOOTH",
"133 1599 OFFCURVE",
"125 1564 OFFCURVE",
"125 1534 CURVE SMOOTH",
"125 1520 OFFCURVE",
"126 1508 OFFCURVE",
"130 1496 CURVE SMOOTH",
"140 1459 OFFCURVE",
"155 1446 OFFCURVE",
"171 1446 CURVE SMOOTH",
"182 1446 OFFCURVE",
"194 1452 OFFCURVE",
"206 1461 CURVE SMOOTH",
"219 1471 OFFCURVE",
"239 1496 OFFCURVE",
"251 1512 CURVE SMOOTH",
"262 1527 OFFCURVE",
"279 1554 OFFCURVE",
"299 1591 CURVE SMOOTH",
"315 1619 LINE SMOOTH",
"344 1670 OFFCURVE",
"369 1700 OFFCURVE",
"397 1700 CURVE SMOOTH",
"415 1700 OFFCURVE",
"434 1689 OFFCURVE",
"456 1664 CURVE SMOOTH",
"467 1651 OFFCURVE",
"478 1641 OFFCURVE",
"489 1635 CURVE",
"476 1622 OFFCURVE",
"464 1606 OFFCURVE",
"453 1586 CURVE SMOOTH",
"444 1569 OFFCURVE",
"435 1549 OFFCURVE",
"427 1527 CURVE SMOOTH",
"410 1479 OFFCURVE",
"402 1434 OFFCURVE",
"402 1390 CURVE SMOOTH",
"402 1310 OFFCURVE",
"430 1249 OFFCURVE",
"475 1229 CURVE SMOOTH",
"482 1225 OFFCURVE",
"490 1223 OFFCURVE",
"498 1223 CURVE SMOOTH",
"518 1223 OFFCURVE",
"539 1235 OFFCURVE",
"556 1249 CURVE SMOOTH",
"568 1259 OFFCURVE",
"580 1272 OFFCURVE",
"594 1289 CURVE SMOOTH",
"614 1313 OFFCURVE",
"646 1360 OFFCURVE",
"663 1381 CURVE SMOOTH",
"675 1396 OFFCURVE",
"685 1406 OFFCURVE",
"693 1413 CURVE SMOOTH",
"721 1434 OFFCURVE",
"749 1445 OFFCURVE",
"778 1445 CURVE SMOOTH",
"830 1445 OFFCURVE",
"884 1409 OFFCURVE",
"939 1336 CURVE SMOOTH",
"959 1310 OFFCURVE",
"975 1289 OFFCURVE",
"989 1274 CURVE",
"986 1276 OFFCURVE",
"979 1277 OFFCURVE",
"976 1278 CURVE SMOOTH",
"948 1286 OFFCURVE",
"940 1287 OFFCURVE",
"913 1290 CURVE SMOOTH",
"900 1291 OFFCURVE",
"889 1290 OFFCURVE",
"879 1287 CURVE SMOOTH",
"861 1280 OFFCURVE",
"834 1268 OFFCURVE",
"811 1240 CURVE SMOOTH",
"799 1226 OFFCURVE",
"787 1209 OFFCURVE",
"776 1189 CURVE SMOOTH",
"765 1172 OFFCURVE",
"750 1144 OFFCURVE",
"740 1128 CURVE SMOOTH",
"726 1107 LINE SMOOTH",
"713 1088 OFFCURVE",
"692 1066 OFFCURVE",
"673 1054 CURVE",
"662 1032 LINE SMOOTH",
"655 1018 OFFCURVE",
"648 1002 OFFCURVE",
"642 984 CURVE SMOOTH",
"638 972 OFFCURVE",
"636 962 OFFCURVE",
"636 955 CURVE SMOOTH",
"636 951 OFFCURVE",
"637 948 OFFCURVE",
"638 945 CURVE SMOOTH",
"644 931 LINE SMOOTH",
"657 904 OFFCURVE",
"675 883 OFFCURVE",
"700 870 CURVE",
"688 869 OFFCURVE",
"665 867 OFFCURVE",
"655 861 CURVE SMOOTH",
"640 852 LINE SMOOTH",
"632 848 OFFCURVE",
"627 843 OFFCURVE",
"623 838 CURVE SMOOTH",
"591 798 OFFCURVE",
"577 778 OFFCURVE",
"549 700 CURVE SMOOTH",
"540 676 LINE SMOOTH",
"534 660 OFFCURVE",
"529 646 OFFCURVE",
"526 633 CURVE SMOOTH",
"525 626 OFFCURVE",
"524 620 OFFCURVE",
"524 616 CURVE SMOOTH",
"524 610 OFFCURVE",
"525 607 OFFCURVE",
"529 607 CURVE SMOOTH",
"530 607 OFFCURVE",
"531 607 OFFCURVE",
"532 608 CURVE SMOOTH",
"546 613 LINE SMOOTH",
"557 617 OFFCURVE",
"585 575 OFFCURVE",
"616 525 CURVE SMOOTH",
"637 492 OFFCURVE",
"651 470 OFFCURVE",
"660 457 CURVE SMOOTH",
"675 435 OFFCURVE",
"697 415 OFFCURVE",
"711 407 CURVE SMOOTH",
"725 398 LINE SMOOTH",
"730 395 OFFCURVE",
"733 392 OFFCURVE",
"735 391 CURVE SMOOTH",
"742 387 OFFCURVE",
"750 384 OFFCURVE",
"760 384 CURVE SMOOTH",
"774 384 OFFCURVE",
"791 388 OFFCURVE",
"812 395 CURVE",
"788 373 OFFCURVE",
"770 362 OFFCURVE",
"759 362 CURVE SMOOTH",
"743 362 OFFCURVE",
"730 357 OFFCURVE",
"715 357 CURVE SMOOTH",
"703 357 OFFCURVE",
"689 361 OFFCURVE",
"673 375 CURVE SMOOTH",
"657 388 OFFCURVE",
"634 417 OFFCURVE",
"617 439 CURVE SMOOTH",
"608 450 OFFCURVE",
"599 460 OFFCURVE",
"589 471 CURVE SMOOTH",
"572 489 OFFCURVE",
"555 503 OFFCURVE",
"538 503 CURVE SMOOTH",
"529 503 OFFCURVE",
"519 498 OFFCURVE",
"510 487 CURVE SMOOTH",
"505 481 OFFCURVE",
"500 473 OFFCURVE",
"495 462 CURVE SMOOTH",
"485 441 OFFCURVE",
"471 407 OFFCURVE",
"462 394 CURVE SMOOTH",
"458 389 OFFCURVE",
"455 385 OFFCURVE",
"452 382 CURVE SMOOTH",
"448 379 OFFCURVE",
"443 375 OFFCURVE",
"435 368 CURVE",
"423 347 LINE SMOOTH",
"416 332 OFFCURVE",
"409 316 OFFCURVE",
"403 298 CURVE SMOOTH",
"400 287 OFFCURVE",
"398 278 OFFCURVE",
"398 271 CURVE SMOOTH",
"398 267 OFFCURVE",
"399 263 OFFCURVE",
"400 260 CURVE SMOOTH",
"407 247 LINE SMOOTH",
"413 232 OFFCURVE",
"422 209 OFFCURVE",
"433 176 CURVE SMOOTH",
"444 143 OFFCURVE",
"453 120 OFFCURVE",
"460 106 CURVE",
"442 111 OFFCURVE",
"417 134 OFFCURVE",
"397 159 CURVE SMOOTH",
"387 171 OFFCURVE",
"375 183 OFFCURVE",
"363 195 CURVE SMOOTH",
"339 217 OFFCURVE",
"320 234 OFFCURVE",
"295 234 CURVE SMOOTH",
"280 234 OFFCURVE",
"265 227 OFFCURVE",
"252 214 CURVE SMOOTH",
"236 199 OFFCURVE",
"221 176 OFFCURVE",
"206 144 CURVE SMOOTH",
"166 63 OFFCURVE",
"145 -38 OFFCURVE",
"147 -119 CURVE SMOOTH",
"147 -137 LINE SMOOTH",
"147 -144 OFFCURVE",
"149 -147 OFFCURVE",
"152 -147 CURVE SMOOTH",
"154 -147 OFFCURVE",
"157 -145 OFFCURVE",
"160 -140 CURVE SMOOTH",
"175 -119 OFFCURVE",
"189 -109 OFFCURVE",
"202 -109 CURVE SMOOTH",
"219 -109 OFFCURVE",
"237 -124 OFFCURVE",
"260 -156 CURVE SMOOTH",
"266 -165 OFFCURVE",
"273 -173 OFFCURVE",
"281 -179 CURVE",
"274 -181 OFFCURVE",
"268 -182 OFFCURVE",
"262 -182 CURVE SMOOTH",
"251 -182 OFFCURVE",
"242 -179 OFFCURVE",
"233 -174 CURVE SMOOTH",
"228 -171 OFFCURVE",
"223 -170 OFFCURVE",
"218 -170 CURVE SMOOTH",
"195 -170 OFFCURVE",
"169 -196 OFFCURVE",
"148 -233 CURVE SMOOTH",
"135 -256 OFFCURVE",
"122 -279 OFFCURVE",
"110 -303 CURVE SMOOTH",
"87 -345 OFFCURVE",
"64 -378 OFFCURVE",
"47 -378 CURVE SMOOTH",
"45 -378 OFFCURVE",
"43 -378 OFFCURVE",
"42 -377 CURVE SMOOTH",
"36 -374 OFFCURVE",
"22 -397 OFFCURVE",
"11 -428 CURVE SMOOTH",
"9 -435 OFFCURVE",
"7 -443 OFFCURVE",
"5 -451 CURVE SMOOTH",
"2 -463 OFFCURVE",
"0 -472 OFFCURVE",
"0 -478 CURVE SMOOTH",
"0 -484 OFFCURVE",
"2 -488 OFFCURVE",
"4 -489 CURVE SMOOTH",
"8 -491 OFFCURVE",
"12 -492 OFFCURVE",
"16 -492 CURVE SMOOTH"
);
}
);
};
layerId = "F8C3375C-B372-4BAE-A3FB-5A8DC7FA7AB9";
paths = (
{
closed = 1;
nodes = (
"16 -480 LINE",
"84 -480 OFFCURVE",
"135 -252 OFFCURVE",
"187 -252 CURVE SMOOTH",
"196 -252 OFFCURVE",
"207 -265 OFFCURVE",
"227 -265 CURVE SMOOTH",
"276 -265 OFFCURVE",
"339 -189 OFFCURVE",
"364 -185 CURVE",
"399 -64 LINE",
"360 -42 OFFCURVE",
"328 -36 OFFCURVE",
"301 5 CURVE SMOOTH",
"288 25 OFFCURVE",
"265 61 OFFCURVE",
"240 61 CURVE SMOOTH",
"220 61 OFFCURVE",
"203 44 OFFCURVE",
"191 28 CURVE",
"191 40 LINE SMOOTH",
"191 83 OFFCURVE",
"200 186 OFFCURVE",
"255 186 CURVE SMOOTH",
"310 186 OFFCURVE",
"372 49 OFFCURVE",
"438 49 CURVE SMOOTH",
"516 49 OFFCURVE",
"573 94 OFFCURVE",
"617 162 CURVE SMOOTH",
"636 192 OFFCURVE",
"637 240 OFFCURVE",
"639 274 CURVE",
"618 257 OFFCURVE",
"593 243 OFFCURVE",
"566 243 CURVE SMOOTH",
"495 243 OFFCURVE",
"479 354 OFFCURVE",
"461 411 CURVE",
"471 434 OFFCURVE",
"481 456 OFFCURVE",
"491 479 CURVE",
"493 479 OFFCURVE",
"494 480 OFFCURVE",
"496 480 CURVE SMOOTH",
"544 480 OFFCURVE",
"613 322 OFFCURVE",
"685 322 CURVE SMOOTH",
"796 322 OFFCURVE",
"871 486 OFFCURVE",
"944 559 CURVE",
"953 598 OFFCURVE",
"961 637 OFFCURVE",
"971 676 CURVE",
"930 650 OFFCURVE",
"843 598 OFFCURVE",
"795 598 CURVE SMOOTH",
"788 598 OFFCURVE",
"780 598 OFFCURVE",
"774 604 CURVE SMOOTH",
"750 624 OFFCURVE",
"717 646 OFFCURVE",
"700 674 CURVE SMOOTH",
"675 712 OFFCURVE",
"623 824 OFFCURVE",
"592 845 CURVE",
"619 885 OFFCURVE",
"665 878 OFFCURVE",
"704 886 CURVE SMOOTH",
"755 896 OFFCURVE",
"796 942 OFFCURVE",
"828 985 CURVE SMOOTH",
"839 999 OFFCURVE",
"855 1080 OFFCURVE",
"854 1101 CURVE",
"843 1098 OFFCURVE",
"834 1093 OFFCURVE",
"822 1093 CURVE SMOOTH",
"795 1093 OFFCURVE",
"724 1132 OFFCURVE",
"706 1153 CURVE",
"741 1208 OFFCURVE",
"779 1322 OFFCURVE",
"849 1322 CURVE SMOOTH",
"902 1322 OFFCURVE",
"950 1295 OFFCURVE",
"1001 1295 CURVE SMOOTH",
"1097 1295 OFFCURVE",
"1146 1374 OFFCURVE",
"1182 1460 CURVE SMOOTH",
"1190 1479 OFFCURVE",
"1200 1506 OFFCURVE",
"1200 1527 CURVE SMOOTH",
"1200 1533 OFFCURVE",
"1200 1539 OFFCURVE",
"1196 1542 CURVE",
"1188 1545 LINE",
"1173 1523 OFFCURVE",
"1152 1502 OFFCURVE",
"1125 1502 CURVE SMOOTH",
"1019 1502 OFFCURVE",
"955 1754 OFFCURVE",
"813 1754 CURVE SMOOTH",
"673 1754 OFFCURVE",
"620 1513 OFFCURVE",
"538 1513 CURVE SMOOTH",
"473 1513 OFFCURVE",
"446 1616 OFFCURVE",
"446 1672 CURVE SMOOTH",
"446 1677 OFFCURVE",
"447 1698 OFFCURVE",
"449 1702 CURVE SMOOTH",
"455 1718 OFFCURVE",
"540 1795 OFFCURVE",
"559 1818 CURVE SMOOTH",
"588 1853 OFFCURVE",
"609 1905 OFFCURVE",
"626 1948 CURVE SMOOTH",
"633 1966 OFFCURVE",
"643 1992 OFFCURVE",
"643 2012 CURVE SMOOTH",
"643 2017 OFFCURVE",
"643 2023 OFFCURVE",
"638 2026 CURVE",
"629 2024 LINE",
"616 1998 OFFCURVE",
"582 1953 OFFCURVE",
"551 1953 CURVE SMOOTH",
"504 1953 OFFCURVE",
"486 2031 OFFCURVE",
"433 2031 CURVE SMOOTH",
"341 2031 OFFCURVE",
"279 1752 OFFCURVE",
"208 1752 CURVE SMOOTH",
"186 1752 OFFCURVE",
"173 1792 OFFCURVE",
"170 1811 CURVE",
"208 1855 OFFCURVE",
"224 1881 OFFCURVE",
"242 1938 CURVE SMOOTH",
"253 1973 OFFCURVE",
"260 2015 OFFCURVE",
"274 2047 CURVE SMOOTH",
"283 2068 OFFCURVE",
"295 2068 OFFCURVE",
"314 2068 CURVE",
"352 2189 LINE",
"338 2208 OFFCURVE",
"320 2226 OFFCURVE",
"296 2226 CURVE SMOOTH",
"224 2226 OFFCURVE",
"192 2066 OFFCURVE",
"134 2066 CURVE SMOOTH",
"77 2066 OFFCURVE",
"83 2210 OFFCURVE",
"41 2210 CURVE SMOOTH",
"23 2210 OFFCURVE",
"0 2115 OFFCURVE",
"0 2098 CURVE SMOOTH",
"0 2093 OFFCURVE",
"2 2089 OFFCURVE",
"5 2087 CURVE",
"40 2088 OFFCURVE",
"39 1943 OFFCURVE",
"99 1943 CURVE SMOOTH",
"162 1943 OFFCURVE",
"200 2104 OFFCURVE",
"262 2104 CURVE SMOOTH",
"264 2104 OFFCURVE",
"267 2103 OFFCURVE",
"269 2103 CURVE",
"251 2061 OFFCURVE",
"243 2007 OFFCURVE",
"224 1967 CURVE SMOOTH",
"208 1935 OFFCURVE",
"180 1908 OFFCURVE",
"163 1875 CURVE SMOOTH",
"142 1833 OFFCURVE",
"125 1778 OFFCURVE",
"125 1729 CURVE SMOOTH",
"125 1700 OFFCURVE",
"136 1633 OFFCURVE",
"171 1633 CURVE SMOOTH",
"256 1633 OFFCURVE",
"322 1909 OFFCURVE",
"397 1909 CURVE SMOOTH",
"437 1909 OFFCURVE",
"457 1858 OFFCURVE",
"489 1839 CURVE",
"433 1778 OFFCURVE",
"402 1656 OFFCURVE",
"402 1572 CURVE SMOOTH",
"402 1513 OFFCURVE",
"426 1390 OFFCURVE",
"498 1390 CURVE SMOOTH",
"603 1390 OFFCURVE",
"643 1632 OFFCURVE",
"778 1632 CURVE SMOOTH",
"876 1632 OFFCURVE",
"931 1513 OFFCURVE",
"989 1445 CURVE",
"973 1454 OFFCURVE",
"923 1462 OFFCURVE",
"904 1462 CURVE SMOOTH",
"791 1462 OFFCURVE",
"759 1264 OFFCURVE",
"673 1206 CURVE",
"661 1179 OFFCURVE",
"636 1127 OFFCURVE",
"636 1098 CURVE SMOOTH",
"636 1066 OFFCURVE",
"675 1019 OFFCURVE",
"700 1005 CURVE",
"608 996 OFFCURVE",
"578 904 OFFCURVE",
"549 819 CURVE SMOOTH",
"541 795 OFFCURVE",
"524 754 OFFCURVE",
"524 728 CURVE SMOOTH",
"524 725 OFFCURVE",
"524 718 OFFCURVE",
"529 718 CURVE SMOOTH",
"535 718 OFFCURVE",
"541 725 OFFCURVE",
"547 725 CURVE SMOOTH",
"566 725 OFFCURVE",
"643 581 OFFCURVE",
"660 554 CURVE SMOOTH",
"679 526 OFFCURVE",
"698 509 OFFCURVE",
"725 491 CURVE SMOOTH",
"737 482 OFFCURVE",
"744 475 OFFCURVE",
"760 475 CURVE SMOOTH",
"778 475 OFFCURVE",
"795 481 OFFCURVE",
"812 487 CURVE",
"781 456 OFFCURVE",
"758 446 OFFCURVE",
"715 446 CURVE SMOOTH",
"650 446 OFFCURVE",
"595 605 OFFCURVE",
"538 605 CURVE SMOOTH",
"499 605 OFFCURVE",
"482 515 OFFCURVE",
"462 486 CURVE SMOOTH",
"455 475 OFFCURVE",
"441 468 OFFCURVE",
"435 458 CURVE SMOOTH",
"421 435 OFFCURVE",
"398 379 OFFCURVE",
"398 352 CURVE SMOOTH",
"398 347 OFFCURVE",
"455 184 OFFCURVE",
"460 172 CURVE",
"404 189 OFFCURVE",
"360 311 OFFCURVE",
"295 311 CURVE SMOOTH",
"252 311 OFFCURVE",
"222 250 OFFCURVE",
"206 213 CURVE SMOOTH",
"169 129 OFFCURVE",
"147 33 OFFCURVE",
"147 -61 CURVE SMOOTH",
"147 -71 OFFCURVE",
"145 -100 OFFCURVE",
"152 -104 CURVE",
"162 -100 OFFCURVE",
"176 -63 OFFCURVE",
"202 -63 CURVE SMOOTH",
"236 -63 OFFCURVE",
"257 -120 OFFCURVE",
"281 -139 CURVE",
"275 -141 OFFCURVE",
"268 -142 OFFCURVE",
"262 -142 CURVE SMOOTH",
"243 -142 OFFCURVE",
"232 -129 OFFCURVE",
"218 -129 CURVE SMOOTH",
"143 -129 OFFCURVE",
"107 -355 OFFCURVE",
"41 -355 CURVE SMOOTH",
"24 -355 OFFCURVE",
"0 -447 OFFCURVE",
"0 -465 CURVE SMOOTH",
"0 -469 OFFCURVE",
"2 -473 OFFCURVE",
"4 -477 CURVE",
"8 -479 OFFCURVE",
"12 -480 OFFCURVE",
"16 -480 CURVE"
);
}
);
width = 1200;
}
);
note = uniE0C1;
unicode = E0C1;
},
{
color = 2;
glyphname = uniE0C2;
lastChange = "2020-05-18 20:38:10 +0000";
layers = (
{
layerId = "F8C3375C-B372-4BAE-A3FB-5A8DC7FA7AB9";
paths = (
{
closed = 1;
nodes = (
"1199 1896 LINE",
"1200 1989 OFFCURVE",
"1200 2067 OFFCURVE",
"1200 2131 CURVE SMOOTH",
"1200 2159 OFFCURVE",
"1200 2184 OFFCURVE",
"1200 2207 CURVE",
"1189 2205 OFFCURVE",
"1182 2203 OFFCURVE",
"1178 2191 CURVE SMOOTH",
"1174 2180 OFFCURVE",
"1164 2148 OFFCURVE",
"1158 2126 CURVE",
"1140 2077 OFFCURVE",
"1122 2058 OFFCURVE",
"1102 2058 CURVE SMOOTH",
"1096 2058 OFFCURVE",
"1091 2060 OFFCURVE",
"1085 2063 CURVE SMOOTH",
"1068 2070 OFFCURVE",
"1048 2097 OFFCURVE",
"1034 2118 CURVE SMOOTH",
"1027 2127 OFFCURVE",
"1019 2141 OFFCURVE",
"1010 2157 CURVE SMOOTH",
"984 2203 OFFCURVE",
"959 2226 OFFCURVE",
"934 2226 CURVE SMOOTH",
"915 2226 OFFCURVE",
"897 2213 OFFCURVE",
"879 2188 CURVE",
"899 2191 OFFCURVE",
"915 2177 OFFCURVE",
"929 2156 CURVE SMOOTH",
"942 2135 OFFCURVE",
"959 2077 OFFCURVE",
"970 2041 CURVE",
"970 2043 OFFCURVE",
"974 2027 OFFCURVE",
"984 1993 CURVE SMOOTH",
"988 1981 OFFCURVE",
"999 1961 OFFCURVE",
"1018 1936 CURVE SMOOTH",
"1038 1911 OFFCURVE",
"1051 1891 OFFCURVE",
"1057 1878 CURVE SMOOTH",
"1066 1859 OFFCURVE",
"1071 1839 OFFCURVE",
"1071 1819 CURVE SMOOTH",
"1071 1808 OFFCURVE",
"1070 1797 OFFCURVE",
"1067 1785 CURVE SMOOTH",
"1055 1743 OFFCURVE",
"1042 1730 OFFCURVE",
"1026 1730 CURVE SMOOTH",
"1021 1730 OFFCURVE",
"1016 1732 OFFCURVE",
"1010 1734 CURVE SMOOTH",
"1003 1737 OFFCURVE",
"995 1743 OFFCURVE",
"986 1754 CURVE SMOOTH",
"964 1782 LINE SMOOTH",
"946 1805 OFFCURVE",
"903 1891 OFFCURVE",
"892 1912 CURVE SMOOTH",
"854 1987 OFFCURVE",
"826 2021 OFFCURVE",
"793 2021 CURVE SMOOTH",
"773 2021 OFFCURVE",
"752 2008 OFFCURVE",
"730 1980 CURVE SMOOTH",
"708 1952 OFFCURVE",
"688 1940 OFFCURVE",
"669 1940 CURVE SMOOTH",
"638 1940 OFFCURVE",
"610 1973 OFFCURVE",
"578 2024 CURVE",
"595 1981 OFFCURVE",
"612 1948 OFFCURVE",
"633 1922 CURVE SMOOTH",
"643 1908 OFFCURVE",
"652 1898 OFFCURVE",
"660 1890 CURVE SMOOTH",
"668 1883 OFFCURVE",
"679 1872 OFFCURVE",
"693 1859 CURVE SMOOTH",
"707 1845 OFFCURVE",
"719 1834 OFFCURVE",
"726 1825 CURVE",
"763 1789 OFFCURVE",
"783 1727 OFFCURVE",
"783 1659 CURVE SMOOTH",
"783 1578 OFFCURVE",
"755 1507 OFFCURVE",
"711 1484 CURVE SMOOTH",
"703 1479 OFFCURVE",
"695 1477 OFFCURVE",
"687 1477 CURVE SMOOTH",
"656 1477 OFFCURVE",
"622 1510 OFFCURVE",
"596 1549 CURVE SMOOTH",
"564 1595 OFFCURVE",
"522 1663 OFFCURVE",
"489 1692 CURVE SMOOTH",
"459 1718 OFFCURVE",
"429 1730 OFFCURVE",
"398 1730 CURVE SMOOTH",
"342 1730 OFFCURVE",
"286 1688 OFFCURVE",
"228 1605 CURVE SMOOTH",
"191 1551 OFFCURVE",
"169 1522 OFFCURVE",
"136 1492 CURVE SMOOTH",
"115 1473 OFFCURVE",
"95 1465 OFFCURVE",
"79 1465 CURVE SMOOTH",
"54 1465 OFFCURVE",
"26 1480 OFFCURVE",
"0 1520 CURVE",
"34 1437 OFFCURVE",
"75 1397 OFFCURVE",
"115 1393 CURVE",
"119 1392 OFFCURVE",
"125 1392 OFFCURVE",
"130 1392 CURVE SMOOTH",
"165 1392 OFFCURVE",
"201 1404 OFFCURVE",
"238 1414 CURVE SMOOTH",
"259 1420 OFFCURVE",
"278 1424 OFFCURVE",
"297 1424 CURVE SMOOTH",
"319 1424 OFFCURVE",
"340 1419 OFFCURVE",
"364 1402 CURVE SMOOTH",
"385 1386 OFFCURVE",
"405 1361 OFFCURVE",
"423 1326 CURVE SMOOTH",
"434 1307 OFFCURVE",
"468 1242 OFFCURVE",
"479 1225 CURVE SMOOTH",
"499 1197 OFFCURVE",
"515 1175 OFFCURVE",
"539 1157 CURVE",
"533 1141 LINE SMOOTH",
"516 1099 OFFCURVE",
"488 1078 OFFCURVE",
"464 1066 CURVE SMOOTH",
"456 1063 OFFCURVE",
"448 1059 OFFCURVE",
"439 1055 CURVE SMOOTH",
"429 1052 OFFCURVE",
"422 1049 OFFCURVE",
"418 1046 CURVE",
"408 1040 OFFCURVE",
"399 1038 OFFCURVE",
"388 1038 CURVE SMOOTH",
"377 1038 OFFCURVE",
"365 1040 OFFCURVE",
"353 1047 CURVE",
"399 986 OFFCURVE",
"431 958 OFFCURVE",
"475 950 CURVE SMOOTH",
"491 948 OFFCURVE",
"514 947 OFFCURVE",
"529 945 CURVE SMOOTH",
"541 943 OFFCURVE",
"564 937 OFFCURVE",
"577 925 CURVE SMOOTH",
"590 912 OFFCURVE",
"607 893 OFFCURVE",
"622 860 CURVE SMOOTH",
"630 844 OFFCURVE",
"637 824 OFFCURVE",
"644 801 CURVE SMOOTH",
"654 774 LINE",
"640 779 LINE SMOOTH",
"624 787 OFFCURVE",
"595 741 OFFCURVE",
"562 680 CURVE SMOOTH",
"541 641 OFFCURVE",
"526 615 OFFCURVE",
"518 601 CURVE SMOOTH",
"510 589 OFFCURVE",
"442 531 OFFCURVE",
"440 526 CURVE",
"434 522 OFFCURVE",
"426 520 OFFCURVE",
"416 520 CURVE SMOOTH",
"376 520 OFFCURVE",
"305 554 OFFCURVE",
"232 602 CURVE",
"295 523 LINE SMOOTH",
"310 503 OFFCURVE",
"342 464 OFFCURVE",
"358 446 CURVE SMOOTH",
"388 411 OFFCURVE",
"431 365 OFFCURVE",
"454 365 CURVE SMOOTH",
"461 365 OFFCURVE",
"478 359 OFFCURVE",
"496 359 CURVE SMOOTH",
"501 359 OFFCURVE",
"506 360 OFFCURVE",
"512 361 CURVE SMOOTH",
"523 364 OFFCURVE",
"534 371 OFFCURVE",
"546 382 CURVE SMOOTH",
"563 398 OFFCURVE",
"589 431 OFFCURVE",
"609 455 CURVE SMOOTH",
"618 467 OFFCURVE",
"628 478 OFFCURVE",
"639 490 CURVE SMOOTH",
"656 508 OFFCURVE",
"674 524 OFFCURVE",
"689 524 CURVE SMOOTH",
"697 524 OFFCURVE",
"704 520 OFFCURVE",
"709 508 CURVE SMOOTH",
"725 471 OFFCURVE",
"735 444 OFFCURVE",
"750 418 CURVE SMOOTH",
"761 399 OFFCURVE",
"770 388 OFFCURVE",
"786 374 CURVE",
"780 359 LINE SMOOTH",
"766 328 OFFCURVE",
"749 271 OFFCURVE",
"739 237 CURVE SMOOTH",
"729 202 OFFCURVE",
"709 166 OFFCURVE",
"684 154 CURVE SMOOTH",
"674 150 OFFCURVE",
"664 146 OFFCURVE",
"653 146 CURVE SMOOTH",
"630 146 OFFCURVE",
"604 158 OFFCURVE",
"576 181 CURVE",
"622 105 OFFCURVE",
"692 73 OFFCURVE",
"752 73 CURVE SMOOTH",
"773 73 OFFCURVE",
"803 94 OFFCURVE",
"826 123 CURVE SMOOTH",
"837 138 OFFCURVE",
"850 152 OFFCURVE",
"863 166 CURVE SMOOTH",
"891 197 OFFCURVE",
"912 219 OFFCURVE",
"941 219 CURVE SMOOTH",
"953 219 OFFCURVE",
"965 212 OFFCURVE",
"975 200 CURVE SMOOTH",
"1012 161 OFFCURVE",
"1050 54 OFFCURVE",
"1048 -67 CURVE SMOOTH",
"1048 -88 LINE",
"1027 -57 OFFCURVE",
"1010 -43 OFFCURVE",
"994 -43 CURVE SMOOTH",
"975 -43 OFFCURVE",
"956 -64 OFFCURVE",
"932 -100 CURVE SMOOTH",
"913 -130 OFFCURVE",
"892 -143 OFFCURVE",
"862 -156 CURVE SMOOTH",
"847 -162 OFFCURVE",
"836 -168 OFFCURVE",
"829 -172 CURVE",
"846 -181 OFFCURVE",
"870 -199 OFFCURVE",
"887 -213 CURVE SMOOTH",
"896 -220 OFFCURVE",
"905 -227 OFFCURVE",
"916 -235 CURVE SMOOTH",
"936 -248 OFFCURVE",
"951 -257 OFFCURVE",
"970 -257 CURVE SMOOTH",
"981 -257 OFFCURVE",
"992 -252 OFFCURVE",
"1001 -246 CURVE SMOOTH",
"1005 -243 OFFCURVE",
"1009 -242 OFFCURVE",
"1013 -242 CURVE SMOOTH",
"1034 -242 OFFCURVE",
"1059 -275 OFFCURVE",
"1081 -319 CURVE SMOOTH",
"1095 -345 OFFCURVE",
"1108 -371 OFFCURVE",
"1121 -398 CURVE SMOOTH",
"1144 -444 OFFCURVE",
"1169 -480 OFFCURVE",
"1190 -480 CURVE SMOOTH",
"1193 -480 OFFCURVE",
"1196 -480 OFFCURVE",
"1199 -478 CURVE",
"1198 -259 OFFCURVE",
"1197 1162 OFFCURVE",
"1197 1638 CURVE SMOOTH",
"1197 1675 OFFCURVE",
"1198 1763 OFFCURVE",
"1199 1896 CURVE"
);
}
);
width = 1200;
}
);
note = uniE0C2;
unicode = E0C2;
},
{
color = 2;
glyphname = uniE0C3;
lastChange = "2020-05-18 20:38:15 +0000";
layers = (
{
layerId = "F8C3375C-B372-4BAE-A3FB-5A8DC7FA7AB9";
paths = (
{
closed = 1;
nodes = (
"1185 -480 LINE",
"1189 -480 OFFCURVE",
"1193 -479 OFFCURVE",
"1197 -477 CURVE",
"1199 -473 OFFCURVE",
"1200 -469 OFFCURVE",
"1200 -465 CURVE SMOOTH",
"1200 -438 OFFCURVE",
"1181 -356 OFFCURVE",
"1154 -356 CURVE SMOOTH",
"1106 -356 OFFCURVE",
"1052 -129 OFFCURVE",
"983 -129 CURVE SMOOTH",
"969 -129 OFFCURVE",
"957 -142 OFFCURVE",
"939 -142 CURVE SMOOTH",
"933 -142 OFFCURVE",
"926 -141 OFFCURVE",
"920 -139 CURVE",
"943 -121 OFFCURVE",
"966 -63 OFFCURVE",
"998 -63 CURVE SMOOTH",
"1024 -63 OFFCURVE",
"1039 -100 OFFCURVE",
"1049 -104 CURVE",
"1050 -104 LINE",
"1056 -99 OFFCURVE",
"1054 -81 OFFCURVE",
"1054 -74 CURVE SMOOTH",
"1054 -63 LINE SMOOTH",
"1054 30 OFFCURVE",
"1031 129 OFFCURVE",
"995 213 CURVE SMOOTH",
"979 251 OFFCURVE",
"948 311 OFFCURVE",
"905 311 CURVE SMOOTH",
"845 311 OFFCURVE",
"796 192 OFFCURVE",
"741 172 CURVE",
"746 183 OFFCURVE",
"803 349 OFFCURVE",
"803 352 CURVE SMOOTH",
"803 382 OFFCURVE",
"780 431 OFFCURVE",
"766 458 CURVE",
"752 470 OFFCURVE",
"738 483 OFFCURVE",
"731 500 CURVE SMOOTH",
"719 530 OFFCURVE",
"696 605 OFFCURVE",
"662 605 CURVE SMOOTH",
"607 605 OFFCURVE",
"552 446 OFFCURVE",
"485 446 CURVE SMOOTH",
"443 446 OFFCURVE",
"420 457 OFFCURVE",
"389 487 CURVE",
"405 482 OFFCURVE",
"423 475 OFFCURVE",
"440 475 CURVE SMOOTH",
"531 475 OFFCURVE",
"620 725 OFFCURVE",
"653 725 CURVE SMOOTH",
"657 725 OFFCURVE",
"666 720 OFFCURVE",
"672 718 CURVE",
"675 721 OFFCURVE",
"677 725 OFFCURVE",
"677 728 CURVE SMOOTH",
"677 781 OFFCURVE",
"614 928 OFFCURVE",
"578 970 CURVE SMOOTH",
"558 994 OFFCURVE",
"530 1001 OFFCURVE",
"501 1005 CURVE",
"526 1019 OFFCURVE",
"565 1067 OFFCURVE",
"565 1099 CURVE SMOOTH",
"565 1127 OFFCURVE",
"540 1181 OFFCURVE",
"527 1206 CURVE",
"442 1267 OFFCURVE",
"411 1462 OFFCURVE",
"298 1462 CURVE SMOOTH",
"268 1462 OFFCURVE",
"240 1455 OFFCURVE",
"212 1445 CURVE",
"270 1513 OFFCURVE",
"325 1632 OFFCURVE",
"423 1632 CURVE SMOOTH",
"559 1632 OFFCURVE",
"598 1390 OFFCURVE",
"703 1390 CURVE SMOOTH",
"775 1390 OFFCURVE",
"799 1513 OFFCURVE",
"799 1572 CURVE SMOOTH",
"799 1653 OFFCURVE",
"767 1782 OFFCURVE",
"711 1839 CURVE",
"742 1858 OFFCURVE",
"765 1909 OFFCURVE",
"803 1909 CURVE SMOOTH",
"878 1909 OFFCURVE",
"947 1635 OFFCURVE",
"1023 1635 CURVE SMOOTH",
"1032 1635 OFFCURVE",
"1040 1641 OFFCURVE",
"1047 1648 CURVE",
"1047 1648 OFFCURVE",
"1047 1646 OFFCURVE",
"1048 1646 CURVE SMOOTH",
"1062 1646 OFFCURVE",
"1076 1713 OFFCURVE",
"1076 1729 CURVE SMOOTH",
"1076 1778 OFFCURVE",
"1059 1833 OFFCURVE",
"1038 1875 CURVE SMOOTH",
"1021 1909 OFFCURVE",
"993 1935 OFFCURVE",
"976 1967 CURVE SMOOTH",
"960 1999 OFFCURVE",
"948 2064 OFFCURVE",
"932 2103 CURVE",
"939 2104 LINE",
"1002 2104 OFFCURVE",
"1038 1943 OFFCURVE",
"1101 1943 CURVE SMOOTH",
"1153 1943 OFFCURVE",
"1160 2045 OFFCURVE",
"1180 2079 CURVE SMOOTH",
"1185 2087 OFFCURVE",
"1188 2087 OFFCURVE",
"1196 2087 CURVE",
"1199 2089 OFFCURVE",
"1200 2094 OFFCURVE",
"1200 2098 CURVE SMOOTH",
"1200 2116 OFFCURVE",
"1179 2210 OFFCURVE",
"1160 2210 CURVE SMOOTH",
"1117 2210 OFFCURVE",
"1124 2066 OFFCURVE",
"1067 2066 CURVE SMOOTH",
"1009 2066 OFFCURVE",
"976 2226 OFFCURVE",
"904 2226 CURVE SMOOTH",
"881 2226 OFFCURVE",
"862 2207 OFFCURVE",
"849 2189 CURVE",
"887 2068 LINE",
"906 2068 OFFCURVE",
"917 2069 OFFCURVE",
"926 2047 CURVE SMOOTH",
"965 1949 OFFCURVE",
"954 1897 OFFCURVE",
"1031 1811 CURVE",
"1026 1791 OFFCURVE",
"1018 1753 OFFCURVE",
"993 1753 CURVE SMOOTH",
"922 1753 OFFCURVE",
"859 2031 OFFCURVE",
"768 2031 CURVE SMOOTH",
"715 2031 OFFCURVE",
"696 1953 OFFCURVE",
"650 1953 CURVE SMOOTH",
"619 1953 OFFCURVE",
"586 1997 OFFCURVE",
"572 2024 CURVE",
"563 2026 LINE",
"558 2023 OFFCURVE",
"558 2017 OFFCURVE",
"558 2012 CURVE SMOOTH",
"558 1992 OFFCURVE",
"568 1966 OFFCURVE",
"575 1948 CURVE SMOOTH",
"593 1902 OFFCURVE",
"612 1857 OFFCURVE",
"642 1818 CURVE SMOOTH",
"662 1792 OFFCURVE",
"746 1720 OFFCURVE",
"752 1702 CURVE SMOOTH",
"754 1696 OFFCURVE",
"754 1679 OFFCURVE",
"754 1672 CURVE SMOOTH",
"754 1617 OFFCURVE",
"728 1513 OFFCURVE",
"664 1513 CURVE SMOOTH",
"580 1513 OFFCURVE",
"528 1754 OFFCURVE",
"388 1754 CURVE SMOOTH",
"246 1754 OFFCURVE",
"181 1503 OFFCURVE",
"78 1503 CURVE SMOOTH",
"51 1503 OFFCURVE",
"28 1522 OFFCURVE",
"13 1545 CURVE",
"5 1542 LINE",
"1 1538 OFFCURVE",
"0 1533 OFFCURVE",
"0 1527 CURVE SMOOTH",
"0 1507 OFFCURVE",
"12 1478 OFFCURVE",
"19 1460 CURVE SMOOTH",
"53 1377 OFFCURVE",
"102 1296 OFFCURVE",
"194 1296 CURVE SMOOTH",
"245 1296 OFFCURVE",
"293 1322 OFFCURVE",
"343 1322 CURVE SMOOTH",
"430 1322 OFFCURVE",
"451 1215 OFFCURVE",
"495 1153 CURVE",
"476 1130 OFFCURVE",
"406 1093 OFFCURVE",
"379 1093 CURVE SMOOTH",
"367 1093 OFFCURVE",
"357 1099 OFFCURVE",
"346 1101 CURVE",
"350 1072 OFFCURVE",
"358 1005 OFFCURVE",
"373 985 CURVE SMOOTH",
"492 827 OFFCURVE",
"558 918 OFFCURVE",
"609 845 CURVE",
"576 826 OFFCURVE",
"527 712 OFFCURVE",
"501 674 CURVE SMOOTH",
"483 647 OFFCURVE",
"451 624 OFFCURVE",
"427 604 CURVE SMOOTH",
"421 598 OFFCURVE",
"413 598 OFFCURVE",
"406 598 CURVE SMOOTH",
"358 598 OFFCURVE",
"271 650 OFFCURVE",
"230 676 CURVE",
"241 639 OFFCURVE",
"249 597 OFFCURVE",
"256 559 CURVE",
"261 555 OFFCURVE",
"320 481 OFFCURVE",
"329 469 CURVE SMOOTH",
"379 405 OFFCURVE",
"434 322 OFFCURVE",
"518 322 CURVE SMOOTH",
"584 322 OFFCURVE",
"659 480 OFFCURVE",
"704 480 CURVE SMOOTH",
"706 480 OFFCURVE",
"707 479 OFFCURVE",
"709 479 CURVE",
"719 457 OFFCURVE",
"728 431 OFFCURVE",
"740 411 CURVE",
"722 354 OFFCURVE",
"704 243 OFFCURVE",
"635 243 CURVE SMOOTH",
"608 243 OFFCURVE",
"583 257 OFFCURVE",
"562 274 CURVE",
"562 239 OFFCURVE",
"566 192 OFFCURVE",
"584 162 CURVE SMOOTH",
"627 95 OFFCURVE",
"686 49 OFFCURVE",
"763 49 CURVE SMOOTH",
"831 49 OFFCURVE",
"888 186 OFFCURVE",
"948 186 CURVE SMOOTH",
"1001 186 OFFCURVE",
"1010 80 OFFCURVE",
"1010 39 CURVE SMOOTH",
"1010 28 LINE",
"998 44 OFFCURVE",
"981 61 OFFCURVE",
"961 61 CURVE SMOOTH",
"936 61 OFFCURVE",
"913 25 OFFCURVE",
"900 5 CURVE SMOOTH",
"872 -36 OFFCURVE",
"841 -42 OFFCURVE",
"801 -64 CURVE",
"837 -185 LINE",
"864 -190 OFFCURVE",
"923 -265 OFFCURVE",
"975 -265 CURVE SMOOTH",
"993 -265 OFFCURVE",
"1005 -252 OFFCURVE",
"1014 -252 CURVE SMOOTH",
"1066 -252 OFFCURVE",
"1117 -480 OFFCURVE",
"1185 -480 CURVE"
);
}
);
width = 1200;
}
);
note = uniE0C3;
unicode = E0C3;
},
{
color = 2;
glyphname = uniE0C4;
lastChange = "2020-05-18 20:44:22 +0000";
layers = (
{
layerId = "F8C3375C-B372-4BAE-A3FB-5A8DC7FA7AB9";
paths = (
{
closed = 1;
nodes = (
"485 1983 LINE",
"593 1983 LINE SMOOTH",
"597 1983 OFFCURVE",
"602 1991 OFFCURVE",
"602 1998 CURVE SMOOTH",
"602 2209 LINE SMOOTH",
"602 2217 OFFCURVE",
"598 2226 OFFCURVE",
"593 2226 CURVE SMOOTH",
"485 2226 LINE SMOOTH",
"481 2226 OFFCURVE",
"476 2218 OFFCURVE",
"476 2209 CURVE SMOOTH",
"476 1998 LINE SMOOTH",
"476 1992 OFFCURVE",
"480 1983 OFFCURVE",
"485 1983 CURVE"
);
},
{
closed = 1;
nodes = (
"1197 2215 LINE",
"1089 2215 LINE SMOOTH",
"1087 2215 OFFCURVE",
"1086 2213 OFFCURVE",
"1086 2209 CURVE SMOOTH",
"1086 1998 LINE SMOOTH",
"1086 1995 OFFCURVE",
"1087 1994 OFFCURVE",
"1089 1994 CURVE SMOOTH",
"1197 1994 LINE SMOOTH",
"1199 1994 OFFCURVE",
"1200 1995 OFFCURVE",
"1200 1998 CURVE SMOOTH",
"1200 2209 LINE SMOOTH",
"1200 2213 OFFCURVE",
"1199 2215 OFFCURVE",
"1197 2215 CURVE"
);
},
{
closed = 1;
nodes = (
"0 2209 LINE",
"0 1998 LINE",
"108 1998 LINE",
"108 2209 LINE",
"0 2209 LINE"
);
},
{
closed = 1;
nodes = (
"165 2209 LINE",
"165 1998 LINE",
"273 1998 LINE",
"273 2209 LINE",
"165 2209 LINE"
);
},
{
closed = 1;
nodes = (
"323 2209 LINE",
"323 1998 LINE",
"431 1998 LINE",
"431 2209 LINE",
"323 2209 LINE"
);
},
{
closed = 1;
nodes = (
"745 1998 LINE",
"745 2209 LINE",
"637 2209 LINE",
"637 1998 LINE",
"745 1998 LINE"
);
},
{
closed = 1;
nodes = (
"900 1998 LINE",
"900 2209 LINE",
"792 2209 LINE",
"792 1998 LINE",
"900 1998 LINE"
);
},
{
closed = 1;
nodes = (
"1194 2203 LINE",
"1194 2002 LINE",
"1092 2002 LINE",
"1092 2203 LINE",
"1194 2203 LINE"
);
},
{
closed = 1;
nodes = (
"494 2016 LINE",
"494 2193 LINE",
"585 2193 LINE",
"585 2016 LINE",
"494 2016 LINE"
);
},
{
closed = 1;
nodes = (
"1197 1923 LINE",
"1089 1923 LINE SMOOTH",
"1087 1923 OFFCURVE",
"1086 1922 OFFCURVE",
"1086 1919 CURVE SMOOTH",
"1086 1710 LINE SMOOTH",
"1086 1705 OFFCURVE",
"1087 1703 OFFCURVE",
"1089 1703 CURVE SMOOTH",
"1197 1703 LINE SMOOTH",
"1199 1703 OFFCURVE",
"1200 1705 OFFCURVE",
"1200 1710 CURVE SMOOTH",
"1200 1919 LINE SMOOTH",
"1200 1922 OFFCURVE",
"1199 1923 OFFCURVE",
"1197 1923 CURVE"
);
},
{
closed = 1;
nodes = (
"0 1919 LINE",
"0 1710 LINE",
"108 1710 LINE",
"108 1919 LINE",
"0 1919 LINE"
);
},
{
closed = 1;
nodes = (
"165 1919 LINE",
"165 1710 LINE",
"273 1710 LINE",
"273 1919 LINE",
"165 1919 LINE"
);
},
{
closed = 1;
nodes = (
"323 1919 LINE",
"323 1710 LINE",
"431 1710 LINE",
"431 1919 LINE",
"323 1919 LINE"
);
},
{
closed = 1;
nodes = (
"596 1710 LINE",
"596 1919 LINE",
"487 1919 LINE",
"487 1710 LINE",
"596 1710 LINE"
);
},
{
closed = 1;
nodes = (
"900 1710 LINE",
"900 1919 LINE",
"792 1919 LINE",
"792 1710 LINE",
"900 1710 LINE"
);
},
{
closed = 1;
nodes = (
"1194 1914 LINE",
"1194 1716 LINE",
"1092 1716 LINE",
"1092 1914 LINE",
"1194 1914 LINE"
);
},
{
closed = 1;
nodes = (
"745 1668 LINE",
"637 1668 LINE SMOOTH",
"632 1668 OFFCURVE",
"625 1657 OFFCURVE",
"625 1645 CURVE SMOOTH",
"625 1437 LINE SMOOTH",
"625 1426 OFFCURVE",
"630 1414 OFFCURVE",
"637 1414 CURVE SMOOTH",
"745 1414 LINE SMOOTH",
"751 1414 OFFCURVE",
"757 1424 OFFCURVE",
"757 1437 CURVE SMOOTH",
"757 1645 LINE SMOOTH",
"757 1655 OFFCURVE",
"752 1668 OFFCURVE",
"745 1668 CURVE"
);
},
{
closed = 1;
nodes = (
"0 1645 LINE",
"0 1437 LINE",
"108 1437 LINE",
"108 1645 LINE",
"0 1645 LINE"
);
},
{
closed = 1;
nodes = (
"165 1645 LINE",
"165 1437 LINE",
"273 1437 LINE",
"273 1645 LINE",
"165 1645 LINE"
);
},
{
closed = 1;
nodes = (
"323 1645 LINE",
"323 1437 LINE",
"431 1437 LINE",
"431 1645 LINE",
"323 1645 LINE"
);
},
{
closed = 1;
nodes = (
"487 1645 LINE",
"487 1437 LINE",
"596 1437 LINE",
"596 1645 LINE",
"487 1645 LINE"
);
},
{
closed = 1;
nodes = (
"734 1623 LINE",
"734 1460 LINE",
"649 1460 LINE",
"649 1623 LINE",
"734 1623 LINE"
);
},
{
closed = 1;
nodes = (
"745 1411 LINE",
"637 1411 LINE SMOOTH",
"632 1411 OFFCURVE",
"625 1400 OFFCURVE",
"625 1388 CURVE SMOOTH",
"625 1177 LINE SMOOTH",
"625 1167 OFFCURVE",
"630 1154 OFFCURVE",
"637 1154 CURVE SMOOTH",
"745 1154 LINE SMOOTH",
"751 1154 OFFCURVE",
"757 1164 OFFCURVE",
"757 1177 CURVE SMOOTH",
"757 1388 LINE SMOOTH",
"757 1397 OFFCURVE",
"752 1411 OFFCURVE",
"745 1411 CURVE"
);
},
{
closed = 1;
nodes = (
"0 1388 LINE",
"0 1177 LINE",
"108 1177 LINE",
"108 1388 LINE",
"0 1388 LINE"
);
},
{
closed = 1;
nodes = (
"165 1388 LINE",
"165 1177 LINE",
"273 1177 LINE",
"273 1388 LINE",
"165 1388 LINE"
);
},
{
closed = 1;
nodes = (
"323 1388 LINE",
"323 1177 LINE",
"431 1177 LINE",
"431 1388 LINE",
"323 1388 LINE"
);
},
{
closed = 1;
nodes = (
"734 1364 LINE",
"734 1200 LINE",
"649 1200 LINE",
"649 1364 LINE",
"734 1364 LINE"
);
},
{
closed = 1;
nodes = (
"596 1150 LINE",
"487 1150 LINE SMOOTH",
"480 1150 OFFCURVE",
"473 1139 OFFCURVE",
"473 1122 CURVE SMOOTH",
"473 913 LINE SMOOTH",
"473 898 OFFCURVE",
"479 885 OFFCURVE",
"487 885 CURVE SMOOTH",
"596 885 LINE SMOOTH",
"603 885 OFFCURVE",
"610 893 OFFCURVE",
"610 913 CURVE SMOOTH",
"610 1122 LINE SMOOTH",
"610 1135 OFFCURVE",
"604 1150 OFFCURVE",
"596 1150 CURVE"
);
},
{
closed = 1;
nodes = (
"900 1127 LINE",
"792 1127 LINE SMOOTH",
"790 1127 OFFCURVE",
"789 1125 OFFCURVE",
"789 1122 CURVE SMOOTH",
"789 913 LINE SMOOTH",
"789 908 OFFCURVE",
"790 906 OFFCURVE",
"792 906 CURVE SMOOTH",
"900 906 LINE SMOOTH",
"902 906 OFFCURVE",
"903 908 OFFCURVE",
"903 913 CURVE SMOOTH",
"903 1122 LINE SMOOTH",
"903 1125 OFFCURVE",
"902 1127 OFFCURVE",
"900 1127 CURVE"
);
},
{
closed = 1;
nodes = (
"0 1122 LINE",
"0 913 LINE",
"108 913 LINE",
"108 1122 LINE",
"0 1122 LINE"
);
},
{
closed = 1;
nodes = (
"165 1122 LINE",
"165 913 LINE",
"273 913 LINE",
"273 1122 LINE",
"165 1122 LINE"
);
},
{
closed = 1;
nodes = (
"323 1122 LINE",
"323 913 LINE",
"431 913 LINE",
"431 1122 LINE",
"323 1122 LINE"
);
},
{
closed = 1;
nodes = (
"745 913 LINE",
"745 1122 LINE",
"637 1122 LINE",
"637 913 LINE",
"745 913 LINE"
);
},
{
closed = 1;
nodes = (
"897 1117 LINE",
"897 919 LINE",
"795 919 LINE",
"795 1117 LINE",
"897 1117 LINE"
);
},
{
closed = 1;
nodes = (
"581 1094 LINE",
"581 940 LINE",
"502 940 LINE",
"502 1094 LINE",
"581 1094 LINE"
);
},
{
closed = 1;
nodes = (
"0 855 LINE",
"0 646 LINE",
"108 646 LINE",
"108 855 LINE",
"0 855 LINE"
);
},
{
closed = 1;
nodes = (
"165 855 LINE",
"165 646 LINE",
"273 646 LINE",
"273 855 LINE",
"165 855 LINE"
);
},
{
closed = 1;
nodes = (
"323 855 LINE",
"323 646 LINE",
"431 646 LINE",
"431 855 LINE",
"323 855 LINE"
);
},
{
closed = 1;
nodes = (
"596 646 LINE",
"596 855 LINE",
"487 855 LINE",
"487 646 LINE",
"596 646 LINE"
);
},
{
closed = 1;
nodes = (
"637 855 LINE",
"637 646 LINE",
"745 646 LINE",
"745 855 LINE",
"637 855 LINE"
);
},
{
closed = 1;
nodes = (
"745 607 LINE",
"637 607 LINE SMOOTH",
"632 607 OFFCURVE",
"625 598 OFFCURVE",
"625 584 CURVE SMOOTH",
"625 373 LINE SMOOTH",
"625 365 OFFCURVE",
"630 353 OFFCURVE",
"637 353 CURVE SMOOTH",
"745 353 LINE SMOOTH",
"751 353 OFFCURVE",
"757 362 OFFCURVE",
"757 373 CURVE SMOOTH",
"757 584 LINE SMOOTH",
"757 595 OFFCURVE",
"752 607 OFFCURVE",
"745 607 CURVE"
);
},
{
closed = 1;
nodes = (
"1047 591 LINE",
"939 591 LINE SMOOTH",
"938 591 OFFCURVE",
"936 588 OFFCURVE",
"936 584 CURVE SMOOTH",
"936 373 LINE SMOOTH",
"936 370 OFFCURVE",
"938 369 OFFCURVE",
"939 369 CURVE SMOOTH",
"1047 369 LINE SMOOTH",
"1049 369 OFFCURVE",
"1050 370 OFFCURVE",
"1050 373 CURVE SMOOTH",
"1050 584 LINE SMOOTH",
"1050 588 OFFCURVE",
"1049 591 OFFCURVE",
"1047 591 CURVE"
);
},
{
closed = 1;
nodes = (
"0 584 LINE",
"0 373 LINE",
"108 373 LINE",
"108 584 LINE",
"0 584 LINE"
);
},
{
closed = 1;
nodes = (
"165 584 LINE",
"165 373 LINE",
"273 373 LINE",
"273 584 LINE",
"165 584 LINE"
);
},
{
closed = 1;
nodes = (
"1045 578 LINE",
"1045 381 LINE",
"942 381 LINE",
"942 578 LINE",
"1045 578 LINE"
);
},
{
closed = 1;
nodes = (
"734 562 LINE",
"734 397 LINE",
"649 397 LINE",
"649 562 LINE",
"734 562 LINE"
);
},
{
closed = 1;
nodes = (
"596 307 LINE",
"487 307 LINE SMOOTH",
"486 307 OFFCURVE",
"485 305 OFFCURVE",
"485 301 CURVE SMOOTH",
"485 92 LINE SMOOTH",
"485 90 OFFCURVE",
"486 88 OFFCURVE",
"487 88 CURVE SMOOTH",
"596 88 LINE SMOOTH",
"597 88 OFFCURVE",
"599 90 OFFCURVE",
"599 92 CURVE SMOOTH",
"599 301 LINE SMOOTH",
"599 305 OFFCURVE",
"597 307 OFFCURVE",
"596 307 CURVE"
);
},
{
closed = 1;
nodes = (
"900 307 LINE",
"792 307 LINE SMOOTH",
"790 307 OFFCURVE",
"789 305 OFFCURVE",
"789 301 CURVE SMOOTH",
"789 92 LINE SMOOTH",
"789 90 OFFCURVE",
"790 88 OFFCURVE",
"792 88 CURVE SMOOTH",
"900 88 LINE SMOOTH",
"902 88 OFFCURVE",
"903 90 OFFCURVE",
"903 92 CURVE SMOOTH",
"903 301 LINE SMOOTH",
"903 305 OFFCURVE",
"902 307 OFFCURVE",
"900 307 CURVE"
);
},
{
closed = 1;
nodes = (
"0 301 LINE",
"0 92 LINE",
"108 92 LINE",
"108 301 LINE",
"0 301 LINE"
);
},
{
closed = 1;
nodes = (
"165 301 LINE",
"165 92 LINE",
"273 92 LINE",
"273 301 LINE",
"165 301 LINE"
);
},
{
closed = 1;
nodes = (
"323 301 LINE",
"323 92 LINE",
"431 92 LINE",
"431 301 LINE",
"323 301 LINE"
);
},
{
closed = 1;
nodes = (
"593 295 LINE",
"593 98 LINE",
"490 98 LINE",
"490 295 LINE",
"593 295 LINE"
);
},
{
closed = 1;
nodes = (
"897 295 LINE",
"897 98 LINE",
"795 98 LINE",
"795 295 LINE",
"897 295 LINE"
);
},
{
closed = 1;
nodes = (
"0 21 LINE",
"0 -189 LINE",
"108 -189 LINE",
"108 21 LINE",
"0 21 LINE"
);
},
{
closed = 1;
nodes = (
"165 21 LINE",
"165 -189 LINE",
"273 -189 LINE",
"273 21 LINE",
"165 21 LINE"
);
},
{
closed = 1;
nodes = (
"323 21 LINE",
"323 -189 LINE",
"431 -189 LINE",
"431 21 LINE",
"323 21 LINE"
);
},
{
closed = 1;
nodes = (
"596 -258 LINE",
"487 -258 LINE SMOOTH",
"486 -258 OFFCURVE",
"485 -260 OFFCURVE",
"485 -264 CURVE SMOOTH",
"485 -475 LINE SMOOTH",
"485 -478 OFFCURVE",
"486 -480 OFFCURVE",
"487 -480 CURVE SMOOTH",
"596 -480 LINE SMOOTH",
"597 -480 OFFCURVE",
"599 -478 OFFCURVE",
"599 -475 CURVE SMOOTH",
"599 -264 LINE SMOOTH",
"599 -260 OFFCURVE",
"597 -258 OFFCURVE",
"596 -258 CURVE"
);
},
{
closed = 1;
nodes = (
"0 -264 LINE",
"0 -475 LINE",
"108 -475 LINE",
"108 -264 LINE",
"0 -264 LINE"
);
},
{
closed = 1;
nodes = (
"165 -264 LINE",
"165 -475 LINE",
"273 -475 LINE",
"273 -264 LINE",
"165 -264 LINE"
);
},
{
closed = 1;
nodes = (
"593 -270 LINE",
"593 -469 LINE",
"490 -469 LINE",
"490 -270 LINE",
"593 -270 LINE"
);
}
);
width = 1200;
}
);
note = uniE0C4;
unicode = E0C4;
},
{
color = 2;
glyphname = uniE0C5;
lastChange = "2020-05-18 20:44:10 +0000";
layers = (
{
layerId = "F8C3375C-B372-4BAE-A3FB-5A8DC7FA7AB9";
paths = (
{
closed = 1;
nodes = (
"607 1983 LINE",
"715 1983 LINE SMOOTH",
"720 1983 OFFCURVE",
"724 1992 OFFCURVE",
"724 2000 CURVE SMOOTH",
"724 2209 LINE SMOOTH",
"724 2218 OFFCURVE",
"719 2226 OFFCURVE",
"715 2226 CURVE SMOOTH",
"607 2226 LINE SMOOTH",
"602 2226 OFFCURVE",
"598 2217 OFFCURVE",
"598 2209 CURVE SMOOTH",
"598 2000 LINE SMOOTH",
"598 1991 OFFCURVE",
"603 1983 OFFCURVE",
"607 1983 CURVE"
);
},
{
closed = 1;
nodes = (
"111 2215 LINE",
"3 2215 LINE SMOOTH",
"1 2215 OFFCURVE",
"0 2212 OFFCURVE",
"0 2209 CURVE SMOOTH",
"0 2000 LINE SMOOTH",
"0 1996 OFFCURVE",
"1 1994 OFFCURVE",
"3 1994 CURVE SMOOTH",
"111 1994 LINE SMOOTH",
"113 1994 OFFCURVE",
"114 1996 OFFCURVE",
"114 2000 CURVE SMOOTH",
"114 2209 LINE SMOOTH",
"114 2212 OFFCURVE",
"113 2215 OFFCURVE",
"111 2215 CURVE"
);
},
{
closed = 1;
nodes = (
"408 2000 LINE",
"408 2209 LINE",
"300 2209 LINE",
"300 2000 LINE",
"408 2000 LINE"
);
},
{
closed = 1;
nodes = (
"563 2000 LINE",
"563 2209 LINE",
"455 2209 LINE",
"455 2000 LINE",
"563 2000 LINE"
);
},
{
closed = 1;
nodes = (
"769 2209 LINE",
"769 2000 LINE",
"877 2000 LINE",
"877 2209 LINE",
"769 2209 LINE"
);
},
{
closed = 1;
nodes = (
"927 2209 LINE",
"927 2000 LINE",
"1035 2000 LINE",
"1035 2209 LINE",
"927 2209 LINE"
);
},
{
closed = 1;
nodes = (
"1200 2209 LINE",
"1092 2209 LINE",
"1092 2000 LINE",
"1200 2000 LINE",
"1200 2209 LINE"
);
},
{
closed = 1;
nodes = (
"108 2203 LINE",
"108 2004 LINE",
"6 2004 LINE",
"6 2203 LINE",
"108 2203 LINE"
);
},
{
closed = 1;
nodes = (
"615 2016 LINE",
"615 2192 LINE",
"706 2192 LINE",
"706 2016 LINE",
"615 2016 LINE"
);
},
{
closed = 1;
nodes = (
"111 1925 LINE",
"3 1925 LINE SMOOTH",
"1 1925 OFFCURVE",
"0 1922 OFFCURVE",
"0 1919 CURVE SMOOTH",
"0 1710 LINE SMOOTH",
"0 1705 OFFCURVE",
"1 1703 OFFCURVE",
"3 1703 CURVE SMOOTH",
"111 1703 LINE SMOOTH",
"113 1703 OFFCURVE",
"114 1705 OFFCURVE",
"114 1710 CURVE SMOOTH",
"114 1919 LINE SMOOTH",
"114 1922 OFFCURVE",
"113 1925 OFFCURVE",
"111 1925 CURVE"
);
},
{
closed = 1;
nodes = (
"408 1710 LINE",
"408 1919 LINE",
"300 1919 LINE",
"300 1710 LINE",
"408 1710 LINE"
);
},
{
closed = 1;
nodes = (
"713 1710 LINE",
"713 1919 LINE",
"604 1919 LINE",
"604 1710 LINE",
"713 1710 LINE"
);
},
{
closed = 1;
nodes = (
"769 1919 LINE",
"769 1710 LINE",
"877 1710 LINE",
"877 1919 LINE",
"769 1919 LINE"
);
},
{
closed = 1;
nodes = (
"927 1919 LINE",
"927 1710 LINE",
"1035 1710 LINE",
"1035 1919 LINE",
"927 1919 LINE"
);
},
{
closed = 1;
nodes = (
"1092 1919 LINE",
"1092 1710 LINE",
"1200 1710 LINE",
"1200 1919 LINE",
"1092 1919 LINE"
);
},
{
closed = 1;
nodes = (
"108 1913 LINE",
"108 1715 LINE",
"6 1715 LINE",
"6 1913 LINE",
"108 1913 LINE"
);
},
{
closed = 1;
nodes = (
"563 1668 LINE",
"455 1668 LINE SMOOTH",
"448 1668 OFFCURVE",
"443 1655 OFFCURVE",
"443 1646 CURVE SMOOTH",
"443 1436 LINE SMOOTH",
"443 1422 OFFCURVE",
"449 1413 OFFCURVE",
"455 1413 CURVE SMOOTH",
"563 1413 LINE SMOOTH",
"570 1413 OFFCURVE",
"575 1426 OFFCURVE",
"575 1436 CURVE SMOOTH",
"575 1646 LINE SMOOTH",
"575 1658 OFFCURVE",
"568 1668 OFFCURVE",
"563 1668 CURVE"
);
},
{
closed = 1;
nodes = (
"604 1646 LINE",
"604 1436 LINE",
"713 1436 LINE",
"713 1646 LINE",
"604 1646 LINE"
);
},
{
closed = 1;
nodes = (
"769 1646 LINE",
"769 1436 LINE",
"877 1436 LINE",
"877 1646 LINE",
"769 1646 LINE"
);
},
{
closed = 1;
nodes = (
"927 1646 LINE",
"927 1436 LINE",
"1035 1436 LINE",
"1035 1646 LINE",
"927 1646 LINE"
);
},
{
closed = 1;
nodes = (
"1092 1646 LINE",
"1092 1436 LINE",
"1200 1436 LINE",
"1200 1646 LINE",
"1092 1646 LINE"
);
},
{
closed = 1;
nodes = (
"551 1622 LINE",
"551 1459 LINE",
"466 1459 LINE",
"466 1622 LINE",
"551 1622 LINE"
);
},
{
closed = 1;
nodes = (
"563 1411 LINE",
"455 1411 LINE SMOOTH",
"448 1411 OFFCURVE",
"443 1397 OFFCURVE",
"443 1387 CURVE SMOOTH",
"443 1177 LINE SMOOTH",
"443 1164 OFFCURVE",
"449 1155 OFFCURVE",
"455 1155 CURVE SMOOTH",
"563 1155 LINE SMOOTH",
"570 1155 OFFCURVE",
"575 1167 OFFCURVE",
"575 1177 CURVE SMOOTH",
"575 1387 LINE SMOOTH",
"575 1401 OFFCURVE",
"568 1411 OFFCURVE",
"563 1411 CURVE"
);
},
{
closed = 1;
nodes = (
"769 1387 LINE",
"769 1177 LINE",
"877 1177 LINE",
"877 1387 LINE",
"769 1387 LINE"
);
},
{
closed = 1;
nodes = (
"927 1387 LINE",
"927 1177 LINE",
"1035 1177 LINE",
"1035 1387 LINE",
"927 1387 LINE"
);
},
{
closed = 1;
nodes = (
"1092 1387 LINE",
"1092 1177 LINE",
"1200 1177 LINE",
"1200 1387 LINE",
"1092 1387 LINE"
);
},
{
closed = 1;
nodes = (
"551 1364 LINE",
"551 1200 LINE",
"466 1200 LINE",
"466 1364 LINE",
"551 1364 LINE"
);
},
{
closed = 1;
nodes = (
"713 1150 LINE",
"604 1150 LINE SMOOTH",
"596 1150 OFFCURVE",
"590 1135 OFFCURVE",
"590 1122 CURVE SMOOTH",
"590 913 LINE SMOOTH",
"590 895 OFFCURVE",
"597 884 OFFCURVE",
"604 884 CURVE SMOOTH",
"713 884 LINE SMOOTH",
"721 884 OFFCURVE",
"727 898 OFFCURVE",
"727 913 CURVE SMOOTH",
"727 1122 LINE SMOOTH",
"727 1138 OFFCURVE",
"720 1150 OFFCURVE",
"713 1150 CURVE"
);
},
{
closed = 1;
nodes = (
"408 1128 LINE",
"300 1128 LINE SMOOTH",
"298 1128 OFFCURVE",
"297 1125 OFFCURVE",
"297 1122 CURVE SMOOTH",
"297 913 LINE SMOOTH",
"297 908 OFFCURVE",
"298 906 OFFCURVE",
"300 906 CURVE SMOOTH",
"408 906 LINE SMOOTH",
"410 906 OFFCURVE",
"411 908 OFFCURVE",
"411 913 CURVE SMOOTH",
"411 1122 LINE SMOOTH",
"411 1125 OFFCURVE",
"410 1128 OFFCURVE",
"408 1128 CURVE"
);
},
{
closed = 1;
nodes = (
"563 913 LINE",
"563 1122 LINE",
"455 1122 LINE",
"455 913 LINE",
"563 913 LINE"
);
},
{
closed = 1;
nodes = (
"769 1122 LINE",
"769 913 LINE",
"877 913 LINE",
"877 1122 LINE",
"769 1122 LINE"
);
},
{
closed = 1;
nodes = (
"927 1122 LINE",
"927 913 LINE",
"1035 913 LINE",
"1035 1122 LINE",
"927 1122 LINE"
);
},
{
closed = 1;
nodes = (
"1092 1122 LINE",
"1092 913 LINE",
"1200 913 LINE",
"1200 1122 LINE",
"1092 1122 LINE"
);
},
{
closed = 1;
nodes = (
"405 1116 LINE",
"405 918 LINE",
"303 918 LINE",
"303 1116 LINE",
"405 1116 LINE"
);
},
{
closed = 1;
nodes = (
"698 1094 LINE",
"698 940 LINE",
"619 940 LINE",
"619 1094 LINE",
"698 1094 LINE"
);
},
{
closed = 1;
nodes = (
"455 856 LINE",
"455 648 LINE",
"563 648 LINE",
"563 856 LINE",
"455 856 LINE"
);
},
{
closed = 1;
nodes = (
"713 648 LINE",
"713 856 LINE",
"604 856 LINE",
"604 648 LINE",
"713 648 LINE"
);
},
{
closed = 1;
nodes = (
"769 856 LINE",
"769 648 LINE",
"877 648 LINE",
"877 856 LINE",
"769 856 LINE"
);
},
{
closed = 1;
nodes = (
"927 856 LINE",
"927 648 LINE",
"1035 648 LINE",
"1035 856 LINE",
"927 856 LINE"
);
},
{
closed = 1;
nodes = (
"1092 856 LINE",
"1092 648 LINE",
"1200 648 LINE",
"1200 856 LINE",
"1092 856 LINE"
);
},
{
closed = 1;
nodes = (
"563 608 LINE",
"455 608 LINE SMOOTH",
"448 608 OFFCURVE",
"443 594 OFFCURVE",
"443 584 CURVE SMOOTH",
"443 374 LINE SMOOTH",
"443 361 OFFCURVE",
"449 352 OFFCURVE",
"455 352 CURVE SMOOTH",
"563 352 LINE SMOOTH",
"570 352 OFFCURVE",
"575 365 OFFCURVE",
"575 374 CURVE SMOOTH",
"575 584 LINE SMOOTH",
"575 598 OFFCURVE",
"568 608 OFFCURVE",
"563 608 CURVE"
);
},
{
closed = 1;
nodes = (
"261 590 LINE",
"153 590 LINE SMOOTH",
"151 590 OFFCURVE",
"150 588 OFFCURVE",
"150 584 CURVE SMOOTH",
"150 374 LINE SMOOTH",
"150 370 OFFCURVE",
"151 369 OFFCURVE",
"153 369 CURVE SMOOTH",
"261 369 LINE SMOOTH",
"262 369 OFFCURVE",
"264 370 OFFCURVE",
"264 374 CURVE SMOOTH",
"264 584 LINE SMOOTH",
"264 588 OFFCURVE",
"262 590 OFFCURVE",
"261 590 CURVE"
);
},
{
closed = 1;
nodes = (
"927 584 LINE",
"927 374 LINE",
"1035 374 LINE",
"1035 584 LINE",
"927 584 LINE"
);
},
{
closed = 1;
nodes = (
"1092 584 LINE",
"1092 374 LINE",
"1200 374 LINE",
"1200 584 LINE",
"1092 584 LINE"
);
},
{
closed = 1;
nodes = (
"258 579 LINE",
"258 381 LINE",
"155 381 LINE",
"155 579 LINE",
"258 579 LINE"
);
},
{
closed = 1;
nodes = (
"551 561 LINE",
"551 398 LINE",
"466 398 LINE",
"466 561 LINE",
"551 561 LINE"
);
},
{
closed = 1;
nodes = (
"408 308 LINE",
"300 308 LINE SMOOTH",
"298 308 OFFCURVE",
"297 306 OFFCURVE",
"297 302 CURVE SMOOTH",
"297 92 LINE SMOOTH",
"297 90 OFFCURVE",
"298 87 OFFCURVE",
"300 87 CURVE SMOOTH",
"408 87 LINE SMOOTH",
"410 87 OFFCURVE",
"411 90 OFFCURVE",
"411 92 CURVE SMOOTH",
"411 302 LINE SMOOTH",
"411 306 OFFCURVE",
"410 308 OFFCURVE",
"408 308 CURVE"
);
},
{
closed = 1;
nodes = (
"713 308 LINE",
"604 308 LINE SMOOTH",
"603 308 OFFCURVE",
"601 306 OFFCURVE",
"601 302 CURVE SMOOTH",
"601 92 LINE SMOOTH",
"601 90 OFFCURVE",
"603 87 OFFCURVE",
"604 87 CURVE SMOOTH",
"713 87 LINE SMOOTH",
"714 87 OFFCURVE",
"715 90 OFFCURVE",
"715 92 CURVE SMOOTH",
"715 302 LINE SMOOTH",
"715 306 OFFCURVE",
"714 308 OFFCURVE",
"713 308 CURVE"
);
},
{
closed = 1;
nodes = (
"769 302 LINE",
"769 92 LINE",
"877 92 LINE",
"877 302 LINE",
"769 302 LINE"
);
},
{
closed = 1;
nodes = (
"927 302 LINE",
"927 92 LINE",
"1035 92 LINE",
"1035 302 LINE",
"927 302 LINE"
);
},
{
closed = 1;
nodes = (
"1092 302 LINE",
"1092 92 LINE",
"1200 92 LINE",
"1200 302 LINE",
"1092 302 LINE"
);
},
{
closed = 1;
nodes = (
"405 297 LINE",
"405 98 LINE",
"303 98 LINE",
"303 297 LINE",
"405 297 LINE"
);
},
{
closed = 1;
nodes = (
"710 297 LINE",
"710 98 LINE",
"607 98 LINE",
"607 297 LINE",
"710 297 LINE"
);
},
{
closed = 1;
nodes = (
"769 20 LINE",
"769 -189 LINE",
"877 -189 LINE",
"877 20 LINE",
"769 20 LINE"
);
},
{
closed = 1;
nodes = (
"927 20 LINE",
"927 -189 LINE",
"1035 -189 LINE",
"1035 20 LINE",
"927 20 LINE"
);
},
{
closed = 1;
nodes = (
"1092 20 LINE",
"1092 -189 LINE",
"1200 -189 LINE",
"1200 20 LINE",
"1092 20 LINE"
);
},
{
closed = 1;
nodes = (
"713 -258 LINE",
"604 -258 LINE SMOOTH",
"603 -258 OFFCURVE",
"601 -261 OFFCURVE",
"601 -264 CURVE SMOOTH",
"601 -474 LINE SMOOTH",
"601 -478 OFFCURVE",
"603 -480 OFFCURVE",
"604 -480 CURVE SMOOTH",
"713 -480 LINE SMOOTH",
"714 -480 OFFCURVE",
"715 -478 OFFCURVE",
"715 -474 CURVE SMOOTH",
"715 -264 LINE SMOOTH",
"715 -261 OFFCURVE",
"714 -258 OFFCURVE",
"713 -258 CURVE"
);
},
{
closed = 1;
nodes = (
"927 -264 LINE",
"927 -474 LINE",
"1035 -474 LINE",
"1035 -264 LINE",
"927 -264 LINE"
);
},
{
closed = 1;
nodes = (
"1092 -264 LINE",
"1092 -474 LINE",
"1200 -474 LINE",
"1200 -264 LINE",
"1092 -264 LINE"
);
},
{
closed = 1;
nodes = (
"710 -270 LINE",
"710 -469 LINE",
"607 -469 LINE",
"607 -270 LINE",
"710 -270 LINE"
);
}
);
width = 1200;
}
);
note = uniE0C5;
unicode = E0C5;
},
{
color = 2;
glyphname = uniE0C6;
lastChange = "2020-05-18 20:44:03 +0000";
layers = (
{
layerId = "F8C3375C-B372-4BAE-A3FB-5A8DC7FA7AB9";
paths = (
{
closed = 1;
nodes = (
"769 1874 LINE",
"940 1874 LINE SMOOTH",
"947 1874 OFFCURVE",
"955 1885 OFFCURVE",
"955 1899 CURVE SMOOTH",
"955 2202 LINE SMOOTH",
"955 2213 OFFCURVE",
"949 2226 OFFCURVE",
"940 2226 CURVE SMOOTH",
"769 2226 LINE SMOOTH",
"763 2226 OFFCURVE",
"755 2215 OFFCURVE",
"755 2202 CURVE SMOOTH",
"755 1899 LINE SMOOTH",
"755 1887 OFFCURVE",
"761 1874 OFFCURVE",
"769 1874 CURVE"
);
},
{
closed = 1;
nodes = (
"512 1885 LINE",
"683 1885 LINE SMOOTH",
"687 1885 OFFCURVE",
"691 1892 OFFCURVE",
"691 1899 CURVE SMOOTH",
"691 2202 LINE SMOOTH",
"691 2208 OFFCURVE",
"688 2215 OFFCURVE",
"683 2215 CURVE SMOOTH",
"512 2215 LINE SMOOTH",
"508 2215 OFFCURVE",
"504 2208 OFFCURVE",
"504 2202 CURVE SMOOTH",
"504 1899 LINE SMOOTH",
"504 1892 OFFCURVE",
"507 1885 OFFCURVE",
"512 1885 CURVE"
);
},
{
closed = 1;
nodes = (
"0 2202 LINE",
"0 1899 LINE",
"172 1899 LINE",
"172 2202 LINE",
"0 2202 LINE"
);
},
{
closed = 1;
nodes = (
"261 2202 LINE",
"261 1899 LINE",
"433 1899 LINE",
"433 2202 LINE",
"261 2202 LINE"
);
},
{
closed = 1;
nodes = (
"519 1912 LINE",
"519 2187 LINE",
"675 2187 LINE",
"675 1912 LINE",
"519 1912 LINE"
);
},
{
closed = 1;
nodes = (
"784 1924 LINE",
"784 2176 LINE",
"927 2176 LINE",
"927 1924 LINE",
"784 1924 LINE"
);
},
{
closed = 1;
nodes = (
"944 1796 LINE",
"773 1796 LINE SMOOTH",
"770 1796 OFFCURVE",
"765 1791 OFFCURVE",
"765 1783 CURVE SMOOTH",
"765 1480 LINE SMOOTH",
"765 1473 OFFCURVE",
"769 1467 OFFCURVE",
"773 1467 CURVE SMOOTH",
"944 1467 LINE SMOOTH",
"949 1467 OFFCURVE",
"952 1472 OFFCURVE",
"952 1480 CURVE SMOOTH",
"952 1783 LINE SMOOTH",
"952 1791 OFFCURVE",
"949 1796 OFFCURVE",
"944 1796 CURVE"
);
},
{
closed = 1;
nodes = (
"0 1783 LINE",
"0 1480 LINE",
"172 1480 LINE",
"172 1783 LINE",
"0 1783 LINE"
);
},
{
closed = 1;
nodes = (
"261 1783 LINE",
"261 1480 LINE",
"433 1480 LINE",
"433 1783 LINE",
"261 1783 LINE"
);
},
{
closed = 1;
nodes = (
"512 1783 LINE",
"512 1480 LINE",
"683 1480 LINE",
"683 1783 LINE",
"512 1783 LINE"
);
},
{
closed = 1;
nodes = (
"937 1769 LINE",
"937 1493 LINE",
"781 1493 LINE",
"781 1769 LINE",
"937 1769 LINE"
);
},
{
closed = 1;
nodes = (
"1181 1420 LINE",
"1010 1420 LINE SMOOTH",
"1002 1420 OFFCURVE",
"992 1406 OFFCURVE",
"992 1389 CURVE SMOOTH",
"992 1084 LINE SMOOTH",
"992 1070 OFFCURVE",
"1000 1053 OFFCURVE",
"1010 1053 CURVE SMOOTH",
"1181 1053 LINE SMOOTH",
"1191 1053 OFFCURVE",
"1200 1067 OFFCURVE",
"1200 1084 CURVE SMOOTH",
"1200 1389 LINE SMOOTH",
"1200 1404 OFFCURVE",
"1192 1420 OFFCURVE",
"1181 1420 CURVE"
);
},
{
closed = 1;
nodes = (
"512 1071 LINE",
"683 1071 LINE SMOOTH",
"687 1071 OFFCURVE",
"691 1077 OFFCURVE",
"691 1084 CURVE SMOOTH",
"691 1389 LINE SMOOTH",
"691 1394 OFFCURVE",
"688 1403 OFFCURVE",
"683 1403 CURVE SMOOTH",
"512 1403 LINE SMOOTH",
"508 1403 OFFCURVE",
"504 1394 OFFCURVE",
"504 1389 CURVE SMOOTH",
"504 1084 LINE SMOOTH",
"504 1079 OFFCURVE",
"507 1071 OFFCURVE",
"512 1071 CURVE"
);
},
{
closed = 1;
nodes = (
"0 1389 LINE",
"0 1084 LINE",
"172 1084 LINE",
"172 1389 LINE",
"0 1389 LINE"
);
},
{
closed = 1;
nodes = (
"261 1389 LINE",
"261 1084 LINE",
"433 1084 LINE",
"433 1389 LINE",
"261 1389 LINE"
);
},
{
closed = 1;
nodes = (
"519 1099 LINE",
"519 1374 LINE",
"675 1374 LINE",
"675 1099 LINE",
"519 1099 LINE"
);
},
{
closed = 1;
nodes = (
"1163 1355 LINE",
"1163 1117 LINE",
"1029 1117 LINE",
"1029 1355 LINE",
"1163 1355 LINE"
);
},
{
closed = 1;
nodes = (
"0 1016 LINE",
"0 713 LINE",
"172 713 LINE",
"172 1016 LINE",
"0 1016 LINE"
);
},
{
closed = 1;
nodes = (
"512 1016 LINE",
"512 713 LINE",
"683 713 LINE",
"683 1016 LINE",
"512 1016 LINE"
);
},
{
closed = 1;
nodes = (
"944 673 LINE",
"773 673 LINE SMOOTH",
"763 673 OFFCURVE",
"750 654 OFFCURVE",
"750 632 CURVE SMOOTH",
"750 328 LINE SMOOTH",
"750 309 OFFCURVE",
"760 287 OFFCURVE",
"773 287 CURVE SMOOTH",
"944 287 LINE SMOOTH",
"956 287 OFFCURVE",
"968 307 OFFCURVE",
"968 328 CURVE SMOOTH",
"968 632 LINE SMOOTH",
"968 651 OFFCURVE",
"957 673 OFFCURVE",
"944 673 CURVE"
);
},
{
closed = 1;
nodes = (
"0 632 LINE",
"0 328 LINE",
"172 328 LINE",
"172 632 LINE",
"0 632 LINE"
);
},
{
closed = 1;
nodes = (
"261 632 LINE",
"261 328 LINE",
"433 328 LINE",
"433 632 LINE",
"261 632 LINE"
);
},
{
closed = 1;
nodes = (
"921 590 LINE",
"921 372 LINE",
"796 372 LINE",
"796 590 LINE",
"921 590 LINE"
);
},
{
closed = 1;
nodes = (
"683 275 LINE",
"512 275 LINE SMOOTH",
"504 275 OFFCURVE",
"496 264 OFFCURVE",
"496 249 CURVE SMOOTH",
"496 -54 LINE SMOOTH",
"496 -67 OFFCURVE",
"502 -81 OFFCURVE",
"512 -81 CURVE SMOOTH",
"683 -81 LINE SMOOTH",
"690 -81 OFFCURVE",
"698 -70 OFFCURVE",
"698 -54 CURVE SMOOTH",
"698 249 LINE SMOOTH",
"698 261 OFFCURVE",
"691 275 OFFCURVE",
"683 275 CURVE"
);
},
{
closed = 1;
nodes = (
"0 249 LINE",
"0 -54 LINE",
"172 -54 LINE",
"172 249 LINE",
"0 249 LINE"
);
},
{
closed = 1;
nodes = (
"261 249 LINE",
"261 -54 LINE",
"433 -54 LINE",
"433 249 LINE",
"261 249 LINE"
);
},
{
closed = 1;
nodes = (
"667 222 LINE",
"667 -27 LINE",
"527 -27 LINE",
"527 222 LINE",
"667 222 LINE"
);
},
{
closed = 1;
nodes = (
"1181 -112 LINE",
"1010 -112 LINE SMOOTH",
"1001 -112 OFFCURVE",
"992 -125 OFFCURVE",
"992 -143 CURVE SMOOTH",
"992 -446 LINE SMOOTH",
"992 -463 OFFCURVE",
"1000 -480 OFFCURVE",
"1010 -480 CURVE SMOOTH",
"1181 -480 LINE SMOOTH",
"1191 -480 OFFCURVE",
"1200 -466 OFFCURVE",
"1200 -446 CURVE SMOOTH",
"1200 -143 LINE SMOOTH",
"1200 -129 OFFCURVE",
"1192 -112 OFFCURVE",
"1181 -112 CURVE"
);
},
{
closed = 1;
nodes = (
"0 -143 LINE",
"0 -446 LINE",
"172 -446 LINE",
"172 -143 LINE",
"0 -143 LINE"
);
},
{
closed = 1;
nodes = (
"261 -143 LINE",
"261 -446 LINE",
"433 -446 LINE",
"433 -143 LINE",
"261 -143 LINE"
);
},
{
closed = 1;
nodes = (
"1163 -178 LINE",
"1163 -415 LINE",
"1029 -415 LINE",
"1029 -178 LINE",
"1163 -178 LINE"
);
}
);
width = 1200;
}
);
note = uniE0C6;
unicode = E0C6;
},
{
color = 2;
glyphname = uniE0C7;
lastChange = "2020-05-18 20:43:58 +0000";
layers = (
{
layerId = "F8C3375C-B372-4BAE-A3FB-5A8DC7FA7AB9";
paths = (
{
closed = 1;
nodes = (
"260 1874 LINE",
"431 1874 LINE SMOOTH",
"439 1874 OFFCURVE",
"445 1887 OFFCURVE",
"445 1900 CURVE SMOOTH",
"445 2202 LINE SMOOTH",
"445 2216 OFFCURVE",
"437 2226 OFFCURVE",
"431 2226 CURVE SMOOTH",
"260 2226 LINE SMOOTH",
"252 2226 OFFCURVE",
"246 2215 OFFCURVE",
"246 2202 CURVE SMOOTH",
"246 1900 LINE SMOOTH",
"246 1886 OFFCURVE",
"253 1874 OFFCURVE",
"260 1874 CURVE"
);
},
{
closed = 1;
nodes = (
"517 1885 LINE",
"688 1885 LINE SMOOTH",
"693 1885 OFFCURVE",
"696 1892 OFFCURVE",
"696 1900 CURVE SMOOTH",
"696 2202 LINE SMOOTH",
"696 2209 OFFCURVE",
"693 2216 OFFCURVE",
"688 2216 CURVE SMOOTH",
"517 2216 LINE SMOOTH",
"513 2216 OFFCURVE",
"509 2208 OFFCURVE",
"509 2202 CURVE SMOOTH",
"509 1900 LINE SMOOTH",
"509 1892 OFFCURVE",
"514 1885 OFFCURVE",
"517 1885 CURVE"
);
},
{
closed = 1;
nodes = (
"767 2202 LINE",
"767 1900 LINE",
"939 1900 LINE",
"939 2202 LINE",
"767 2202 LINE"
);
},
{
closed = 1;
nodes = (
"1200 2202 LINE",
"1029 2202 LINE",
"1029 1900 LINE",
"1200 1900 LINE",
"1200 2202 LINE"
);
},
{
closed = 1;
nodes = (
"525 1912 LINE",
"525 2187 LINE",
"681 2187 LINE",
"681 1912 LINE",
"525 1912 LINE"
);
},
{
closed = 1;
nodes = (
"273 1924 LINE",
"273 2176 LINE",
"417 2176 LINE",
"417 1924 LINE",
"273 1924 LINE"
);
},
{
closed = 1;
nodes = (
"428 1796 LINE",
"256 1796 LINE SMOOTH",
"251 1796 OFFCURVE",
"248 1791 OFFCURVE",
"248 1783 CURVE SMOOTH",
"248 1479 LINE SMOOTH",
"248 1472 OFFCURVE",
"253 1468 OFFCURVE",
"256 1468 CURVE SMOOTH",
"428 1468 LINE SMOOTH",
"432 1468 OFFCURVE",
"435 1476 OFFCURVE",
"435 1479 CURVE SMOOTH",
"435 1783 LINE SMOOTH",
"435 1791 OFFCURVE",
"431 1796 OFFCURVE",
"428 1796 CURVE"
);
},
{
closed = 1;
nodes = (
"517 1783 LINE",
"517 1479 LINE",
"688 1479 LINE",
"688 1783 LINE",
"517 1783 LINE"
);
},
{
closed = 1;
nodes = (
"767 1783 LINE",
"767 1479 LINE",
"939 1479 LINE",
"939 1783 LINE",
"767 1783 LINE"
);
},
{
closed = 1;
nodes = (
"1029 1783 LINE",
"1029 1479 LINE",
"1200 1479 LINE",
"1200 1783 LINE",
"1029 1783 LINE"
);
},
{
closed = 1;
nodes = (
"420 1770 LINE",
"420 1493 LINE",
"263 1493 LINE",
"263 1770 LINE",
"420 1770 LINE"
);
},
{
closed = 1;
nodes = (
"190 1421 LINE",
"19 1421 LINE SMOOTH",
"8 1421 OFFCURVE",
"0 1403 OFFCURVE",
"0 1389 CURVE SMOOTH",
"0 1084 LINE SMOOTH",
"0 1066 OFFCURVE",
"9 1053 OFFCURVE",
"19 1053 CURVE SMOOTH",
"190 1053 LINE SMOOTH",
"200 1053 OFFCURVE",
"209 1071 OFFCURVE",
"209 1084 CURVE SMOOTH",
"209 1389 LINE SMOOTH",
"209 1406 OFFCURVE",
"198 1421 OFFCURVE",
"190 1421 CURVE"
);
},
{
closed = 1;
nodes = (
"517 1072 LINE",
"688 1072 LINE SMOOTH",
"693 1072 OFFCURVE",
"696 1079 OFFCURVE",
"696 1084 CURVE SMOOTH",
"696 1389 LINE SMOOTH",
"696 1395 OFFCURVE",
"693 1402 OFFCURVE",
"688 1402 CURVE SMOOTH",
"517 1402 LINE SMOOTH",
"513 1402 OFFCURVE",
"509 1394 OFFCURVE",
"509 1389 CURVE SMOOTH",
"509 1084 LINE SMOOTH",
"509 1077 OFFCURVE",
"514 1072 OFFCURVE",
"517 1072 CURVE"
);
},
{
closed = 1;
nodes = (
"767 1389 LINE",
"767 1084 LINE",
"939 1084 LINE",
"939 1389 LINE",
"767 1389 LINE"
);
},
{
closed = 1;
nodes = (
"1029 1389 LINE",
"1029 1084 LINE",
"1200 1084 LINE",
"1200 1389 LINE",
"1029 1389 LINE"
);
},
{
closed = 1;
nodes = (
"525 1098 LINE",
"525 1374 LINE",
"681 1374 LINE",
"681 1098 LINE",
"525 1098 LINE"
);
},
{
closed = 1;
nodes = (
"172 1356 LINE",
"172 1117 LINE",
"37 1117 LINE",
"37 1356 LINE",
"172 1356 LINE"
);
},
{
closed = 1;
nodes = (
"517 1015 LINE",
"517 713 LINE",
"688 713 LINE",
"688 1015 LINE",
"517 1015 LINE"
);
},
{
closed = 1;
nodes = (
"1029 1015 LINE",
"1029 713 LINE",
"1200 713 LINE",
"1200 1015 LINE",
"1029 1015 LINE"
);
},
{
closed = 1;
nodes = (
"428 673 LINE",
"256 673 LINE SMOOTH",
"243 673 OFFCURVE",
"232 650 OFFCURVE",
"232 632 CURVE SMOOTH",
"232 330 LINE SMOOTH",
"232 306 OFFCURVE",
"245 287 OFFCURVE",
"256 287 CURVE SMOOTH",
"428 287 LINE SMOOTH",
"440 287 OFFCURVE",
"450 309 OFFCURVE",
"450 330 CURVE SMOOTH",
"450 632 LINE SMOOTH",
"450 654 OFFCURVE",
"438 673 OFFCURVE",
"428 673 CURVE"
);
},
{
closed = 1;
nodes = (
"767 632 LINE",
"767 330 LINE",
"939 330 LINE",
"939 632 LINE",
"767 632 LINE"
);
},
{
closed = 1;
nodes = (
"1029 632 LINE",
"1029 330 LINE",
"1200 330 LINE",
"1200 632 LINE",
"1029 632 LINE"
);
},
{
closed = 1;
nodes = (
"404 591 LINE",
"404 369 LINE",
"279 369 LINE",
"279 591 LINE",
"404 591 LINE"
);
},
{
closed = 1;
nodes = (
"688 276 LINE",
"517 276 LINE SMOOTH",
"508 276 OFFCURVE",
"502 261 OFFCURVE",
"502 249 CURVE SMOOTH",
"502 -54 LINE SMOOTH",
"502 -71 OFFCURVE",
"510 -81 OFFCURVE",
"517 -81 CURVE SMOOTH",
"688 -81 LINE SMOOTH",
"698 -81 OFFCURVE",
"704 -67 OFFCURVE",
"704 -54 CURVE SMOOTH",
"704 249 LINE SMOOTH",
"704 264 OFFCURVE",
"696 276 OFFCURVE",
"688 276 CURVE"
);
},
{
closed = 1;
nodes = (
"767 249 LINE",
"767 -54 LINE",
"939 -54 LINE",
"939 249 LINE",
"767 249 LINE"
);
},
{
closed = 1;
nodes = (
"1029 249 LINE",
"1029 -54 LINE",
"1200 -54 LINE",
"1200 249 LINE",
"1029 249 LINE"
);
},
{
closed = 1;
nodes = (
"674 222 LINE",
"674 -26 LINE",
"533 -26 LINE",
"533 222 LINE",
"674 222 LINE"
);
},
{
closed = 1;
nodes = (
"190 -112 LINE",
"19 -112 LINE SMOOTH",
"8 -112 OFFCURVE",
"0 -129 OFFCURVE",
"0 -145 CURVE SMOOTH",
"0 -446 LINE SMOOTH",
"0 -465 OFFCURVE",
"9 -480 OFFCURVE",
"19 -480 CURVE SMOOTH",
"190 -480 LINE SMOOTH",
"200 -480 OFFCURVE",
"209 -463 OFFCURVE",
"209 -446 CURVE SMOOTH",
"209 -145 LINE SMOOTH",
"209 -128 OFFCURVE",
"198 -112 OFFCURVE",
"190 -112 CURVE"
);
},
{
closed = 1;
nodes = (
"767 -145 LINE",
"767 -446 LINE",
"939 -446 LINE",
"939 -145 LINE",
"767 -145 LINE"
);
},
{
closed = 1;
nodes = (
"1029 -145 LINE",
"1029 -446 LINE",
"1200 -446 LINE",
"1200 -145 LINE",
"1029 -145 LINE"
);
},
{
closed = 1;
nodes = (
"172 -176 LINE",
"172 -415 LINE",
"37 -415 LINE",
"37 -176 LINE",
"172 -176 LINE"
);
}
);
width = 1200;
}
);
note = uniE0C7;
unicode = E0C7;
},
{
color = 2;
glyphname = uniE0C8;
lastChange = "2020-05-18 20:43:52 +0000";
layers = (
{
layerId = "F8C3375C-B372-4BAE-A3FB-5A8DC7FA7AB9";
paths = (
{
closed = 1;
nodes = (
"1105 583 LINE",
"1073 583 OFFCURVE",
"1046 599 OFFCURVE",
"1016 599 CURVE SMOOTH",
"1010 599 OFFCURVE",
"983 590 OFFCURVE",
"974 588 CURVE",
"955 592 OFFCURVE",
"938 604 OFFCURVE",
"917 604 CURVE SMOOTH",
"902 604 OFFCURVE",
"886 602 OFFCURVE",
"871 600 CURVE SMOOTH",
"862 600 OFFCURVE",
"853 594 OFFCURVE",
"844 594 CURVE SMOOTH",
"841 594 OFFCURVE",
"838 596 OFFCURVE",
"836 598 CURVE SMOOTH",
"811 624 OFFCURVE",
"794 630 OFFCURVE",
"760 630 CURVE SMOOTH",
"744 630 OFFCURVE",
"749 651 OFFCURVE",
"703 651 CURVE SMOOTH",
"681 651 OFFCURVE",
"662 666 OFFCURVE",
"640 666 CURVE SMOOTH",
"631 666 OFFCURVE",
"621 659 OFFCURVE",
"612 659 CURVE SMOOTH",
"607 659 OFFCURVE",
"602 663 OFFCURVE",
"598 667 CURVE SMOOTH",
"586 679 OFFCURVE",
"555 674 OFFCURVE",
"540 674 CURVE SMOOTH",
"536 674 OFFCURVE",
"531 674 OFFCURVE",
"527 675 CURVE",
"513 687 OFFCURVE",
"480 682 OFFCURVE",
"462 693 CURVE SMOOTH",
"455 697 OFFCURVE",
"451 706 OFFCURVE",
"443 706 CURVE SMOOTH",
"435 706 OFFCURVE",
"427 701 OFFCURVE",
"419 701 CURVE SMOOTH",
"413 701 OFFCURVE",
"406 706 OFFCURVE",
"399 706 CURVE SMOOTH",
"392 706 OFFCURVE",
"384 705 OFFCURVE",
"377 705 CURVE SMOOTH",
"342 705 OFFCURVE",
"307 708 OFFCURVE",
"273 708 CURVE SMOOTH",
"262 708 OFFCURVE",
"261 714 OFFCURVE",
"257 725 CURVE",
"260 730 OFFCURVE",
"276 733 OFFCURVE",
"281 734 CURVE SMOOTH",
"336 746 OFFCURVE",
"382 767 OFFCURVE",
"433 791 CURVE SMOOTH",
"446 797 OFFCURVE",
"460 820 OFFCURVE",
"477 817 CURVE SMOOTH",
"482 816 OFFCURVE",
"486 816 OFFCURVE",
"491 816 CURVE SMOOTH",
"504 816 OFFCURVE",
"517 829 OFFCURVE",
"528 829 CURVE SMOOTH",
"536 829 OFFCURVE",
"549 829 OFFCURVE",
"557 832 CURVE SMOOTH",
"563 833 OFFCURVE",
"568 839 OFFCURVE",
"568 848 CURVE SMOOTH",
"568 878 OFFCURVE",
"547 884 OFFCURVE",
"525 887 CURVE SMOOTH",
"503 888 OFFCURVE",
"487 903 OFFCURVE",
"466 906 CURVE SMOOTH",
"457 907 OFFCURVE",
"447 903 OFFCURVE",
"438 903 CURVE SMOOTH",
"429 903 OFFCURVE",
"385 912 OFFCURVE",
"376 915 CURVE SMOOTH",
"370 918 OFFCURVE",
"332 939 OFFCURVE",
"326 938 CURVE SMOOTH",
"322 937 OFFCURVE",
"319 934 OFFCURVE",
"315 934 CURVE SMOOTH",
"301 934 OFFCURVE",
"287 939 OFFCURVE",
"273 940 CURVE",
"268 947 LINE",
"278 964 OFFCURVE",
"320 957 OFFCURVE",
"335 957 CURVE SMOOTH",
"359 957 OFFCURVE",
"380 976 OFFCURVE",
"405 979 CURVE SMOOTH",
"416 980 OFFCURVE",
"447 989 OFFCURVE",
"447 1005 CURVE SMOOTH",
"447 1032 OFFCURVE",
"390 1041 OFFCURVE",
"372 1041 CURVE SMOOTH",
"353 1041 OFFCURVE",
"341 1052 OFFCURVE",
"323 1052 CURVE SMOOTH",
"241 1052 OFFCURVE",
"256 1069 OFFCURVE",
"235 1131 CURVE SMOOTH",
"231 1144 OFFCURVE",
"215 1178 OFFCURVE",
"215 1188 CURVE SMOOTH",
"215 1235 OFFCURVE",
"248 1263 OFFCURVE",
"279 1290 CURVE SMOOTH",
"292 1304 OFFCURVE",
"315 1299 OFFCURVE",
"327 1312 CURVE SMOOTH",
"330 1315 OFFCURVE",
"379 1329 OFFCURVE",
"388 1331 CURVE",
"395 1329 OFFCURVE",
"403 1326 OFFCURVE",
"410 1326 CURVE SMOOTH",
"425 1326 OFFCURVE",
"428 1345 OFFCURVE",
"445 1345 CURVE SMOOTH",
"458 1345 OFFCURVE",
"459 1335 OFFCURVE",
"475 1335 CURVE SMOOTH",
"486 1335 OFFCURVE",
"528 1356 OFFCURVE",
"541 1364 CURVE SMOOTH",
"575 1379 OFFCURVE",
"614 1378 OFFCURVE",
"648 1391 CURVE SMOOTH",
"657 1395 OFFCURVE",
"663 1403 OFFCURVE",
"663 1413 CURVE SMOOTH",
"663 1461 OFFCURVE",
"625 1453 OFFCURVE",
"597 1453 CURVE SMOOTH",
"577 1453 OFFCURVE",
"565 1484 OFFCURVE",
"512 1484 CURVE SMOOTH",
"504 1484 OFFCURVE",
"499 1479 OFFCURVE",
"492 1478 CURVE",
"485 1484 OFFCURVE",
"488 1489 OFFCURVE",
"477 1493 CURVE SMOOTH",
"464 1496 OFFCURVE",
"442 1501 OFFCURVE",
"431 1509 CURVE SMOOTH",
"428 1511 OFFCURVE",
"425 1514 OFFCURVE",
"421 1514 CURVE SMOOTH",
"415 1514 OFFCURVE",
"410 1506 OFFCURVE",
"404 1504 CURVE",
"395 1511 OFFCURVE",
"357 1567 OFFCURVE",
"339 1551 CURVE",
"303 1551 OFFCURVE",
"245 1590 OFFCURVE",
"206 1590 CURVE SMOOTH",
"194 1590 OFFCURVE",
"175 1601 OFFCURVE",
"175 1615 CURVE SMOOTH",
"175 1654 OFFCURVE",
"235 1670 OFFCURVE",
"262 1670 CURVE SMOOTH",
"281 1670 OFFCURVE",
"343 1683 OFFCURVE",
"362 1686 CURVE SMOOTH",
"379 1690 OFFCURVE",
"402 1713 OFFCURVE",
"416 1713 CURVE",
"424 1710 LINE",
"435 1700 OFFCURVE",
"450 1696 OFFCURVE",
"465 1696 CURVE SMOOTH",
"474 1696 OFFCURVE",
"486 1698 OFFCURVE",
"490 1708 CURVE",
"493 1709 LINE",
"498 1706 OFFCURVE",
"507 1697 OFFCURVE",
"513 1697 CURVE SMOOTH",
"517 1697 OFFCURVE",
"521 1700 OFFCURVE",
"524 1702 CURVE SMOOTH",
"539 1715 OFFCURVE",
"562 1718 OFFCURVE",
"581 1722 CURVE SMOOTH",
"592 1725 OFFCURVE",
"599 1736 OFFCURVE",
"610 1739 CURVE",
"622 1735 OFFCURVE",
"641 1735 OFFCURVE",
"654 1735 CURVE SMOOTH",
"708 1735 OFFCURVE",
"714 1755 OFFCURVE",
"767 1755 CURVE SMOOTH",
"794 1755 OFFCURVE",
"830 1761 OFFCURVE",
"830 1797 CURVE SMOOTH",
"830 1806 OFFCURVE",
"827 1830 OFFCURVE",
"816 1830 CURVE SMOOTH",
"811 1830 OFFCURVE",
"805 1825 OFFCURVE",
"800 1825 CURVE SMOOTH",
"793 1825 OFFCURVE",
"786 1831 OFFCURVE",
"781 1836 CURVE SMOOTH",
"755 1858 OFFCURVE",
"736 1850 OFFCURVE",
"706 1855 CURVE",
"704 1854 OFFCURVE",
"701 1853 OFFCURVE",
"699 1852 CURVE",
"690 1852 LINE SMOOTH",
"688 1852 OFFCURVE",
"679 1858 OFFCURVE",
"677 1859 CURVE SMOOTH",
"622 1899 OFFCURVE",
"612 1876 OFFCURVE",
"560 1891 CURVE SMOOTH",
"545 1894 OFFCURVE",
"546 1912 OFFCURVE",
"517 1912 CURVE SMOOTH",
"506 1912 OFFCURVE",
"499 1907 OFFCURVE",
"490 1903 CURVE",
"477 1912 OFFCURVE",
"474 1934 OFFCURVE",
"461 1934 CURVE SMOOTH",
"435 1934 OFFCURVE",
"419 1921 OFFCURVE",
"396 1913 CURVE",
"393 1914 OFFCURVE",
"390 1917 OFFCURVE",
"388 1919 CURVE SMOOTH",
"372 1941 OFFCURVE",
"330 1951 OFFCURVE",
"306 1951 CURVE SMOOTH",
"292 1951 OFFCURVE",
"283 1942 OFFCURVE",
"270 1941 CURVE",
"246 1946 OFFCURVE",
"136 1980 OFFCURVE",
"127 1999 CURVE",
"131 2002 LINE",
"147 2010 OFFCURVE",
"159 2004 OFFCURVE",
"175 2004 CURVE SMOOTH",
"189 2004 OFFCURVE",
"256 2011 OFFCURVE",
"264 2017 CURVE SMOOTH",
"276 2026 OFFCURVE",
"305 2035 OFFCURVE",
"320 2035 CURVE SMOOTH",
"327 2035 OFFCURVE",
"334 2032 OFFCURVE",
"341 2032 CURVE SMOOTH",
"355 2032 OFFCURVE",
"370 2040 OFFCURVE",
"373 2054 CURVE",
"390 2054 OFFCURVE",
"414 2054 OFFCURVE",
"414 2080 CURVE SMOOTH",
"414 2108 OFFCURVE",
"391 2098 OFFCURVE",
"379 2104 CURVE",
"376 2107 OFFCURVE",
"297 2152 OFFCURVE",
"294 2152 CURVE SMOOTH",
"288 2152 OFFCURVE",
"284 2146 OFFCURVE",
"279 2144 CURVE",
"263 2150 OFFCURVE",
"213 2168 OFFCURVE",
"199 2168 CURVE SMOOTH",
"194 2168 OFFCURVE",
"143 2202 OFFCURVE",
"135 2208 CURVE SMOOTH",
"113 2224 OFFCURVE",
"76 2217 OFFCURVE",
"50 2217 CURVE SMOOTH",
"45 2217 OFFCURVE",
"41 2217 OFFCURVE",
"36 2218 CURVE",
"29 2223 OFFCURVE",
"21 2226 OFFCURVE",
"13 2226 CURVE SMOOTH",
"10 2226 OFFCURVE",
"6 2226 OFFCURVE",
"3 2225 CURVE",
"0 2219 LINE",
"1 -473 LINE",
"4 -479 LINE",
"49 -479 OFFCURVE",
"63 -480 OFFCURVE",
"102 -457 CURVE SMOOTH",
"111 -452 OFFCURVE",
"120 -445 OFFCURVE",
"130 -440 CURVE SMOOTH",
"151 -433 OFFCURVE",
"169 -445 OFFCURVE",
"198 -428 CURVE SMOOTH",
"236 -405 OFFCURVE",
"220 -403 OFFCURVE",
"268 -403 CURVE SMOOTH",
"270 -403 OFFCURVE",
"280 -397 OFFCURVE",
"282 -396 CURVE SMOOTH",
"298 -388 OFFCURVE",
"321 -388 OFFCURVE",
"338 -387 CURVE SMOOTH",
"348 -386 OFFCURVE",
"350 -373 OFFCURVE",
"350 -363 CURVE SMOOTH",
"350 -325 OFFCURVE",
"311 -345 OFFCURVE",
"288 -337 CURVE",
"279 -328 OFFCURVE",
"271 -315 OFFCURVE",
"259 -308 CURVE SMOOTH",
"239 -299 OFFCURVE",
"226 -288 OFFCURVE",
"204 -284 CURVE SMOOTH",
"202 -284 OFFCURVE",
"198 -281 OFFCURVE",
"196 -278 CURVE",
"188 -257 OFFCURVE",
"144 -275 OFFCURVE",
"144 -251 CURVE SMOOTH",
"144 -242 OFFCURVE",
"160 -234 OFFCURVE",
"165 -232 CURVE SMOOTH",
"178 -228 OFFCURVE",
"190 -224 OFFCURVE",
"204 -224 CURVE SMOOTH",
"220 -224 OFFCURVE",
"232 -208 OFFCURVE",
"247 -206 CURVE SMOOTH",
"260 -204 OFFCURVE",
"289 -199 OFFCURVE",
"301 -192 CURVE SMOOTH",
"309 -186 OFFCURVE",
"314 -176 OFFCURVE",
"324 -174 CURVE",
"330 -175 OFFCURVE",
"339 -176 OFFCURVE",
"346 -176 CURVE SMOOTH",
"362 -176 OFFCURVE",
"371 -173 OFFCURVE",
"371 -154 CURVE SMOOTH",
"371 -143 OFFCURVE",
"367 -133 OFFCURVE",
"363 -122 CURVE",
"376 -104 OFFCURVE",
"532 -105 OFFCURVE",
"560 -96 CURVE SMOOTH",
"573 -92 OFFCURVE",
"593 -88 OFFCURVE",
"607 -88 CURVE SMOOTH",
"623 -88 OFFCURVE",
"640 -83 OFFCURVE",
"640 -63 CURVE SMOOTH",
"640 -30 OFFCURVE",
"618 -42 OFFCURVE",
"602 -29 CURVE",
"588 -24 OFFCURVE",
"581 -27 OFFCURVE",
"568 -27 CURVE SMOOTH",
"567 -27 OFFCURVE",
"563 -25 OFFCURVE",
"562 -25 CURVE",
"555 -18 OFFCURVE",
"538 -5 OFFCURVE",
"528 -5 CURVE SMOOTH",
"518 -5 OFFCURVE",
"508 -12 OFFCURVE",
"498 -12 CURVE SMOOTH",
"495 -12 OFFCURVE",
"491 -10 OFFCURVE",
"488 -8 CURVE",
"479 5 OFFCURVE",
"463 8 OFFCURVE",
"450 8 CURVE SMOOTH",
"444 8 OFFCURVE",
"440 4 OFFCURVE",
"434 2 CURVE",
"431 3 OFFCURVE",
"429 7 OFFCURVE",
"427 9 CURVE SMOOTH",
"412 26 OFFCURVE",
"380 11 OFFCURVE",
"363 23 CURVE SMOOTH",
"319 56 OFFCURVE",
"322 43 OFFCURVE",
"273 43 CURVE SMOOTH",
"265 43 OFFCURVE",
"219 50 OFFCURVE",
"222 65 CURVE SMOOTH",
"224 74 LINE",
"238 84 OFFCURVE",
"289 82 OFFCURVE",
"307 88 CURVE SMOOTH",
"317 91 OFFCURVE",
"326 96 OFFCURVE",
"334 104 CURVE SMOOTH",
"353 123 OFFCURVE",
"375 125 OFFCURVE",
"397 135 CURVE SMOOTH",
"401 136 OFFCURVE",
"411 141 OFFCURVE",
"415 141 CURVE",
"420 137 OFFCURVE",
"432 131 OFFCURVE",
"438 131 CURVE SMOOTH",
"442 131 OFFCURVE",
"446 133 OFFCURVE",
"449 136 CURVE SMOOTH",
"460 144 OFFCURVE",
"468 140 OFFCURVE",
"479 144 CURVE",
"501 144 OFFCURVE",
"535 157 OFFCURVE",
"535 186 CURVE SMOOTH",
"535 201 OFFCURVE",
"476 222 OFFCURVE",
"462 222 CURVE SMOOTH",
"454 222 OFFCURVE",
"446 218 OFFCURVE",
"439 218 CURVE SMOOTH",
"423 218 OFFCURVE",
"408 226 OFFCURVE",
"391 226 CURVE SMOOTH",
"374 226 OFFCURVE",
"357 231 OFFCURVE",
"340 231 CURVE SMOOTH",
"325 231 OFFCURVE",
"240 275 OFFCURVE",
"240 291 CURVE SMOOTH",
"240 315 OFFCURVE",
"294 361 OFFCURVE",
"315 361 CURVE SMOOTH",
"325 361 OFFCURVE",
"333 367 OFFCURVE",
"340 375 CURVE SMOOTH",
"343 377 OFFCURVE",
"350 386 OFFCURVE",
"355 388 CURVE SMOOTH",
"413 402 OFFCURVE",
"470 408 OFFCURVE",
"528 417 CURVE SMOOTH",
"556 423 OFFCURVE",
"602 441 OFFCURVE",
"620 441 CURVE SMOOTH",
"628 441 OFFCURVE",
"636 438 OFFCURVE",
"644 438 CURVE SMOOTH",
"668 438 OFFCURVE",
"695 463 OFFCURVE",
"720 463 CURVE SMOOTH",
"730 463 OFFCURVE",
"731 471 OFFCURVE",
"739 475 CURVE",
"749 472 OFFCURVE",
"759 464 OFFCURVE",
"770 464 CURVE SMOOTH",
"786 464 OFFCURVE",
"857 474 OFFCURVE",
"868 483 CURVE SMOOTH",
"872 485 OFFCURVE",
"876 486 OFFCURVE",
"880 486 CURVE SMOOTH",
"890 486 OFFCURVE",
"899 484 OFFCURVE",
"909 483 CURVE",
"912 484 OFFCURVE",
"916 485 OFFCURVE",
"919 485 CURVE SMOOTH",
"925 485 OFFCURVE",
"932 482 OFFCURVE",
"938 482 CURVE SMOOTH",
"966 482 OFFCURVE",
"1016 499 OFFCURVE",
"1046 505 CURVE SMOOTH",
"1066 508 OFFCURVE",
"1084 513 OFFCURVE",
"1104 513 CURVE SMOOTH",
"1123 513 OFFCURVE",
"1141 522 OFFCURVE",
"1164 522 CURVE SMOOTH",
"1189 522 OFFCURVE",
"1200 527 OFFCURVE",
"1200 556 CURVE SMOOTH",
"1200 596 OFFCURVE",
"1128 583 OFFCURVE",
"1105 583 CURVE"
);
}
);
width = 1200;
}
);
note = uniE0C8;
unicode = E0C8;
},
{
color = 2;
glyphname = uniE0CA;
lastChange = "2020-05-18 20:43:44 +0000";
layers = (
{
layerId = "F8C3375C-B372-4BAE-A3FB-5A8DC7FA7AB9";
paths = (
{
closed = 1;
nodes = (
"1196 -479 LINE",
"1199 -473 LINE",
"1200 2219 LINE",
"1197 2225 LINE",
"1194 2226 OFFCURVE",
"1190 2226 OFFCURVE",
"1187 2226 CURVE SMOOTH",
"1173 2226 OFFCURVE",
"1162 2218 OFFCURVE",
"1148 2218 CURVE SMOOTH",
"1134 2218 OFFCURVE",
"1120 2219 OFFCURVE",
"1106 2219 CURVE SMOOTH",
"1075 2219 OFFCURVE",
"1041 2198 OFFCURVE",
"1017 2176 CURVE SMOOTH",
"1008 2168 OFFCURVE",
"938 2151 OFFCURVE",
"921 2144 CURVE",
"917 2148 OFFCURVE",
"911 2151 OFFCURVE",
"906 2151 CURVE SMOOTH",
"897 2151 OFFCURVE",
"825 2108 OFFCURVE",
"821 2104 CURVE",
"807 2104 OFFCURVE",
"786 2103 OFFCURVE",
"786 2081 CURVE SMOOTH",
"786 2053 OFFCURVE",
"811 2054 OFFCURVE",
"827 2054 CURVE",
"835 2040 OFFCURVE",
"842 2033 OFFCURVE",
"859 2033 CURVE SMOOTH",
"866 2033 OFFCURVE",
"873 2036 OFFCURVE",
"880 2036 CURVE SMOOTH",
"894 2036 OFFCURVE",
"924 2028 OFFCURVE",
"936 2018 CURVE SMOOTH",
"955 2003 OFFCURVE",
"1023 2007 OFFCURVE",
"1049 2007 CURVE SMOOTH",
"1058 2007 OFFCURVE",
"1066 2006 OFFCURVE",
"1073 2000 CURVE",
"1066 1986 OFFCURVE",
"950 1940 OFFCURVE",
"930 1940 CURVE SMOOTH",
"920 1940 OFFCURVE",
"907 1952 OFFCURVE",
"894 1952 CURVE SMOOTH",
"870 1952 OFFCURVE",
"828 1940 OFFCURVE",
"812 1920 CURVE SMOOTH",
"810 1919 OFFCURVE",
"807 1915 OFFCURVE",
"804 1914 CURVE",
"781 1922 OFFCURVE",
"765 1934 OFFCURVE",
"739 1934 CURVE SMOOTH",
"726 1934 OFFCURVE",
"721 1913 OFFCURVE",
"710 1903 CURVE",
"700 1909 OFFCURVE",
"691 1913 OFFCURVE",
"680 1913 CURVE SMOOTH",
"656 1913 OFFCURVE",
"654 1897 OFFCURVE",
"640 1892 CURVE SMOOTH",
"587 1875 OFFCURVE",
"582 1898 OFFCURVE",
"523 1859 CURVE SMOOTH",
"516 1854 OFFCURVE",
"509 1852 OFFCURVE",
"501 1854 CURVE SMOOTH",
"499 1854 OFFCURVE",
"496 1854 OFFCURVE",
"494 1855 CURVE",
"459 1848 OFFCURVE",
"452 1860 OFFCURVE",
"419 1835 CURVE SMOOTH",
"414 1832 OFFCURVE",
"406 1826 OFFCURVE",
"400 1826 CURVE SMOOTH",
"394 1826 OFFCURVE",
"389 1830 OFFCURVE",
"384 1830 CURVE SMOOTH",
"374 1830 OFFCURVE",
"370 1808 OFFCURVE",
"370 1799 CURVE SMOOTH",
"370 1752 OFFCURVE",
"426 1757 OFFCURVE",
"454 1757 CURVE SMOOTH",
"478 1757 OFFCURVE",
"503 1736 OFFCURVE",
"546 1736 CURVE SMOOTH",
"559 1736 OFFCURVE",
"578 1736 OFFCURVE",
"590 1741 CURVE",
"601 1736 OFFCURVE",
"608 1725 OFFCURVE",
"619 1722 CURVE SMOOTH",
"634 1719 OFFCURVE",
"664 1714 OFFCURVE",
"676 1703 CURVE SMOOTH",
"679 1700 OFFCURVE",
"683 1697 OFFCURVE",
"687 1697 CURVE SMOOTH",
"691 1697 OFFCURVE",
"702 1708 OFFCURVE",
"707 1710 CURVE",
"718 1698 OFFCURVE",
"718 1696 OFFCURVE",
"735 1696 CURVE SMOOTH",
"750 1696 OFFCURVE",
"765 1699 OFFCURVE",
"776 1711 CURVE",
"778 1713 OFFCURVE",
"782 1714 OFFCURVE",
"784 1714 CURVE SMOOTH",
"803 1714 OFFCURVE",
"819 1692 OFFCURVE",
"837 1686 CURVE SMOOTH",
"853 1682 OFFCURVE",
"907 1680 OFFCURVE",
"918 1673 CURVE SMOOTH",
"941 1657 OFFCURVE",
"1025 1671 OFFCURVE",
"1025 1617 CURVE SMOOTH",
"1025 1600 OFFCURVE",
"1006 1590 OFFCURVE",
"994 1590 CURVE SMOOTH",
"955 1590 OFFCURVE",
"896 1553 OFFCURVE",
"861 1553 CURVE",
"860 1554 OFFCURVE",
"858 1554 OFFCURVE",
"857 1554 CURVE SMOOTH",
"827 1554 OFFCURVE",
"796 1505 OFFCURVE",
"796 1505 CURVE",
"790 1508 OFFCURVE",
"786 1513 OFFCURVE",
"779 1513 CURVE SMOOTH",
"778 1513 OFFCURVE",
"732 1496 OFFCURVE",
"724 1493 CURVE SMOOTH",
"714 1490 OFFCURVE",
"715 1486 OFFCURVE",
"708 1479 CURVE",
"702 1481 OFFCURVE",
"695 1483 OFFCURVE",
"689 1483 CURVE SMOOTH",
"644 1483 OFFCURVE",
"621 1454 OFFCURVE",
"604 1454 CURVE SMOOTH",
"596 1454 OFFCURVE",
"589 1454 OFFCURVE",
"581 1454 CURVE SMOOTH",
"558 1454 OFFCURVE",
"537 1445 OFFCURVE",
"537 1413 CURVE SMOOTH",
"537 1382 OFFCURVE",
"635 1377 OFFCURVE",
"659 1363 CURVE",
"678 1362 OFFCURVE",
"704 1334 OFFCURVE",
"725 1334 CURVE SMOOTH",
"741 1334 OFFCURVE",
"741 1345 OFFCURVE",
"756 1345 CURVE SMOOTH",
"772 1345 OFFCURVE",
"775 1326 OFFCURVE",
"790 1326 CURVE SMOOTH",
"797 1326 OFFCURVE",
"805 1329 OFFCURVE",
"812 1331 CURVE",
"873 1317 OFFCURVE",
"985 1283 OFFCURVE",
"985 1188 CURVE SMOOTH",
"985 1180 OFFCURVE",
"969 1144 OFFCURVE",
"965 1133 CURVE SMOOTH",
"940 1059 OFFCURVE",
"950 1053 OFFCURVE",
"877 1053 CURVE SMOOTH",
"860 1053 OFFCURVE",
"846 1043 OFFCURVE",
"828 1043 CURVE SMOOTH",
"812 1043 OFFCURVE",
"753 1032 OFFCURVE",
"753 1005 CURVE SMOOTH",
"753 983 OFFCURVE",
"824 973 OFFCURVE",
"840 963 CURVE SMOOTH",
"860 949 OFFCURVE",
"909 970 OFFCURVE",
"932 948 CURVE",
"930 945 OFFCURVE",
"928 942 OFFCURVE",
"926 940 CURVE",
"908 937 OFFCURVE",
"892 937 OFFCURVE",
"874 937 CURVE SMOOTH",
"864 937 OFFCURVE",
"833 919 OFFCURVE",
"824 915 CURVE SMOOTH",
"797 901 OFFCURVE",
"762 906 OFFCURVE",
"734 906 CURVE SMOOTH",
"715 906 OFFCURVE",
"696 890 OFFCURVE",
"675 885 CURVE SMOOTH",
"654 883 OFFCURVE",
"632 880 OFFCURVE",
"632 848 CURVE SMOOTH",
"632 826 OFFCURVE",
"661 831 OFFCURVE",
"672 829 CURVE SMOOTH",
"697 825 OFFCURVE",
"686 818 OFFCURVE",
"723 818 CURVE SMOOTH",
"741 818 OFFCURVE",
"753 801 OFFCURVE",
"767 791 CURVE SMOOTH",
"800 771 OFFCURVE",
"881 742 OFFCURVE",
"919 734 CURVE SMOOTH",
"924 733 OFFCURVE",
"940 730 OFFCURVE",
"943 723 CURVE",
"933 700 OFFCURVE",
"928 711 OFFCURVE",
"909 711 CURVE SMOOTH",
"889 711 OFFCURVE",
"811 697 OFFCURVE",
"801 707 CURVE",
"795 706 OFFCURVE",
"787 700 OFFCURVE",
"781 700 CURVE SMOOTH",
"773 700 OFFCURVE",
"765 707 OFFCURVE",
"757 707 CURVE SMOOTH",
"747 707 OFFCURVE",
"745 696 OFFCURVE",
"738 692 CURVE SMOOTH",
"717 682 OFFCURVE",
"693 690 OFFCURVE",
"673 676 CURVE SMOOTH",
"669 674 OFFCURVE",
"664 672 OFFCURVE",
"660 672 CURVE SMOOTH",
"649 672 OFFCURVE",
"638 674 OFFCURVE",
"627 674 CURVE SMOOTH",
"599 674 OFFCURVE",
"603 659 OFFCURVE",
"588 659 CURVE SMOOTH",
"577 659 OFFCURVE",
"567 665 OFFCURVE",
"556 665 CURVE SMOOTH",
"535 665 OFFCURVE",
"515 654 OFFCURVE",
"492 654 CURVE SMOOTH",
"457 654 OFFCURVE",
"460 631 OFFCURVE",
"427 631 CURVE SMOOTH",
"388 631 OFFCURVE",
"366 594 OFFCURVE",
"356 594 CURVE SMOOTH",
"347 594 OFFCURVE",
"338 602 OFFCURVE",
"329 602 CURVE SMOOTH",
"314 604 OFFCURVE",
"298 605 OFFCURVE",
"283 605 CURVE SMOOTH",
"262 605 OFFCURVE",
"245 592 OFFCURVE",
"226 589 CURVE",
"211 591 OFFCURVE",
"195 600 OFFCURVE",
"180 600 CURVE SMOOTH",
"161 600 OFFCURVE",
"141 590 OFFCURVE",
"123 585 CURVE SMOOTH",
"100 579 OFFCURVE",
"0 602 OFFCURVE",
"0 556 CURVE SMOOTH",
"0 513 OFFCURVE",
"31 523 OFFCURVE",
"57 523 CURVE SMOOTH",
"70 523 OFFCURVE",
"83 512 OFFCURVE",
"96 512 CURVE SMOOTH",
"146 512 OFFCURVE",
"197 494 OFFCURVE",
"246 484 CURVE SMOOTH",
"251 483 OFFCURVE",
"257 482 OFFCURVE",
"262 482 CURVE SMOOTH",
"272 482 OFFCURVE",
"281 483 OFFCURVE",
"291 483 CURVE SMOOTH",
"301 483 OFFCURVE",
"310 486 OFFCURVE",
"320 486 CURVE SMOOTH",
"324 486 OFFCURVE",
"328 485 OFFCURVE",
"332 483 CURVE SMOOTH",
"343 475 OFFCURVE",
"414 464 OFFCURVE",
"430 464 CURVE SMOOTH",
"441 464 OFFCURVE",
"451 473 OFFCURVE",
"461 475 CURVE",
"468 472 OFFCURVE",
"471 462 OFFCURVE",
"480 462 CURVE SMOOTH",
"506 462 OFFCURVE",
"531 439 OFFCURVE",
"556 439 CURVE SMOOTH",
"565 439 OFFCURVE",
"575 442 OFFCURVE",
"585 442 CURVE SMOOTH",
"595 442 OFFCURVE",
"621 432 OFFCURVE",
"630 427 CURVE SMOOTH",
"652 418 OFFCURVE",
"801 399 OFFCURVE",
"846 388 CURVE",
"851 384 OFFCURVE",
"856 379 OFFCURVE",
"860 375 CURVE SMOOTH",
"867 367 OFFCURVE",
"876 361 OFFCURVE",
"886 361 CURVE SMOOTH",
"906 361 OFFCURVE",
"960 314 OFFCURVE",
"960 292 CURVE SMOOTH",
"960 275 OFFCURVE",
"874 231 OFFCURVE",
"860 231 CURVE SMOOTH",
"840 231 OFFCURVE",
"820 227 OFFCURVE",
"800 227 CURVE SMOOTH",
"786 227 OFFCURVE",
"774 219 OFFCURVE",
"760 219 CURVE SMOOTH",
"753 219 OFFCURVE",
"746 222 OFFCURVE",
"738 222 CURVE SMOOTH",
"724 222 OFFCURVE",
"665 203 OFFCURVE",
"665 187 CURVE SMOOTH",
"665 152 OFFCURVE",
"700 149 OFFCURVE",
"721 146 CURVE SMOOTH",
"734 144 OFFCURVE",
"751 130 OFFCURVE",
"762 130 CURVE SMOOTH",
"769 130 OFFCURVE",
"779 137 OFFCURVE",
"786 143 CURVE",
"786 144 LINE",
"806 136 OFFCURVE",
"851 119 OFFCURVE",
"866 103 CURVE SMOOTH",
"874 95 OFFCURVE",
"883 91 OFFCURVE",
"893 87 CURVE SMOOTH",
"920 82 OFFCURVE",
"948 83 OFFCURVE",
"975 76 CURVE",
"977 72 OFFCURVE",
"977 65 OFFCURVE",
"979 62 CURVE",
"979 60 OFFCURVE",
"960 50 OFFCURVE",
"957 48 CURVE SMOOTH",
"946 41 OFFCURVE",
"899 44 OFFCURVE",
"884 44 CURVE SMOOTH",
"865 44 OFFCURVE",
"854 30 OFFCURVE",
"837 25 CURVE SMOOTH",
"820 16 OFFCURVE",
"786 26 OFFCURVE",
"773 9 CURVE SMOOTH",
"771 7 OFFCURVE",
"769 3 OFFCURVE",
"766 1 CURVE",
"761 6 OFFCURVE",
"756 8 OFFCURVE",
"750 8 CURVE SMOOTH",
"720 8 OFFCURVE",
"713 -10 OFFCURVE",
"702 -10 CURVE SMOOTH",
"692 -10 OFFCURVE",
"682 -5 OFFCURVE",
"673 -5 CURVE SMOOTH",
"658 -5 OFFCURVE",
"646 -24 OFFCURVE",
"632 -27 CURVE",
"631 -27 OFFCURVE",
"620 -25 OFFCURVE",
"617 -25 CURVE SMOOTH",
"596 -25 OFFCURVE",
"561 -34 OFFCURVE",
"561 -62 CURVE SMOOTH",
"561 -75 OFFCURVE",
"567 -83 OFFCURVE",
"577 -86 CURVE SMOOTH",
"612 -93 OFFCURVE",
"651 -100 OFFCURVE",
"686 -100 CURVE SMOOTH",
"701 -100 OFFCURVE",
"830 -112 OFFCURVE",
"837 -123 CURVE",
"837 -136 OFFCURVE",
"829 -146 OFFCURVE",
"829 -160 CURVE SMOOTH",
"829 -174 OFFCURVE",
"847 -176 OFFCURVE",
"854 -176 CURVE SMOOTH",
"861 -176 OFFCURVE",
"869 -175 OFFCURVE",
"876 -173 CURVE",
"885 -176 OFFCURVE",
"891 -186 OFFCURVE",
"899 -190 CURVE SMOOTH",
"914 -200 OFFCURVE",
"937 -203 OFFCURVE",
"953 -206 CURVE SMOOTH",
"970 -210 OFFCURVE",
"975 -223 OFFCURVE",
"996 -223 CURVE SMOOTH",
"1008 -223 OFFCURVE",
"1056 -232 OFFCURVE",
"1056 -251 CURVE SMOOTH",
"1056 -264 OFFCURVE",
"1034 -266 OFFCURVE",
"1025 -266 CURVE SMOOTH",
"1003 -266 OFFCURVE",
"1009 -279 OFFCURVE",
"993 -284 CURVE SMOOTH",
"961 -295 OFFCURVE",
"936 -308 OFFCURVE",
"912 -338 CURVE",
"892 -344 OFFCURVE",
"850 -325 OFFCURVE",
"850 -363 CURVE SMOOTH",
"850 -372 OFFCURVE",
"853 -384 OFFCURVE",
"863 -385 CURVE SMOOTH",
"894 -392 OFFCURVE",
"924 -401 OFFCURVE",
"954 -401 CURVE SMOOTH",
"972 -401 OFFCURVE",
"987 -417 OFFCURVE",
"1002 -429 CURVE SMOOTH",
"1024 -444 OFFCURVE",
"1047 -434 OFFCURVE",
"1070 -441 CURVE SMOOTH",
"1080 -445 OFFCURVE",
"1089 -451 OFFCURVE",
"1098 -456 CURVE SMOOTH",
"1137 -480 OFFCURVE",
"1151 -479 OFFCURVE",
"1196 -479 CURVE"
);
}
);
width = 1200;
}
);
note = uniE0CA;
unicode = E0CA;
},
{
color = 2;
glyphname = uniE0CC;
lastChange = "2020-05-18 20:43:37 +0000";
layers = (
{
layerId = "F8C3375C-B372-4BAE-A3FB-5A8DC7FA7AB9";
paths = (
{
closed = 1;
nodes = (
"0 1129 LINE",
"331 1129 LINE",
"496 1678 LINE",
"331 2226 LINE",
"0 2226 LINE"
);
},
{
closed = 1;
nodes = (
"704 305 LINE",
"1035 305 LINE",
"1200 854 LINE",
"1035 1403 LINE",
"704 1403 LINE",
"539 854 LINE"
);
},
{
closed = 1;
nodes = (
"0 -480 LINE",
"331 -480 LINE",
"496 68 LINE",
"331 617 LINE",
"0 617 LINE"
);
}
);
width = 1200;
}
);
note = uniE0CC;
unicode = E0CC;
},
{
color = 2;
glyphname = uniE0CD;
lastChange = "2020-05-18 20:43:21 +0000";
layers = (
{
layerId = "F8C3375C-B372-4BAE-A3FB-5A8DC7FA7AB9";
paths = (
{
closed = 1;
nodes = (
"0 1096 LINE",
"345 1096 LINE",
"514 1661 LINE",
"345 2226 LINE",
"0 2226 LINE"
);
},
{
closed = 1;
nodes = (
"28 1150 LINE",
"28 2171 LINE",
"328 2171 LINE",
"481 1661 LINE",
"328 1150 LINE"
);
},
{
closed = 1;
nodes = (
"692 290 LINE",
"1031 290 LINE",
"1200 854 LINE",
"1031 1419 LINE",
"692 1419 LINE",
"523 854 LINE"
);
},
{
closed = 1;
nodes = (
"708 343 LINE",
"555 854 LINE",
"708 1364 LINE",
"1014 1364 LINE",
"1167 854 LINE",
"1014 343 LINE"
);
},
{
closed = 1;
nodes = (
"0 -480 LINE",
"345 -480 LINE",
"514 85 LINE",
"345 650 LINE",
"0 650 LINE"
);
},
{
closed = 1;
nodes = (
"28 -425 LINE",
"28 596 LINE",
"328 596 LINE",
"481 85 LINE",
"328 -425 LINE"
);
}
);
width = 1200;
}
);
note = uniE0CD;
unicode = E0CD;
},
{
color = 2;
glyphname = uniE0CE;
lastChange = "2020-05-18 20:42:35 +0000";
layers = (
{
layerId = "F8C3375C-B372-4BAE-A3FB-5A8DC7FA7AB9";
paths = (
{
closed = 1;
nodes = (
"4 995 LINE",
"469 995 LINE",
"776 2226 LINE",
"295 2226 LINE"
);
},
{
closed = 1;
nodes = (
"878 -452 LINE",
"950 -149 LINE",
"891 -146 LINE",
"856 -76 OFFCURVE",
"836 71 OFFCURVE",
"836 218 CURVE SMOOTH",
"836 353 OFFCURVE",
"855 501 OFFCURVE",
"892 584 CURVE",
"971 579 LINE",
"936 490 OFFCURVE",
"919 342 OFFCURVE",
"919 209 CURVE SMOOTH",
"919 58 OFFCURVE",
"939 -93 OFFCURVE",
"971 -149 CURVE",
"976 -155 OFFCURVE",
"981 -158 OFFCURVE",
"986 -158 CURVE",
"987 -157 LINE",
"1011 -156 OFFCURVE",
"1034 -85 OFFCURVE",
"1046 27 CURVE SMOOTH",
"1052 84 OFFCURVE",
"1055 145 OFFCURVE",
"1055 212 CURVE SMOOTH",
"1055 234 OFFCURVE",
"1054 259 OFFCURVE",
"1053 286 CURVE",
"1108 515 LINE",
"1036 519 LINE",
"1002 589 OFFCURVE",
"981 737 OFFCURVE",
"981 883 CURVE SMOOTH",
"981 1019 OFFCURVE",
"1000 1166 OFFCURVE",
"1037 1249 CURVE",
"1106 1244 LINE",
"1052 1464 LINE",
"1053 1488 OFFCURVE",
"1053 1509 OFFCURVE",
"1053 1524 CURVE SMOOTH",
"1053 1625 OFFCURVE",
"1046 1721 OFFCURVE",
"1033 1787 CURVE SMOOTH",
"1020 1853 OFFCURVE",
"1003 1895 OFFCURVE",
"985 1895 CURVE SMOOTH",
"976 1895 OFFCURVE",
"967 1886 OFFCURVE",
"958 1867 CURVE",
"929 1777 OFFCURVE",
"916 1642 OFFCURVE",
"916 1517 CURVE SMOOTH",
"916 1502 OFFCURVE",
"916 1486 OFFCURVE",
"916 1471 CURVE SMOOTH",
"920 1336 OFFCURVE",
"940 1208 OFFCURVE",
"969 1164 CURVE",
"888 1167 LINE",
"866 1212 OFFCURVE",
"849 1288 OFFCURVE",
"840 1376 CURVE SMOOTH",
"836 1423 OFFCURVE",
"833 1477 OFFCURVE",
"833 1531 CURVE SMOOTH",
"833 1622 OFFCURVE",
"840 1709 OFFCURVE",
"856 1789 CURVE SMOOTH",
"865 1831 OFFCURVE",
"876 1868 OFFCURVE",
"888 1897 CURVE",
"946 1894 LINE",
"876 2177 LINE",
"558 863 LINE"
);
},
{
closed = 1;
nodes = (
"1132 505 LINE",
"1157 506 OFFCURVE",
"1179 576 OFFCURVE",
"1191 689 CURVE SMOOTH",
"1197 746 OFFCURVE",
"1200 807 OFFCURVE",
"1200 874 CURVE SMOOTH",
"1200 1007 OFFCURVE",
"1187 1129 OFFCURVE",
"1166 1195 CURVE SMOOTH",
"1155 1228 OFFCURVE",
"1144 1244 OFFCURVE",
"1131 1244 CURVE SMOOTH",
"1124 1244 OFFCURVE",
"1117 1238 OFFCURVE",
"1110 1228 CURVE",
"1080 1138 OFFCURVE",
"1064 998 OFFCURVE",
"1064 871 CURVE SMOOTH",
"1064 856 OFFCURVE",
"1064 842 OFFCURVE",
"1065 829 CURVE SMOOTH",
"1068 691 OFFCURVE",
"1089 563 OFFCURVE",
"1117 514 CURVE",
"1114 514 LINE",
"1120 507 OFFCURVE",
"1125 503 OFFCURVE",
"1131 503 CURVE"
);
},
{
closed = 1;
nodes = (
"730 503 LINE",
"695 573 OFFCURVE",
"675 723 OFFCURVE",
"675 870 CURVE SMOOTH",
"675 1004 OFFCURVE",
"694 1148 OFFCURVE",
"731 1233 CURVE",
"810 1228 LINE",
"775 1138 OFFCURVE",
"758 990 OFFCURVE",
"758 856 CURVE SMOOTH",
"758 846 OFFCURVE",
"758 833 OFFCURVE",
"758 823 CURVE SMOOTH",
"762 682 OFFCURVE",
"782 547 OFFCURVE",
"811 499 CURVE"
);
},
{
closed = 1;
nodes = (
"291 -480 LINE",
"786 -480 LINE",
"465 751 LINE",
"0 751 LINE"
);
}
);
width = 1200;
}
);
note = uniE0CE;
unicode = E0CE;
},
{
color = 2;
glyphname = uniE0CF;
lastChange = "2020-05-18 20:42:40 +0000";
layers = (
{
layerId = "F8C3375C-B372-4BAE-A3FB-5A8DC7FA7AB9";
paths = (
{
closed = 1;
nodes = (
"601 1920 LINE",
"607 1920 OFFCURVE",
"614 1920 OFFCURVE",
"620 1921 CURVE SMOOTH",
"681 1930 OFFCURVE",
"738 1974 OFFCURVE",
"759 2039 CURVE",
"759 2032 LINE",
"763 2044 OFFCURVE",
"764 2058 OFFCURVE",
"764 2071 CURVE SMOOTH",
"764 2072 LINE SMOOTH",
"763 2157 OFFCURVE",
"690 2226 OFFCURVE",
"599 2226 CURVE SMOOTH",
"509 2226 OFFCURVE",
"435 2156 OFFCURVE",
"435 2071 CURVE SMOOTH",
"435 2054 OFFCURVE",
"438 2039 OFFCURVE",
"443 2025 CURVE",
"443 2023 LINE",
"482 1955 OFFCURVE",
"544 1920 OFFCURVE",
"601 1920 CURVE"
);
},
{
closed = 1;
nodes = (
"21 1495 LINE",
"605 777 LINE",
"1188 1499 LINE",
"1053 1661 LINE",
"1052 1528 LINE",
"1021 1451 OFFCURVE",
"955 1405 OFFCURVE",
"890 1405 CURVE SMOOTH",
"830 1405 OFFCURVE",
"766 1449 OFFCURVE",
"728 1531 CURVE",
"731 1709 LINE",
"770 1630 OFFCURVE",
"836 1592 OFFCURVE",
"895 1592 CURVE SMOOTH",
"962 1592 OFFCURVE",
"1029 1637 OFFCURVE",
"1053 1710 CURVE SMOOTH",
"1056 1721 OFFCURVE",
"1058 1732 OFFCURVE",
"1058 1743 CURVE",
"1057 1745 LINE",
"1057 1830 OFFCURVE",
"984 1898 OFFCURVE",
"893 1898 CURVE SMOOTH",
"883 1898 OFFCURVE",
"873 1897 OFFCURVE",
"860 1895 CURVE",
"759 2018 LINE",
"757 1856 LINE",
"726 1779 OFFCURVE",
"660 1733 OFFCURVE",
"595 1733 CURVE SMOOTH",
"535 1733 OFFCURVE",
"471 1776 OFFCURVE",
"433 1858 CURVE",
"435 2015 LINE",
"338 1892 LINE",
"327 1894 OFFCURVE",
"318 1895 OFFCURVE",
"311 1895 CURVE SMOOTH",
"220 1895 OFFCURVE",
"147 1826 OFFCURVE",
"147 1739 CURVE SMOOTH",
"147 1720 OFFCURVE",
"151 1701 OFFCURVE",
"159 1682 CURVE",
"199 1617 OFFCURVE",
"259 1584 OFFCURVE",
"314 1584 CURVE SMOOTH",
"322 1584 OFFCURVE",
"328 1585 OFFCURVE",
"335 1586 CURVE SMOOTH",
"395 1595 OFFCURVE",
"451 1639 OFFCURVE",
"471 1704 CURVE",
"469 1521 LINE",
"439 1444 OFFCURVE",
"373 1397 OFFCURVE",
"308 1397 CURVE SMOOTH",
"248 1397 OFFCURVE",
"183 1441 OFFCURVE",
"146 1524 CURVE",
"147 1652 LINE",
"21 1495 LINE"
);
},
{
closed = 1;
nodes = (
"603 1043 LINE",
"543 1043 OFFCURVE",
"478 1085 OFFCURVE",
"441 1168 CURVE",
"443 1346 LINE",
"483 1267 OFFCURVE",
"549 1229 OFFCURVE",
"609 1229 CURVE SMOOTH",
"613 1229 OFFCURVE",
"618 1230 OFFCURVE",
"622 1230 CURVE SMOOTH",
"686 1237 OFFCURVE",
"745 1283 OFFCURVE",
"766 1349 CURVE",
"764 1166 LINE",
"734 1089 OFFCURVE",
"667 1043 OFFCURVE",
"603 1043 CURVE"
);
},
{
closed = 1;
nodes = (
"654 568 LINE",
"654 -480 LINE",
"1200 176 LINE",
"1200 1292 LINE",
"654 568 LINE"
);
},
{
closed = 1;
nodes = (
"0 185 LINE",
"546 -470 LINE",
"546 578 LINE",
"3 1268 LINE",
"0 185 LINE"
);
}
);
width = 1200;
}
);
note = uniE0CF;
unicode = E0CF;
},
{
color = 2;
glyphname = uniE0D0;
lastChange = "2019-11-20 01:42:46 +0000";
layers = (
{
layerId = "F8C3375C-B372-4BAE-A3FB-5A8DC7FA7AB9";
paths = (
{
closed = 1;
nodes = (
"472 1504 LINE",
"423 1574 LINE SMOOTH",
"377 1640 OFFCURVE",
"315 1679 OFFCURVE",
"248 1679 CURVE SMOOTH",
"158 1679 OFFCURVE",
"77 1610 OFFCURVE",
"33 1501 CURVE SMOOTH",
"11 1446 OFFCURVE",
"0 1386 OFFCURVE",
"0 1321 CURVE SMOOTH",
"0 1225 OFFCURVE",
"25 1134 OFFCURVE",
"72 1068 CURVE SMOOTH",
"122 998 LINE SMOOTH",
"169 932 OFFCURVE",
"230 893 OFFCURVE",
"297 893 CURVE SMOOTH",
"386 893 OFFCURVE",
"467 962 OFFCURVE",
"511 1071 CURVE SMOOTH",
"533 1126 OFFCURVE",
"545 1186 OFFCURVE",
"545 1251 CURVE SMOOTH",
"545 1347 OFFCURVE",
"518 1438 OFFCURVE",
"472 1504 CURVE"
);
},
{
closed = 1;
nodes = (
"727 1068 LINE",
"777 998 LINE SMOOTH",
"824 932 OFFCURVE",
"885 893 OFFCURVE",
"952 893 CURVE SMOOTH",
"1041 893 OFFCURVE",
"1122 962 OFFCURVE",
"1166 1071 CURVE SMOOTH",
"1188 1126 OFFCURVE",
"1200 1186 OFFCURVE",
"1200 1251 CURVE SMOOTH",
"1200 1347 OFFCURVE",
"1173 1438 OFFCURVE",
"1127 1504 CURVE SMOOTH",
"1078 1574 LINE SMOOTH",
"1032 1640 OFFCURVE",
"970 1679 OFFCURVE",
"903 1679 CURVE SMOOTH",
"813 1679 OFFCURVE",
"732 1610 OFFCURVE",
"688 1501 CURVE SMOOTH",
"666 1446 OFFCURVE",
"655 1386 OFFCURVE",
"655 1321 CURVE SMOOTH",
"655 1257 OFFCURVE",
"668 1193 OFFCURVE",
"689 1141 CURVE SMOOTH",
"700 1114 OFFCURVE",
"712 1090 OFFCURVE",
"727 1068 CURVE"
);
},
{
closed = 1;
nodes = (
"113 1090 LINE",
"68 1155 OFFCURVE",
"45 1232 OFFCURVE",
"45 1321 CURVE SMOOTH",
"45 1413 OFFCURVE",
"74 1500 OFFCURVE",
"114 1555 CURVE SMOOTH",
"154 1610 OFFCURVE",
"204 1644 OFFCURVE",
"248 1644 CURVE SMOOTH",
"292 1644 OFFCURVE",
"343 1610 OFFCURVE",
"383 1553 CURVE SMOOTH",
"428 1488 OFFCURVE",
"450 1410 OFFCURVE",
"450 1321 CURVE SMOOTH",
"450 1230 OFFCURVE",
"422 1143 OFFCURVE",
"382 1088 CURVE SMOOTH",
"342 1033 OFFCURVE",
"291 998 OFFCURVE",
"248 998 CURVE SMOOTH",
"203 998 OFFCURVE",
"152 1033 OFFCURVE",
"113 1090 CURVE"
);
},
{
closed = 1;
nodes = (
"769 1555 LINE",
"809 1610 OFFCURVE",
"859 1644 OFFCURVE",
"903 1644 CURVE SMOOTH",
"947 1644 OFFCURVE",
"998 1610 OFFCURVE",
"1038 1553 CURVE SMOOTH",
"1083 1488 OFFCURVE",
"1106 1410 OFFCURVE",
"1106 1321 CURVE SMOOTH",
"1106 1230 OFFCURVE",
"1077 1143 OFFCURVE",
"1037 1088 CURVE SMOOTH",
"997 1033 OFFCURVE",
"946 998 OFFCURVE",
"903 998 CURVE SMOOTH",
"858 998 OFFCURVE",
"807 1033 OFFCURVE",
"768 1090 CURVE SMOOTH",
"723 1155 OFFCURVE",
"700 1232 OFFCURVE",
"700 1321 CURVE SMOOTH",
"700 1413 OFFCURVE",
"729 1500 OFFCURVE",
"769 1555 CURVE"
);
},
{
closed = 1;
nodes = (
"392 1567 LINE",
"392 1568 LINE",
"397 1561 LINE SMOOTH",
"398 1560 OFFCURVE",
"396 1562 OFFCURVE",
"396 1562 CURVE",
"392 1567 LINE"
);
},
{
closed = 1;
nodes = (
"1052 1561 LINE",
"1053 1560 OFFCURVE",
"1052 1562 OFFCURVE",
"1051 1562 CURVE",
"1047 1567 LINE",
"1049 1566 OFFCURVE",
"1049 1564 OFFCURVE",
"1052 1561 CURVE"
);
},
{
closed = 1;
nodes = (
"102 1567 LINE",
"54 1498 OFFCURVE",
"31 1416 OFFCURVE",
"31 1321 CURVE SMOOTH",
"31 1315 LINE",
"24 1325 LINE",
"25 1421 OFFCURVE",
"54 1507 OFFCURVE",
"102 1567 CURVE"
);
},
{
closed = 1;
nodes = (
"757 1567 LINE",
"709 1498 OFFCURVE",
"686 1416 OFFCURVE",
"686 1321 CURVE SMOOTH",
"686 1315 LINE",
"679 1325 LINE",
"680 1421 OFFCURVE",
"709 1507 OFFCURVE",
"757 1567 CURVE"
);
},
{
closed = 1;
nodes = (
"530 1276 LINE",
"495 1325 LINE",
"495 1378 OFFCURVE",
"487 1428 OFFCURVE",
"471 1475 CURVE",
"507 1418 OFFCURVE",
"526 1352 OFFCURVE",
"530 1276 CURVE"
);
},
{
closed = 1;
nodes = (
"1185 1276 LINE",
"1151 1326 LINE",
"1150 1378 OFFCURVE",
"1142 1428 OFFCURVE",
"1126 1475 CURVE",
"1162 1418 OFFCURVE",
"1181 1352 OFFCURVE",
"1185 1276 CURVE"
);
},
{
closed = 1;
nodes = (
"455 1444 LINE",
"466 1405 OFFCURVE",
"471 1364 OFFCURVE",
"471 1321 CURVE SMOOTH",
"471 1316 LINE",
"464 1325 LINE",
"464 1375 OFFCURVE",
"456 1422 OFFCURVE",
"441 1467 CURVE",
"446 1460 OFFCURVE",
"450 1452 OFFCURVE",
"455 1444 CURVE"
);
},
{
closed = 1;
nodes = (
"1110 1444 LINE",
"1121 1405 OFFCURVE",
"1126 1364 OFFCURVE",
"1126 1321 CURVE SMOOTH",
"1126 1316 LINE",
"1119 1326 LINE",
"1119 1375 OFFCURVE",
"1111 1422 OFFCURVE",
"1097 1467 CURVE",
"1101 1460 OFFCURVE",
"1106 1452 OFFCURVE",
"1110 1444 CURVE"
);
},
{
closed = 1;
nodes = (
"462 1012 LINE",
"421 952 OFFCURVE",
"361 913 OFFCURVE",
"300 913 CURVE",
"264 964 LINE",
"388 976 OFFCURVE",
"487 1119 OFFCURVE",
"495 1298 CURVE",
"531 1247 LINE",
"530 1156 OFFCURVE",
"503 1071 OFFCURVE",
"462 1012 CURVE"
);
},
{
closed = 1;
nodes = (
"464 1298 LINE",
"470 1289 LINE",
"464 1203 OFFCURVE",
"439 1132 OFFCURVE",
"393 1076 CURVE",
"437 1139 OFFCURVE",
"460 1213 OFFCURVE",
"464 1298 CURVE"
);
},
{
closed = 1;
nodes = (
"1070 959 LINE",
"1035 930 OFFCURVE",
"996 914 OFFCURVE",
"955 913 CURVE",
"919 964 LINE",
"1043 976 OFFCURVE",
"1142 1119 OFFCURVE",
"1150 1298 CURVE",
"1186 1247 LINE",
"1185 1126 OFFCURVE",
"1141 1018 OFFCURVE",
"1070 959 CURVE"
);
},
{
closed = 1;
nodes = (
"1048 1076 LINE",
"1092 1139 OFFCURVE",
"1115 1213 OFFCURVE",
"1119 1298 CURVE",
"1125 1289 LINE",
"1119 1203 OFFCURVE",
"1094 1132 OFFCURVE",
"1048 1076 CURVE"
);
},
{
closed = 1;
nodes = (
"25 1296 LINE",
"32 1285 LINE",
"37 1224 OFFCURVE",
"52 1169 OFFCURVE",
"77 1118 CURVE",
"81 1105 LINE",
"47 1160 OFFCURVE",
"28 1223 OFFCURVE",
"25 1296 CURVE"
);
},
{
closed = 1;
nodes = (
"680 1296 LINE",
"687 1285 LINE",
"692 1224 OFFCURVE",
"707 1169 OFFCURVE",
"732 1118 CURVE",
"736 1105 LINE",
"703 1160 OFFCURVE",
"683 1223 OFFCURVE",
"680 1296 CURVE"
);
},
{
closed = 1;
nodes = (
"141 998 LINE",
"173 975 OFFCURVE",
"208 964 OFFCURVE",
"245 963 CURVE",
"279 914 LINE",
"227 919 OFFCURVE",
"180 947 OFFCURVE",
"141 998 CURVE"
);
},
{
closed = 1;
nodes = (
"796 998 LINE",
"829 975 OFFCURVE",
"863 964 OFFCURVE",
"900 963 CURVE",
"934 914 LINE",
"882 919 OFFCURVE",
"835 947 OFFCURVE",
"796 998 CURVE"
);
},
{
closed = 1;
nodes = (
"472 430 LINE",
"423 500 LINE SMOOTH",
"377 566 OFFCURVE",
"315 605 OFFCURVE",
"248 605 CURVE SMOOTH",
"158 605 OFFCURVE",
"77 536 OFFCURVE",
"33 427 CURVE SMOOTH",
"11 372 OFFCURVE",
"0 312 OFFCURVE",
"0 247 CURVE SMOOTH",
"0 151 OFFCURVE",
"25 60 OFFCURVE",
"72 -6 CURVE SMOOTH",
"122 -76 LINE SMOOTH",
"169 -142 OFFCURVE",
"230 -181 OFFCURVE",
"297 -181 CURVE SMOOTH",
"386 -181 OFFCURVE",
"468 -114 OFFCURVE",
"511 -4 CURVE SMOOTH",
"533 52 OFFCURVE",
"545 112 OFFCURVE",
"545 177 CURVE SMOOTH",
"545 273 OFFCURVE",
"518 364 OFFCURVE",
"472 430 CURVE"
);
},
{
closed = 1;
nodes = (
"1127 430 LINE",
"1078 500 LINE SMOOTH",
"1032 566 OFFCURVE",
"970 605 OFFCURVE",
"903 605 CURVE SMOOTH",
"813 605 OFFCURVE",
"732 536 OFFCURVE",
"688 427 CURVE SMOOTH",
"666 372 OFFCURVE",
"655 312 OFFCURVE",
"655 247 CURVE SMOOTH",
"655 151 OFFCURVE",
"680 60 OFFCURVE",
"727 -6 CURVE SMOOTH",
"777 -76 LINE SMOOTH",
"824 -142 OFFCURVE",
"885 -181 OFFCURVE",
"952 -181 CURVE SMOOTH",
"1041 -181 OFFCURVE",
"1123 -114 OFFCURVE",
"1166 -4 CURVE SMOOTH",
"1188 52 OFFCURVE",
"1200 112 OFFCURVE",
"1200 177 CURVE SMOOTH",
"1200 241 OFFCURVE",
"1186 305 OFFCURVE",
"1166 358 CURVE SMOOTH",
"1156 384 OFFCURVE",
"1142 408 OFFCURVE",
"1127 430 CURVE"
);
},
{
closed = 1;
nodes = (
"113 16 LINE",
"68 81 OFFCURVE",
"45 158 OFFCURVE",
"45 247 CURVE SMOOTH",
"45 339 OFFCURVE",
"74 426 OFFCURVE",
"114 481 CURVE SMOOTH",
"154 536 OFFCURVE",
"204 570 OFFCURVE",
"248 570 CURVE SMOOTH",
"292 570 OFFCURVE",
"343 536 OFFCURVE",
"383 479 CURVE SMOOTH",
"428 414 OFFCURVE",
"450 336 OFFCURVE",
"450 247 CURVE SMOOTH",
"450 156 OFFCURVE",
"422 69 OFFCURVE",
"382 14 CURVE SMOOTH",
"342 -41 OFFCURVE",
"291 -76 OFFCURVE",
"248 -76 CURVE SMOOTH",
"203 -76 OFFCURVE",
"152 -41 OFFCURVE",
"113 16 CURVE"
);
},
{
closed = 1;
nodes = (
"768 16 LINE",
"723 81 OFFCURVE",
"700 158 OFFCURVE",
"700 247 CURVE SMOOTH",
"700 322 OFFCURVE",
"718 392 OFFCURVE",
"747 444 CURVE SMOOTH",
"761 469 OFFCURVE",
"777 492 OFFCURVE",
"794 511 CURVE SMOOTH",
"829 550 OFFCURVE",
"867 570 OFFCURVE",
"903 570 CURVE SMOOTH",
"947 570 OFFCURVE",
"998 536 OFFCURVE",
"1038 479 CURVE SMOOTH",
"1083 414 OFFCURVE",
"1106 336 OFFCURVE",
"1106 247 CURVE SMOOTH",
"1106 156 OFFCURVE",
"1077 69 OFFCURVE",
"1037 14 CURVE SMOOTH",
"997 -41 OFFCURVE",
"946 -76 OFFCURVE",
"903 -76 CURVE SMOOTH",
"874 -76 OFFCURVE",
"842 -61 OFFCURVE",
"811 -34 CURVE SMOOTH",
"795 -20 OFFCURVE",
"781 -3 OFFCURVE",
"768 16 CURVE"
);
},
{
closed = 1;
nodes = (
"392 494 LINE",
"397 487 LINE SMOOTH",
"398 486 OFFCURVE",
"396 488 OFFCURVE",
"396 488 CURVE",
"392 494 LINE"
);
},
{
closed = 1;
nodes = (
"34 344 LINE",
"46 403 OFFCURVE",
"71 453 OFFCURVE",
"102 493 CURVE",
"54 424 OFFCURVE",
"31 342 OFFCURVE",
"31 247 CURVE SMOOTH",
"31 241 LINE",
"24 251 LINE",
"25 283 OFFCURVE",
"28 314 OFFCURVE",
"34 344 CURVE"
);
},
{
closed = 1;
nodes = (
"757 493 LINE",
"709 424 OFFCURVE",
"686 342 OFFCURVE",
"686 247 CURVE SMOOTH",
"686 241 LINE",
"679 251 LINE",
"680 347 OFFCURVE",
"709 433 OFFCURVE",
"757 493 CURVE"
);
},
{
closed = 1;
nodes = (
"1049 492 LINE",
"1052 487 LINE SMOOTH",
"1053 486 OFFCURVE",
"1052 488 OFFCURVE",
"1051 488 CURVE",
"1049 492 LINE"
);
},
{
closed = 1;
nodes = (
"530 202 LINE",
"495 252 LINE",
"495 304 OFFCURVE",
"487 354 OFFCURVE",
"471 401 CURVE",
"507 344 OFFCURVE",
"526 278 OFFCURVE",
"530 202 CURVE"
);
},
{
closed = 1;
nodes = (
"1185 202 LINE",
"1151 252 LINE",
"1150 304 OFFCURVE",
"1142 354 OFFCURVE",
"1126 401 CURVE",
"1162 344 OFFCURVE",
"1181 278 OFFCURVE",
"1185 202 CURVE"
);
},
{
closed = 1;
nodes = (
"455 370 LINE",
"466 331 OFFCURVE",
"471 290 OFFCURVE",
"471 247 CURVE SMOOTH",
"471 242 LINE",
"464 251 LINE",
"464 301 OFFCURVE",
"456 348 OFFCURVE",
"441 393 CURVE",
"446 386 OFFCURVE",
"450 378 OFFCURVE",
"455 370 CURVE"
);
},
{
closed = 1;
nodes = (
"1110 370 LINE",
"1121 331 OFFCURVE",
"1126 290 OFFCURVE",
"1126 247 CURVE SMOOTH",
"1126 242 LINE",
"1119 252 LINE",
"1119 301 OFFCURVE",
"1111 348 OFFCURVE",
"1097 393 CURVE",
"1101 386 OFFCURVE",
"1106 378 OFFCURVE",
"1110 370 CURVE"
);
},
{
closed = 1;
nodes = (
"415 -116 LINE",
"380 -145 OFFCURVE",
"341 -160 OFFCURVE",
"300 -161 CURVE",
"264 -110 LINE",
"388 -98 OFFCURVE",
"487 45 OFFCURVE",
"495 224 CURVE",
"531 172 LINE",
"530 52 OFFCURVE",
"487 -57 OFFCURVE",
"415 -116 CURVE"
);
},
{
closed = 1;
nodes = (
"464 224 LINE",
"470 215 LINE",
"464 129 OFFCURVE",
"438 58 OFFCURVE",
"393 2 CURVE",
"437 65 OFFCURVE",
"460 139 OFFCURVE",
"464 224 CURVE"
);
},
{
closed = 1;
nodes = (
"1070 -116 LINE",
"1035 -145 OFFCURVE",
"996 -160 OFFCURVE",
"955 -161 CURVE",
"919 -110 LINE",
"1043 -98 OFFCURVE",
"1142 45 OFFCURVE",
"1150 224 CURVE",
"1186 173 LINE",
"1185 52 OFFCURVE",
"1142 -57 OFFCURVE",
"1070 -116 CURVE"
);
},
{
closed = 1;
nodes = (
"1119 224 LINE",
"1125 215 LINE",
"1119 129 OFFCURVE",
"1094 58 OFFCURVE",
"1048 2 CURVE",
"1092 65 OFFCURVE",
"1115 139 OFFCURVE",
"1119 224 CURVE"
);
},
{
closed = 1;
nodes = (
"25 222 LINE",
"32 211 LINE",
"37 150 OFFCURVE",
"52 95 OFFCURVE",
"77 44 CURVE",
"81 31 LINE",
"47 86 OFFCURVE",
"28 149 OFFCURVE",
"25 222 CURVE"
);
},
{
closed = 1;
nodes = (
"680 222 LINE",
"687 211 LINE",
"692 150 OFFCURVE",
"707 95 OFFCURVE",
"732 44 CURVE",
"736 31 LINE",
"703 86 OFFCURVE",
"683 149 OFFCURVE",
"680 222 CURVE"
);
},
{
closed = 1;
nodes = (
"141 -76 LINE",
"173 -99 OFFCURVE",
"208 -110 OFFCURVE",
"245 -111 CURVE",
"279 -160 LINE",
"227 -155 OFFCURVE",
"180 -127 OFFCURVE",
"141 -76 CURVE"
);
},
{
closed = 1;
nodes = (
"796 -76 LINE",
"829 -99 OFFCURVE",
"863 -110 OFFCURVE",
"900 -111 CURVE",
"934 -160 LINE",
"882 -155 OFFCURVE",
"835 -127 OFFCURVE",
"796 -76 CURVE"
);
}
);
width = 1200;
}
);
note = uniE0D0;
unicode = E0D0;
},
{
color = 2;
glyphname = uniE0D1;
lastChange = "2020-05-18 20:42:52 +0000";
layers = (
{
layerId = "F8C3375C-B372-4BAE-A3FB-5A8DC7FA7AB9";
paths = (
{
closed = 1;
nodes = (
"1167 1137 LINE SMOOTH",
"1183 1137 OFFCURVE",
"1200 1162 OFFCURVE",
"1200 1192 CURVE SMOOTH",
"1200 1876 LINE SMOOTH",
"1200 1903 OFFCURVE",
"1185 1932 OFFCURVE",
"1167 1932 CURVE SMOOTH",
"913 1932 LINE",
"913 2226 LINE",
"0 2226 LINE",
"0 -480 LINE",
"913 -480 LINE",
"913 -88 LINE",
"1165 -88 LINE SMOOTH",
"1180 -88 OFFCURVE",
"1197 -64 OFFCURVE",
"1197 -32 CURVE SMOOTH",
"1197 646 LINE SMOOTH",
"1197 671 OFFCURVE",
"1183 699 OFFCURVE",
"1165 699 CURVE SMOOTH",
"913 699 LINE",
"913 1137 LINE"
);
},
{
closed = 1;
nodes = (
"917 1836 LINE",
"1151 1836 LINE",
"1151 1692 LINE",
"917 1692 LINE"
);
},
{
closed = 1;
nodes = (
"917 590 LINE",
"1151 590 LINE",
"1151 447 LINE",
"917 447 LINE"
);
}
);
width = 1200;
}
);
note = uniE0D1;
unicode = E0D1;
},
{
color = 2;
glyphname = uniE0D2;
lastChange = "2020-05-18 20:43:06 +0000";
layers = (
{
layerId = "F8C3375C-B372-4BAE-A3FB-5A8DC7FA7AB9";
paths = (
{
closed = 1;
nodes = (
"0 993 LINE",
"381 993 LINE",
"1172 2218 LINE",
"0 2226 LINE"
);
},
{
closed = 1;
nodes = (
"0 -480 LINE",
"1200 -480 LINE",
"371 753 LINE",
"0 753 LINE"
);
}
);
width = 1200;
}
);
note = uniE0D2;
unicode = E0D2;
},
{
color = 2;
glyphname = uniE0D4;
lastChange = "2019-11-20 01:42:46 +0000";
layers = (
{
layerId = "F8C3375C-B372-4BAE-A3FB-5A8DC7FA7AB9";
paths = (
{
closed = 1;
nodes = (
"28 1996 LINE",
"818 861 LINE",
"1200 861 LINE",
"1200 2003 LINE",
"28 1996 LINE"
);
},
{
closed = 1;
nodes = (
"829 637 LINE",
"0 -505 LINE",
"1200 -505 LINE",
"1200 637 LINE",
"829 637 LINE"
);
}
);
width = 1200;
}
);
note = uniE0D4;
unicode = E0D4;
},
{
color = 2;
glyphname = uniE0A0.stypo;
lastChange = "2020-07-01 16:05:29 +0000";
layers = (
{
background = {
paths = (
{
closed = 1;
nodes = (
"168 642 LINE",
"444 820 LINE",
"444 1900 LINE",
"168 1900 LINE"
);
},
{
closed = 1;
nodes = (
"168 -480 LINE",
"444 -480 LINE",
"444 118 LINE SMOOTH",
"444 318 OFFCURVE",
"548 324 OFFCURVE",
"788 488 CURVE SMOOTH",
"946 596 OFFCURVE",
"1001 702 OFFCURVE",
"1001 894 CURVE SMOOTH",
"1001 1210 LINE",
"1210 1210 LINE",
"919 1552 LINE",
"626 1210 LINE",
"835 1210 LINE",
"835 950 LINE SMOOTH",
"835 825 OFFCURVE",
"789 735 OFFCURVE",
"669 662 CURVE SMOOTH",
"425 514 LINE SMOOTH",
"250 408 OFFCURVE",
"168 323 OFFCURVE",
"168 118 CURVE"
);
}
);
};
layerId = "F8C3375C-B372-4BAE-A3FB-5A8DC7FA7AB9";
paths = (
{
closed = 1;
nodes = (
"168 642 LINE",
"444 820 LINE",
"444 2000 LINE",
"168 2000 LINE"
);
},
{
closed = 1;
nodes = (
"168 -580 LINE",
"444 -580 LINE",
"444 8 LINE SMOOTH",
"444 267 OFFCURVE",
"527 310 OFFCURVE",
"788 488 CURVE SMOOTH",
"946 596 OFFCURVE",
"1001 702 OFFCURVE",
"1001 894 CURVE SMOOTH",
"1001 1210 LINE",
"1210 1210 LINE",
"919 1552 LINE",
"626 1210 LINE",
"835 1210 LINE",
"835 950 LINE SMOOTH",
"835 825 OFFCURVE",
"798 737 OFFCURVE",
"669 662 CURVE SMOOTH",
"216 399 OFFCURVE",
"168 308 OFFCURVE",
"168 8 CURVE"
);
}
);
width = 1200;
}
);
note = uniE0A0;
},
{
color = 2;
glyphname = uniE0B0.stypo;
lastChange = "2020-07-01 16:05:36 +0000";
layers = (
{
layerId = "F8C3375C-B372-4BAE-A3FB-5A8DC7FA7AB9";
paths = (
{
closed = 1;
nodes = (
"0 -580 LINE",
"1200 710 LINE",
"0 2000 LINE"
);
}
);
width = 1200;
}
);
note = uniE0B0;
},
{
color = 2;
glyphname = uniE0B1.stypo;
lastChange = "2020-07-01 16:05:41 +0000";
layers = (
{
layerId = "F8C3375C-B372-4BAE-A3FB-5A8DC7FA7AB9";
paths = (
{
closed = 1;
nodes = (
"103 -580 LINE",
"1200 710 LINE",
"103 2000 LINE",
"0 1893 LINE",
"1000 710 LINE",
"0 -472 LINE"
);
}
);
width = 1200;
}
);
note = uniE0B1;
},
{
color = 2;
glyphname = uniE0B2.stypo;
lastChange = "2020-07-01 16:05:45 +0000";
layers = (
{
layerId = "F8C3375C-B372-4BAE-A3FB-5A8DC7FA7AB9";
paths = (
{
closed = 1;
nodes = (
"0 710 LINE",
"1200 -580 LINE",
"1200 2000 LINE"
);
}
);
width = 1200;
}
);
note = uniE0B2;
},
{
color = 2;
glyphname = uniE0B3.stypo;
lastChange = "2020-07-01 16:05:49 +0000";
layers = (
{
layerId = "F8C3375C-B372-4BAE-A3FB-5A8DC7FA7AB9";
paths = (
{
closed = 1;
nodes = (
"200 710 LINE",
"1200 1893 LINE",
"1097 2000 LINE",
"0 710 LINE",
"1097 -580 LINE",
"1200 -472 LINE"
);
}
);
width = 1200;
}
);
note = uniE0B3;
},
{
color = 2;
glyphname = uniE0B4.stypo;
lastChange = "2020-07-01 16:06:19 +0000";
layers = (
{
layerId = "F8C3375C-B372-4BAE-A3FB-5A8DC7FA7AB9";
paths = (
{
closed = 1;
nodes = (
"0 -580 LINE",
"723 -580 OFFCURVE",
"1200 -8 OFFCURVE",
"1200 710 CURVE SMOOTH",
"1200 1427 OFFCURVE",
"723 2000 OFFCURVE",
"0 2000 CURVE"
);
}
);
width = 1200;
}
);
note = uniE0B4;
},
{
color = 2;
glyphname = uniE0B5.stypo;
lastChange = "2020-07-01 16:06:29 +0000";
layers = (
{
background = {
paths = (
{
closed = 1;
nodes = (
"238 -492 LINE",
"490 -401 OFFCURVE",
"706 -256 OFFCURVE",
"856 -91 CURVE SMOOTH",
"1005 74 OFFCURVE",
"1113 268 OFFCURVE",
"1163 460 CURVE SMOOTH",
"1187 556 OFFCURVE",
"1200 652 OFFCURVE",
"1200 747 CURVE SMOOTH",
"1200 842 OFFCURVE",
"1187 938 OFFCURVE",
"1163 1035 CURVE SMOOTH",
"1113 1227 OFFCURVE",
"1057 1386 OFFCURVE",
"697 1692 CURVE",
"727 1705 OFFCURVE",
"575 1804 OFFCURVE",
"238 1990 CURVE",
"0 1990 LINE",
"249 1898 OFFCURVE",
"465 1753 OFFCURVE",
"616 1587 CURVE SMOOTH",
"690 1504 OFFCURVE",
"756 1415 OFFCURVE",
"808 1321 CURVE SMOOTH",
"913 1132 OFFCURVE",
"962 938 OFFCURVE",
"962 747 CURVE SMOOTH",
"962 508 OFFCURVE",
"878 262 OFFCURVE",
"721 41 CURVE SMOOTH",
"563 -180 OFFCURVE",
"310 -377 OFFCURVE",
"0 -492 CURVE"
);
}
);
};
layerId = "F8C3375C-B372-4BAE-A3FB-5A8DC7FA7AB9";
paths = (
{
closed = 1;
nodes = (
"0 2000 LINE",
"612 1774 OFFCURVE",
"962 1241 OFFCURVE",
"962 710 CURVE SMOOTH",
"962 177 OFFCURVE",
"612 -356 OFFCURVE",
"0 -580 CURVE",
"238 -580 LINE",
"850 -362 OFFCURVE",
"1200 171 OFFCURVE",
"1200 710 CURVE SMOOTH",
"1200 1246 OFFCURVE",
"850 1780 OFFCURVE",
"238 2000 CURVE"
);
}
);
width = 1200;
}
);
note = uniE0B5;
},
{
color = 2;
glyphname = uniE0B6.stypo;
lastChange = "2020-07-01 16:06:14 +0000";
layers = (
{
layerId = "F8C3375C-B372-4BAE-A3FB-5A8DC7FA7AB9";
paths = (
{
closed = 1;
nodes = (
"477 2000 OFFCURVE",
"0 1427 OFFCURVE",
"0 710 CURVE SMOOTH",
"0 -8 OFFCURVE",
"477 -580 OFFCURVE",
"1200 -580 CURVE",
"1200 2000 LINE"
);
}
);
width = 1200;
}
);
note = uniE0B6;
},
{
color = 2;
glyphname = uniE0B7.stypo;
lastChange = "2020-07-01 16:06:41 +0000";
layers = (
{
layerId = "F8C3375C-B372-4BAE-A3FB-5A8DC7FA7AB9";
paths = (
{
closed = 1;
nodes = (
"350 1780 OFFCURVE",
"0 1246 OFFCURVE",
"0 710 CURVE SMOOTH",
"0 126 OFFCURVE",
"350 -344 OFFCURVE",
"962 -580 CURVE",
"1200 -580 LINE",
"588 -337 OFFCURVE",
"238 133 OFFCURVE",
"238 710 CURVE SMOOTH",
"238 1241 OFFCURVE",
"588 1774 OFFCURVE",
"1200 2000 CURVE",
"962 2000 LINE"
);
}
);
width = 1200;
}
);
note = uniE0B7;
},
{
color = 2;
glyphname = uniE0B8.stypo;
lastChange = "2020-07-01 16:06:46 +0000";
layers = (
{
layerId = "F8C3375C-B372-4BAE-A3FB-5A8DC7FA7AB9";
paths = (
{
closed = 1;
nodes = (
"0 -580 LINE",
"1200 -580 LINE",
"0 2000 LINE"
);
}
);
width = 1200;
}
);
note = uniE0B8;
},
{
color = 2;
glyphname = uniE0B9.stypo;
lastChange = "2020-07-01 16:06:51 +0000";
layers = (
{
layerId = "F8C3375C-B372-4BAE-A3FB-5A8DC7FA7AB9";
paths = (
{
closed = 1;
nodes = (
"1144 -580 LINE",
"1200 -580 LINE",
"56 2000 LINE",
"0 2000 LINE"
);
}
);
width = 1200;
}
);
note = uniE0B9;
},
{
color = 2;
glyphname = uniE0BA.stypo;
lastChange = "2020-07-01 16:06:54 +0000";
layers = (
{
layerId = "F8C3375C-B372-4BAE-A3FB-5A8DC7FA7AB9";
paths = (
{
closed = 1;
nodes = (
"0 -580 LINE",
"1200 -580 LINE",
"1200 2000 LINE"
);
}
);
width = 1200;
}
);
note = uniE0BA;
},
{
color = 2;
glyphname = uniE0BB.stypo;
lastChange = "2020-07-01 16:06:58 +0000";
layers = (
{
layerId = "F8C3375C-B372-4BAE-A3FB-5A8DC7FA7AB9";
paths = (
{
closed = 1;
nodes = (
"1144 2000 LINE",
"0 -580 LINE",
"56 -580 LINE",
"1200 2000 LINE"
);
}
);
width = 1200;
}
);
note = uniE0BB;
},
{
color = 2;
glyphname = uniE0BC.stypo;
lastChange = "2020-07-01 16:05:02 +0000";
layers = (
{
layerId = "F8C3375C-B372-4BAE-A3FB-5A8DC7FA7AB9";
paths = (
{
closed = 1;
nodes = (
"1200 2000 LINE",
"0 2000 LINE",
"0 -580 LINE"
);
}
);
width = 1200;
}
);
note = uniE0BC;
},
{
color = 2;
glyphname = uniE0BD.stypo;
lastChange = "2020-07-01 16:07:04 +0000";
layers = (
{
layerId = "F8C3375C-B372-4BAE-A3FB-5A8DC7FA7AB9";
paths = (
{
closed = 1;
nodes = (
"1144 2000 LINE",
"0 -580 LINE",
"56 -580 LINE",
"1200 2000 LINE"
);
}
);
width = 1200;
}
);
note = uniE0BD;
},
{
color = 2;
glyphname = uniE0BE.stypo;
lastChange = "2020-07-01 16:07:08 +0000";
layers = (
{
layerId = "F8C3375C-B372-4BAE-A3FB-5A8DC7FA7AB9";
paths = (
{
closed = 1;
nodes = (
"1200 2000 LINE",
"0 2000 LINE",
"1200 -580 LINE"
);
}
);
width = 1200;
}
);
note = uniE0BE;
},
{
color = 2;
glyphname = uniE0BF.stypo;
lastChange = "2020-07-01 16:07:12 +0000";
layers = (
{
layerId = "F8C3375C-B372-4BAE-A3FB-5A8DC7FA7AB9";
paths = (
{
closed = 1;
nodes = (
"1144 -580 LINE",
"1200 -580 LINE",
"56 2000 LINE",
"0 2000 LINE"
);
}
);
width = 1200;
}
);
note = uniE0BF;
},
{
color = 2;
glyphname = uniE0C0.stypo;
lastChange = "2020-07-01 16:07:31 +0000";
layers = (
{
layerId = "F8C3375C-B372-4BAE-A3FB-5A8DC7FA7AB9";
paths = (
{
closed = 1;
nodes = (
"10 -580 LINE",
"31 -580 OFFCURVE",
"56 -546 OFFCURVE",
"80 -502 CURVE SMOOTH",
"93 -476 OFFCURVE",
"106 -452 OFFCURVE",
"119 -426 CURVE SMOOTH",
"141 -384 OFFCURVE",
"166 -353 OFFCURVE",
"187 -353 CURVE SMOOTH",
"191 -353 OFFCURVE",
"195 -354 OFFCURVE",
"199 -356 CURVE SMOOTH",
"209 -364 OFFCURVE",
"221 -368 OFFCURVE",
"231 -368 CURVE SMOOTH",
"240 -368 OFFCURVE",
"248 -366 OFFCURVE",
"256 -362 CURVE SMOOTH",
"265 -357 OFFCURVE",
"275 -352 OFFCURVE",
"285 -346 CURVE SMOOTH",
"300 -336 OFFCURVE",
"327 -313 OFFCURVE",
"342 -304 CURVE SMOOTH",
"353 -297 OFFCURVE",
"363 -291 OFFCURVE",
"371 -286 CURVE",
"354 -276 OFFCURVE",
"322 -266 OFFCURVE",
"299 -251 CURVE SMOOTH",
"288 -243 OFFCURVE",
"277 -230 OFFCURVE",
"268 -218 CURVE SMOOTH",
"243 -181 OFFCURVE",
"226 -164 OFFCURVE",
"207 -164 CURVE SMOOTH",
"203 -164 OFFCURVE",
"198 -165 OFFCURVE",
"194 -167 CURVE SMOOTH",
"181 -171 OFFCURVE",
"167 -184 OFFCURVE",
"152 -205 CURVE",
"152 -186 LINE SMOOTH",
"149 -70 OFFCURVE",
"189 31 OFFCURVE",
"225 69 CURVE SMOOTH",
"236 82 OFFCURVE",
"249 87 OFFCURVE",
"261 87 CURVE SMOOTH",
"274 87 OFFCURVE",
"288 81 OFFCURVE",
"300 71 CURVE SMOOTH",
"312 61 OFFCURVE",
"324 50 OFFCURVE",
"337 36 CURVE SMOOTH",
"357 16 OFFCURVE",
"391 -24 OFFCURVE",
"410 -38 CURVE SMOOTH",
"424 -48 OFFCURVE",
"437 -53 OFFCURVE",
"448 -53 CURVE SMOOTH",
"508 -53 OFFCURVE",
"578 -22 OFFCURVE",
"625 51 CURVE",
"597 30 OFFCURVE",
"571 18 OFFCURVE",
"547 18 CURVE SMOOTH",
"536 18 OFFCURVE",
"526 21 OFFCURVE",
"516 25 CURVE SMOOTH",
"491 36 OFFCURVE",
"471 71 OFFCURVE",
"461 105 CURVE SMOOTH",
"451 137 OFFCURVE",
"434 191 OFFCURVE",
"421 221 CURVE SMOOTH",
"414 235 LINE",
"435 254 OFFCURVE",
"448 271 OFFCURVE",
"462 298 CURVE SMOOTH",
"464 302 OFFCURVE",
"469 313 OFFCURVE",
"476 328 CURVE SMOOTH",
"483 343 OFFCURVE",
"488 355 OFFCURVE",
"491 363 CURVE SMOOTH",
"497 374 OFFCURVE",
"503 378 OFFCURVE",
"512 378 CURVE SMOOTH",
"527 378 OFFCURVE",
"545 364 OFFCURVE",
"562 346 CURVE SMOOTH",
"577 329 OFFCURVE",
"607 294 OFFCURVE",
"624 275 CURVE SMOOTH",
"636 261 OFFCURVE",
"646 250 OFFCURVE",
"655 242 CURVE SMOOTH",
"672 227 OFFCURVE",
"690 221 OFFCURVE",
"705 221 CURVE SMOOTH",
"713 221 OFFCURVE",
"738 227 OFFCURVE",
"747 227 CURVE SMOOTH",
"769 227 OFFCURVE",
"812 271 OFFCURVE",
"842 304 CURVE SMOOTH",
"859 321 OFFCURVE",
"890 358 OFFCURVE",
"906 377 CURVE SMOOTH",
"925 399 OFFCURVE",
"952 431 OFFCURVE",
"969 453 CURVE",
"895 406 OFFCURVE",
"824 374 OFFCURVE",
"784 374 CURVE SMOOTH",
"774 374 OFFCURVE",
"766 376 OFFCURVE",
"760 380 CURVE",
"760 381 OFFCURVE",
"694 433 OFFCURVE",
"683 452 CURVE SMOOTH",
"656 491 OFFCURVE",
"620 564 OFFCURVE",
"590 604 CURVE SMOOTH",
"580 616 OFFCURVE",
"571 624 OFFCURVE",
"564 624 CURVE SMOOTH",
"563 624 OFFCURVE",
"562 624 OFFCURVE",
"560 622 CURVE SMOOTH",
"547 616 LINE",
"556 642 LINE SMOOTH",
"584 726 OFFCURVE",
"616 764 OFFCURVE",
"648 772 CURVE SMOOTH",
"667 779 OFFCURVE",
"675 781 OFFCURVE",
"699 783 CURVE SMOOTH",
"710 784 OFFCURVE",
"719 784 OFFCURVE",
"725 785 CURVE SMOOTH",
"769 792 OFFCURVE",
"802 819 OFFCURVE",
"847 877 CURVE",
"835 870 OFFCURVE",
"824 868 OFFCURVE",
"812 868 CURVE SMOOTH",
"802 868 OFFCURVE",
"792 870 OFFCURVE",
"783 876 CURVE SMOOTH",
"754 892 OFFCURVE",
"742 889 OFFCURVE",
"712 910 CURVE SMOOTH",
"694 921 OFFCURVE",
"679 940 OFFCURVE",
"667 967 CURVE SMOOTH",
"661 983 LINE",
"680 995 OFFCURVE",
"706 1021 OFFCURVE",
"730 1061 CURVE SMOOTH",
"736 1070 OFFCURVE",
"775 1141 OFFCURVE",
"777 1143 CURVE",
"809 1201 OFFCURVE",
"849 1232 OFFCURVE",
"884 1235 CURVE SMOOTH",
"890 1235 OFFCURVE",
"895 1236 OFFCURVE",
"901 1236 CURVE SMOOTH",
"932 1236 OFFCURVE",
"965 1229 OFFCURVE",
"994 1220 CURVE SMOOTH",
"1016 1211 OFFCURVE",
"1039 1207 OFFCURVE",
"1062 1207 CURVE SMOOTH",
"1076 1207 OFFCURVE",
"1089 1208 OFFCURVE",
"1102 1211 CURVE SMOOTH",
"1135 1220 OFFCURVE",
"1171 1258 OFFCURVE",
"1200 1328 CURVE",
"1174 1290 OFFCURVE",
"1146 1276 OFFCURVE",
"1121 1276 CURVE SMOOTH",
"1105 1276 OFFCURVE",
"1086 1283 OFFCURVE",
"1065 1302 CURVE SMOOTH",
"1032 1330 OFFCURVE",
"1009 1359 OFFCURVE",
"972 1410 CURVE SMOOTH",
"915 1489 OFFCURVE",
"858 1529 OFFCURVE",
"803 1529 CURVE SMOOTH",
"772 1529 OFFCURVE",
"741 1517 OFFCURVE",
"711 1492 CURVE SMOOTH",
"679 1465 OFFCURVE",
"636 1400 OFFCURVE",
"605 1357 CURVE SMOOTH",
"578 1319 OFFCURVE",
"545 1287 OFFCURVE",
"513 1287 CURVE SMOOTH",
"505 1287 OFFCURVE",
"497 1289 OFFCURVE",
"489 1294 CURVE SMOOTH",
"445 1315 OFFCURVE",
"418 1383 OFFCURVE",
"418 1460 CURVE SMOOTH",
"418 1526 OFFCURVE",
"437 1586 OFFCURVE",
"474 1619 CURVE SMOOTH",
"493 1640 OFFCURVE",
"521 1663 OFFCURVE",
"540 1681 CURVE SMOOTH",
"548 1689 OFFCURVE",
"557 1699 OFFCURVE",
"567 1712 CURVE SMOOTH",
"588 1737 OFFCURVE",
"605 1768 OFFCURVE",
"622 1810 CURVE",
"591 1761 OFFCURVE",
"562 1729 OFFCURVE",
"531 1729 CURVE SMOOTH",
"512 1729 OFFCURVE",
"493 1741 OFFCURVE",
"471 1767 CURVE SMOOTH",
"448 1794 OFFCURVE",
"427 1806 OFFCURVE",
"407 1806 CURVE SMOOTH",
"391 1806 OFFCURVE",
"377 1799 OFFCURVE",
"363 1785 CURVE SMOOTH",
"347 1768 OFFCURVE",
"328 1741 OFFCURVE",
"308 1702 CURVE SMOOTH",
"297 1681 OFFCURVE",
"277 1644 OFFCURVE",
"259 1614 CURVE SMOOTH",
"250 1597 OFFCURVE",
"243 1587 OFFCURVE",
"237 1579 CURVE SMOOTH",
"230 1571 OFFCURVE",
"222 1563 OFFCURVE",
"214 1552 CURVE SMOOTH",
"201 1536 OFFCURVE",
"188 1528 OFFCURVE",
"176 1528 CURVE SMOOTH",
"159 1528 OFFCURVE",
"144 1544 OFFCURVE",
"134 1581 CURVE SMOOTH",
"130 1592 OFFCURVE",
"129 1603 OFFCURVE",
"129 1615 CURVE SMOOTH",
"129 1633 OFFCURVE",
"134 1651 OFFCURVE",
"143 1670 CURVE SMOOTH",
"150 1682 OFFCURVE",
"163 1701 OFFCURVE",
"182 1725 CURVE SMOOTH",
"201 1749 OFFCURVE",
"213 1768 OFFCURVE",
"216 1779 CURVE SMOOTH",
"224 1806 OFFCURVE",
"252 1896 OFFCURVE",
"263 1917 CURVE SMOOTH",
"279 1950 OFFCURVE",
"294 1969 OFFCURVE",
"321 1966 CURVE",
"303 1988 OFFCURVE",
"285 2002 OFFCURVE",
"267 2002 CURVE SMOOTH",
"241 2002 OFFCURVE",
"216 1980 OFFCURVE",
"190 1935 CURVE SMOOTH",
"172 1905 OFFCURVE",
"160 1890 OFFCURVE",
"142 1869 CURVE SMOOTH",
"132 1856 OFFCURVE",
"124 1849 OFFCURVE",
"116 1846 CURVE SMOOTH",
"110 1844 OFFCURVE",
"104 1843 OFFCURVE",
"98 1843 CURVE SMOOTH",
"78 1843 OFFCURVE",
"60 1859 OFFCURVE",
"43 1906 CURVE SMOOTH",
"32 1936 OFFCURVE",
"29 1957 OFFCURVE",
"20 1974 CURVE SMOOTH",
"14 1983 OFFCURVE",
"10 1983 OFFCURVE",
"1 1984 CURVE",
"1 1960 OFFCURVE",
"0 1933 OFFCURVE",
"0 1903 CURVE SMOOTH",
"0 1846 OFFCURVE",
"1 1772 OFFCURVE",
"2 1688 CURVE SMOOTH",
"3 1561 OFFCURVE",
"3 1477 OFFCURVE",
"4 1441 CURVE SMOOTH",
"4 987 OFFCURVE",
"2 -369 OFFCURVE",
"1 -578 CURVE",
"4 -580 OFFCURVE",
"7 -580 OFFCURVE",
"10 -580 CURVE"
);
}
);
width = 1200;
}
);
note = uniE0C0;
},
{
color = 2;
glyphname = uniE0C1.stypo;
lastChange = "2020-07-01 16:07:36 +0000";
layers = (
{
background = {
paths = (
{
closed = 1;
nodes = (
"40 -492 OFFCURVE",
"66 -463 OFFCURVE",
"88 -423 CURVE SMOOTH",
"101 -400 OFFCURVE",
"114 -376 OFFCURVE",
"126 -353 CURVE SMOOTH",
"147 -312 OFFCURVE",
"169 -283 OFFCURVE",
"187 -283 CURVE SMOOTH",
"189 -283 OFFCURVE",
"192 -284 OFFCURVE",
"195 -285 CURVE SMOOTH",
"205 -292 OFFCURVE",
"216 -295 OFFCURVE",
"227 -295 CURVE SMOOTH",
"235 -295 OFFCURVE",
"244 -293 OFFCURVE",
"251 -290 CURVE SMOOTH",
"260 -287 OFFCURVE",
"269 -282 OFFCURVE",
"279 -277 CURVE SMOOTH",
"294 -268 OFFCURVE",
"319 -248 OFFCURVE",
"334 -239 CURVE SMOOTH",
"344 -232 OFFCURVE",
"353 -227 OFFCURVE",
"360 -223 CURVE SMOOTH",
"361 -222 OFFCURVE",
"363 -222 OFFCURVE",
"364 -222 CURVE",
"399 -110 LINE",
"382 -101 OFFCURVE",
"352 -90 OFFCURVE",
"330 -76 CURVE SMOOTH",
"319 -69 OFFCURVE",
"309 -59 OFFCURVE",
"301 -47 CURVE SMOOTH",
"276 -13 OFFCURVE",
"260 4 OFFCURVE",
"240 4 CURVE SMOOTH",
"225 4 OFFCURVE",
"209 -5 OFFCURVE",
"191 -26 CURVE",
"190 21 OFFCURVE",
"195 56 OFFCURVE",
"207 79 CURVE SMOOTH",
"213 91 OFFCURVE",
"219 100 OFFCURVE",
"226 107 CURVE SMOOTH",
"236 115 OFFCURVE",
"245 119 OFFCURVE",
"255 119 CURVE SMOOTH",
"270 119 OFFCURVE",
"286 109 OFFCURVE",
"305 92 CURVE SMOOTH",
"320 79 OFFCURVE",
"335 65 OFFCURVE",
"348 51 CURVE SMOOTH",
"374 22 OFFCURVE",
"408 -6 OFFCURVE",
"432 -7 CURVE SMOOTH",
"503 -9 OFFCURVE",
"562 23 OFFCURVE",
"610 88 CURVE SMOOTH",
"612 91 OFFCURVE",
"615 94 OFFCURVE",
"617 97 CURVE SMOOTH",
"629 114 OFFCURVE",
"635 145 OFFCURVE",
"638 171 CURVE",
"638 180 OFFCURVE",
"639 196 OFFCURVE",
"639 199 CURVE",
"612 180 OFFCURVE",
"588 171 OFFCURVE",
"566 171 CURVE SMOOTH",
"556 171 OFFCURVE",
"547 172 OFFCURVE",
"538 176 CURVE SMOOTH",
"514 187 OFFCURVE",
"499 213 OFFCURVE",
"486 250 CURVE SMOOTH",
"483 259 OFFCURVE",
"479 272 OFFCURVE",
"474 287 CURVE SMOOTH",
"461 325 LINE",
"464 331 OFFCURVE",
"475 352 OFFCURVE",
"491 387 CURVE",
"493 388 OFFCURVE",
"494 388 OFFCURVE",
"496 388 CURVE SMOOTH",
"514 388 OFFCURVE",
"549 353 OFFCURVE",
"582 317 CURVE SMOOTH",
"605 292 OFFCURVE",
"622 275 OFFCURVE",
"633 264 CURVE SMOOTH",
"650 250 OFFCURVE",
"667 244 OFFCURVE",
"685 244 CURVE SMOOTH",
"691 244 OFFCURVE",
"697 245 OFFCURVE",
"704 246 CURVE SMOOTH",
"717 249 OFFCURVE",
"724 250 OFFCURVE",
"724 250 CURVE SMOOTH",
"738 250 OFFCURVE",
"763 266 OFFCURVE",
"783 284 CURVE SMOOTH",
"797 296 OFFCURVE",
"818 318 OFFCURVE",
"834 335 CURVE SMOOTH",
"849 351 OFFCURVE",
"873 379 OFFCURVE",
"888 396 CURVE SMOOTH",
"904 415 OFFCURVE",
"927 441 OFFCURVE",
"941 458 CURVE SMOOTH",
"944 461 LINE",
"951 488 LINE SMOOTH",
"955 506 OFFCURVE",
"960 524 OFFCURVE",
"964 542 CURVE SMOOTH",
"971 568 LINE",
"902 527 OFFCURVE",
"832 497 OFFCURVE",
"795 497 CURVE SMOOTH",
"786 497 OFFCURVE",
"779 498 OFFCURVE",
"774 502 CURVE",
"763 516 OFFCURVE",
"718 540 OFFCURVE",
"700 566 CURVE SMOOTH",
"679 597 OFFCURVE",
"646 656 OFFCURVE",
"621 692 CURVE SMOOTH",
"610 708 OFFCURVE",
"600 718 OFFCURVE",
"592 723 CURVE",
"608 745 OFFCURVE",
"629 750 OFFCURVE",
"651 755 CURVE SMOOTH",
"656 756 OFFCURVE",
"665 757 OFFCURVE",
"678 758 CURVE SMOOTH",
"690 759 OFFCURVE",
"699 760 OFFCURVE",
"704 761 CURVE SMOOTH",
"747 768 OFFCURVE",
"783 798 OFFCURVE",
"828 851 CURVE SMOOTH",
"838 863 OFFCURVE",
"846 903 OFFCURVE",
"850 927 CURVE SMOOTH",
"852 938 OFFCURVE",
"853 945 OFFCURVE",
"854 949 CURVE SMOOTH",
"854 953 OFFCURVE",
"854 956 OFFCURVE",
"854 958 CURVE",
"853 957 OFFCURVE",
"852 957 OFFCURVE",
"851 957 CURVE SMOOTH",
"841 953 OFFCURVE",
"831 951 OFFCURVE",
"822 951 CURVE SMOOTH",
"813 951 OFFCURVE",
"804 953 OFFCURVE",
"796 957 CURVE SMOOTH",
"782 964 OFFCURVE",
"755 972 OFFCURVE",
"734 984 CURVE SMOOTH",
"724 989 OFFCURVE",
"714 997 OFFCURVE",
"706 1006 CURVE",
"715 1019 OFFCURVE",
"735 1052 OFFCURVE",
"766 1104 CURVE SMOOTH",
"789 1142 OFFCURVE",
"819 1161 OFFCURVE",
"849 1161 CURVE SMOOTH",
"881 1161 OFFCURVE",
"922 1153 OFFCURVE",
"959 1142 CURVE SMOOTH",
"972 1138 OFFCURVE",
"987 1136 OFFCURVE",
"1001 1136 CURVE SMOOTH",
"1025 1136 OFFCURVE",
"1049 1141 OFFCURVE",
"1071 1151 CURVE SMOOTH",
"1107 1166 OFFCURVE",
"1148 1213 OFFCURVE",
"1182 1288 CURVE SMOOTH",
"1194 1315 OFFCURVE",
"1200 1336 OFFCURVE",
"1200 1349 CURVE SMOOTH",
"1200 1355 OFFCURVE",
"1200 1360 OFFCURVE",
"1196 1363 CURVE",
"1191 1364 OFFCURVE",
"1188 1365 OFFCURVE",
"1188 1365 CURVE",
"1168 1339 OFFCURVE",
"1147 1326 OFFCURVE",
"1125 1326 CURVE SMOOTH",
"1113 1326 OFFCURVE",
"1101 1329 OFFCURVE",
"1089 1336 CURVE SMOOTH",
"1053 1356 OFFCURVE",
"1021 1389 OFFCURVE",
"979 1446 CURVE SMOOTH",
"924 1518 OFFCURVE",
"870 1555 OFFCURVE",
"817 1557 CURVE SMOOTH",
"785 1558 OFFCURVE",
"753 1546 OFFCURVE",
"722 1522 CURVE SMOOTH",
"700 1506 OFFCURVE",
"676 1477 OFFCURVE",
"658 1453 CURVE SMOOTH",
"641 1428 OFFCURVE",
"618 1397 OFFCURVE",
"602 1377 CURVE SMOOTH",
"583 1355 OFFCURVE",
"557 1336 OFFCURVE",
"538 1336 CURVE SMOOTH",
"530 1336 OFFCURVE",
"522 1337 OFFCURVE",
"512 1341 CURVE SMOOTH",
"483 1354 OFFCURVE",
"461 1394 OFFCURVE",
"452 1436 CURVE SMOOTH",
"448 1451 OFFCURVE",
"446 1466 OFFCURVE",
"446 1482 CURVE SMOOTH",
"446 1487 OFFCURVE",
"447 1492 OFFCURVE",
"447 1497 CURVE SMOOTH",
"448 1502 OFFCURVE",
"448 1506 OFFCURVE",
"449 1510 CURVE",
"453 1517 OFFCURVE",
"459 1524 OFFCURVE",
"466 1530 CURVE SMOOTH",
"483 1546 OFFCURVE",
"510 1567 OFFCURVE",
"529 1585 CURVE SMOOTH",
"537 1592 OFFCURVE",
"547 1603 OFFCURVE",
"559 1616 CURVE SMOOTH",
"582 1643 OFFCURVE",
"604 1682 OFFCURVE",
"626 1735 CURVE SMOOTH",
"638 1763 OFFCURVE",
"643 1782 OFFCURVE",
"643 1794 CURVE SMOOTH",
"643 1800 OFFCURVE",
"642 1804 OFFCURVE",
"638 1806 CURVE",
"632 1805 OFFCURVE",
"629 1805 OFFCURVE",
"629 1805 CURVE",
"628 1804 OFFCURVE",
"627 1802 OFFCURVE",
"626 1800 CURVE SMOOTH",
"601 1764 OFFCURVE",
"577 1740 OFFCURVE",
"551 1740 CURVE SMOOTH",
"534 1740 OFFCURVE",
"516 1750 OFFCURVE",
"496 1774 CURVE SMOOTH",
"473 1799 OFFCURVE",
"453 1811 OFFCURVE",
"433 1811 CURVE SMOOTH",
"417 1811 OFFCURVE",
"401 1803 OFFCURVE",
"384 1788 CURVE SMOOTH",
"366 1770 OFFCURVE",
"345 1741 OFFCURVE",
"323 1701 CURVE SMOOTH",
"301 1665 OFFCURVE",
"276 1611 OFFCURVE",
"249 1582 CURVE SMOOTH",
"236 1567 OFFCURVE",
"222 1555 OFFCURVE",
"208 1555 CURVE SMOOTH",
"195 1555 OFFCURVE",
"182 1567 OFFCURVE",
"172 1601 CURVE SMOOTH",
"171 1604 OFFCURVE",
"170 1606 OFFCURVE",
"170 1609 CURVE",
"196 1636 OFFCURVE",
"219 1658 OFFCURVE",
"242 1726 CURVE SMOOTH",
"254 1761 OFFCURVE",
"269 1811 OFFCURVE",
"274 1826 CURVE SMOOTH",
"282 1844 OFFCURVE",
"293 1845 OFFCURVE",
"310 1845 CURVE SMOOTH",
"314 1845 LINE",
"352 1956 LINE",
"334 1979 OFFCURVE",
"316 1990 OFFCURVE",
"296 1990 CURVE SMOOTH",
"269 1990 OFFCURVE",
"241 1966 OFFCURVE",
"211 1919 CURVE SMOOTH",
"197 1896 OFFCURVE",
"168 1852 OFFCURVE",
"149 1846 CURVE SMOOTH",
"144 1844 OFFCURVE",
"139 1843 OFFCURVE",
"134 1843 CURVE SMOOTH",
"116 1843 OFFCURVE",
"101 1857 OFFCURVE",
"84 1901 CURVE SMOOTH",
"75 1927 OFFCURVE",
"70 1948 OFFCURVE",
"61 1963 CURVE SMOOTH",
"55 1974 OFFCURVE",
"51 1974 OFFCURVE",
"41 1975 CURVE SMOOTH",
"33 1975 OFFCURVE",
"18 1945 OFFCURVE",
"10 1920 CURVE SMOOTH",
"7 1911 OFFCURVE",
"5 1903 OFFCURVE",
"4 1896 CURVE SMOOTH",
"2 1886 OFFCURVE",
"0 1878 OFFCURVE",
"0 1872 CURVE SMOOTH",
"0 1866 OFFCURVE",
"2 1862 OFFCURVE",
"5 1862 CURVE SMOOTH",
"15 1862 OFFCURVE",
"21 1860 OFFCURVE",
"26 1845 CURVE SMOOTH",
"27 1840 OFFCURVE",
"36 1814 OFFCURVE",
"42 1795 CURVE",
"59 1751 OFFCURVE",
"80 1731 OFFCURVE",
"99 1731 CURVE SMOOTH",
"110 1731 OFFCURVE",
"122 1737 OFFCURVE",
"135 1749 CURVE SMOOTH",
"159 1770 OFFCURVE",
"176 1793 OFFCURVE",
"199 1830 CURVE SMOOTH",
"220 1862 OFFCURVE",
"240 1878 OFFCURVE",
"262 1878 CURVE SMOOTH",
"264 1878 OFFCURVE",
"266 1877 OFFCURVE",
"269 1877 CURVE",
"253 1842 OFFCURVE",
"234 1778 OFFCURVE",
"224 1753 CURVE",
"204 1722 OFFCURVE",
"186 1712 OFFCURVE",
"163 1668 CURVE SMOOTH",
"158 1659 OFFCURVE",
"153 1650 OFFCURVE",
"149 1639 CURVE SMOOTH",
"133 1599 OFFCURVE",
"125 1564 OFFCURVE",
"125 1534 CURVE SMOOTH",
"125 1520 OFFCURVE",
"126 1508 OFFCURVE",
"130 1496 CURVE SMOOTH",
"140 1459 OFFCURVE",
"155 1446 OFFCURVE",
"171 1446 CURVE SMOOTH",
"182 1446 OFFCURVE",
"194 1452 OFFCURVE",
"206 1461 CURVE SMOOTH",
"219 1471 OFFCURVE",
"239 1496 OFFCURVE",
"251 1512 CURVE SMOOTH",
"262 1527 OFFCURVE",
"279 1554 OFFCURVE",
"299 1591 CURVE SMOOTH",
"315 1619 LINE SMOOTH",
"344 1670 OFFCURVE",
"369 1700 OFFCURVE",
"397 1700 CURVE SMOOTH",
"415 1700 OFFCURVE",
"434 1689 OFFCURVE",
"456 1664 CURVE SMOOTH",
"467 1651 OFFCURVE",
"478 1641 OFFCURVE",
"489 1635 CURVE",
"476 1622 OFFCURVE",
"464 1606 OFFCURVE",
"453 1586 CURVE SMOOTH",
"444 1569 OFFCURVE",
"435 1549 OFFCURVE",
"427 1527 CURVE SMOOTH",
"410 1479 OFFCURVE",
"402 1434 OFFCURVE",
"402 1390 CURVE SMOOTH",
"402 1310 OFFCURVE",
"430 1249 OFFCURVE",
"475 1229 CURVE SMOOTH",
"482 1225 OFFCURVE",
"490 1223 OFFCURVE",
"498 1223 CURVE SMOOTH",
"518 1223 OFFCURVE",
"539 1235 OFFCURVE",
"556 1249 CURVE SMOOTH",
"568 1259 OFFCURVE",
"580 1272 OFFCURVE",
"594 1289 CURVE SMOOTH",
"614 1313 OFFCURVE",
"646 1360 OFFCURVE",
"663 1381 CURVE SMOOTH",
"675 1396 OFFCURVE",
"685 1406 OFFCURVE",
"693 1413 CURVE SMOOTH",
"721 1434 OFFCURVE",
"749 1445 OFFCURVE",
"778 1445 CURVE SMOOTH",
"830 1445 OFFCURVE",
"884 1409 OFFCURVE",
"939 1336 CURVE SMOOTH",
"959 1310 OFFCURVE",
"975 1289 OFFCURVE",
"989 1274 CURVE",
"986 1276 OFFCURVE",
"979 1277 OFFCURVE",
"976 1278 CURVE SMOOTH",
"948 1286 OFFCURVE",
"940 1287 OFFCURVE",
"913 1290 CURVE SMOOTH",
"900 1291 OFFCURVE",
"889 1290 OFFCURVE",
"879 1287 CURVE SMOOTH",
"861 1280 OFFCURVE",
"834 1268 OFFCURVE",
"811 1240 CURVE SMOOTH",
"799 1226 OFFCURVE",
"787 1209 OFFCURVE",
"776 1189 CURVE SMOOTH",
"765 1172 OFFCURVE",
"750 1144 OFFCURVE",
"740 1128 CURVE SMOOTH",
"726 1107 LINE SMOOTH",
"713 1088 OFFCURVE",
"692 1066 OFFCURVE",
"673 1054 CURVE",
"662 1032 LINE SMOOTH",
"655 1018 OFFCURVE",
"648 1002 OFFCURVE",
"642 984 CURVE SMOOTH",
"638 972 OFFCURVE",
"636 962 OFFCURVE",
"636 955 CURVE SMOOTH",
"636 951 OFFCURVE",
"637 948 OFFCURVE",
"638 945 CURVE SMOOTH",
"644 931 LINE SMOOTH",
"657 904 OFFCURVE",
"675 883 OFFCURVE",
"700 870 CURVE",
"688 869 OFFCURVE",
"665 867 OFFCURVE",
"655 861 CURVE SMOOTH",
"640 852 LINE SMOOTH",
"632 848 OFFCURVE",
"627 843 OFFCURVE",
"623 838 CURVE SMOOTH",
"591 798 OFFCURVE",
"577 778 OFFCURVE",
"549 700 CURVE SMOOTH",
"540 676 LINE SMOOTH",
"534 660 OFFCURVE",
"529 646 OFFCURVE",
"526 633 CURVE SMOOTH",
"525 626 OFFCURVE",
"524 620 OFFCURVE",
"524 616 CURVE SMOOTH",
"524 610 OFFCURVE",
"525 607 OFFCURVE",
"529 607 CURVE SMOOTH",
"530 607 OFFCURVE",
"531 607 OFFCURVE",
"532 608 CURVE SMOOTH",
"546 613 LINE SMOOTH",
"557 617 OFFCURVE",
"585 575 OFFCURVE",
"616 525 CURVE SMOOTH",
"637 492 OFFCURVE",
"651 470 OFFCURVE",
"660 457 CURVE SMOOTH",
"675 435 OFFCURVE",
"697 415 OFFCURVE",
"711 407 CURVE SMOOTH",
"725 398 LINE SMOOTH",
"730 395 OFFCURVE",
"733 392 OFFCURVE",
"735 391 CURVE SMOOTH",
"742 387 OFFCURVE",
"750 384 OFFCURVE",
"760 384 CURVE SMOOTH",
"774 384 OFFCURVE",
"791 388 OFFCURVE",
"812 395 CURVE",
"788 373 OFFCURVE",
"770 362 OFFCURVE",
"759 362 CURVE SMOOTH",
"743 362 OFFCURVE",
"730 357 OFFCURVE",
"715 357 CURVE SMOOTH",
"703 357 OFFCURVE",
"689 361 OFFCURVE",
"673 375 CURVE SMOOTH",
"657 388 OFFCURVE",
"634 417 OFFCURVE",
"617 439 CURVE SMOOTH",
"608 450 OFFCURVE",
"599 460 OFFCURVE",
"589 471 CURVE SMOOTH",
"572 489 OFFCURVE",
"555 503 OFFCURVE",
"538 503 CURVE SMOOTH",
"529 503 OFFCURVE",
"519 498 OFFCURVE",
"510 487 CURVE SMOOTH",
"505 481 OFFCURVE",
"500 473 OFFCURVE",
"495 462 CURVE SMOOTH",
"485 441 OFFCURVE",
"471 407 OFFCURVE",
"462 394 CURVE SMOOTH",
"458 389 OFFCURVE",
"455 385 OFFCURVE",
"452 382 CURVE SMOOTH",
"448 379 OFFCURVE",
"443 375 OFFCURVE",
"435 368 CURVE",
"423 347 LINE SMOOTH",
"416 332 OFFCURVE",
"409 316 OFFCURVE",
"403 298 CURVE SMOOTH",
"400 287 OFFCURVE",
"398 278 OFFCURVE",
"398 271 CURVE SMOOTH",
"398 267 OFFCURVE",
"399 263 OFFCURVE",
"400 260 CURVE SMOOTH",
"407 247 LINE SMOOTH",
"413 232 OFFCURVE",
"422 209 OFFCURVE",
"433 176 CURVE SMOOTH",
"444 143 OFFCURVE",
"453 120 OFFCURVE",
"460 106 CURVE",
"442 111 OFFCURVE",
"417 134 OFFCURVE",
"397 159 CURVE SMOOTH",
"387 171 OFFCURVE",
"375 183 OFFCURVE",
"363 195 CURVE SMOOTH",
"339 217 OFFCURVE",
"320 234 OFFCURVE",
"295 234 CURVE SMOOTH",
"280 234 OFFCURVE",
"265 227 OFFCURVE",
"252 214 CURVE SMOOTH",
"236 199 OFFCURVE",
"221 176 OFFCURVE",
"206 144 CURVE SMOOTH",
"166 63 OFFCURVE",
"145 -38 OFFCURVE",
"147 -119 CURVE SMOOTH",
"147 -137 LINE SMOOTH",
"147 -144 OFFCURVE",
"149 -147 OFFCURVE",
"152 -147 CURVE SMOOTH",
"154 -147 OFFCURVE",
"157 -145 OFFCURVE",
"160 -140 CURVE SMOOTH",
"175 -119 OFFCURVE",
"189 -109 OFFCURVE",
"202 -109 CURVE SMOOTH",
"219 -109 OFFCURVE",
"237 -124 OFFCURVE",
"260 -156 CURVE SMOOTH",
"266 -165 OFFCURVE",
"273 -173 OFFCURVE",
"281 -179 CURVE",
"274 -181 OFFCURVE",
"268 -182 OFFCURVE",
"262 -182 CURVE SMOOTH",
"251 -182 OFFCURVE",
"242 -179 OFFCURVE",
"233 -174 CURVE SMOOTH",
"228 -171 OFFCURVE",
"223 -170 OFFCURVE",
"218 -170 CURVE SMOOTH",
"195 -170 OFFCURVE",
"169 -196 OFFCURVE",
"148 -233 CURVE SMOOTH",
"135 -256 OFFCURVE",
"122 -279 OFFCURVE",
"110 -303 CURVE SMOOTH",
"87 -345 OFFCURVE",
"64 -378 OFFCURVE",
"47 -378 CURVE SMOOTH",
"45 -378 OFFCURVE",
"43 -378 OFFCURVE",
"42 -377 CURVE SMOOTH",
"36 -374 OFFCURVE",
"22 -397 OFFCURVE",
"11 -428 CURVE SMOOTH",
"9 -435 OFFCURVE",
"7 -443 OFFCURVE",
"5 -451 CURVE SMOOTH",
"2 -463 OFFCURVE",
"0 -472 OFFCURVE",
"0 -478 CURVE SMOOTH",
"0 -484 OFFCURVE",
"2 -488 OFFCURVE",
"4 -489 CURVE SMOOTH",
"8 -491 OFFCURVE",
"12 -492 OFFCURVE",
"16 -492 CURVE SMOOTH"
);
}
);
};
layerId = "F8C3375C-B372-4BAE-A3FB-5A8DC7FA7AB9";
paths = (
{
closed = 1;
nodes = (
"16 -580 LINE",
"84 -580 OFFCURVE",
"135 -363 OFFCURVE",
"187 -363 CURVE SMOOTH",
"196 -363 OFFCURVE",
"207 -375 OFFCURVE",
"227 -375 CURVE SMOOTH",
"276 -375 OFFCURVE",
"339 -302 OFFCURVE",
"364 -299 CURVE",
"399 -183 LINE",
"360 -162 OFFCURVE",
"328 -157 OFFCURVE",
"301 -117 CURVE SMOOTH",
"288 -98 OFFCURVE",
"265 -64 OFFCURVE",
"240 -64 CURVE SMOOTH",
"220 -64 OFFCURVE",
"203 -80 OFFCURVE",
"191 -95 CURVE",
"191 -83 LINE SMOOTH",
"191 -43 OFFCURVE",
"200 56 OFFCURVE",
"255 56 CURVE SMOOTH",
"310 56 OFFCURVE",
"372 -75 OFFCURVE",
"438 -75 CURVE SMOOTH",
"516 -75 OFFCURVE",
"573 -32 OFFCURVE",
"617 33 CURVE SMOOTH",
"636 61 OFFCURVE",
"637 107 OFFCURVE",
"639 139 CURVE",
"618 123 OFFCURVE",
"593 110 OFFCURVE",
"566 110 CURVE SMOOTH",
"495 110 OFFCURVE",
"479 215 OFFCURVE",
"461 270 CURVE",
"471 292 OFFCURVE",
"481 313 OFFCURVE",
"491 334 CURVE",
"493 334 OFFCURVE",
"494 335 OFFCURVE",
"496 335 CURVE SMOOTH",
"544 335 OFFCURVE",
"613 185 OFFCURVE",
"685 185 CURVE SMOOTH",
"796 185 OFFCURVE",
"871 342 OFFCURVE",
"944 410 CURVE",
"953 449 OFFCURVE",
"961 486 OFFCURVE",
"971 524 CURVE",
"930 498 OFFCURVE",
"843 449 OFFCURVE",
"795 449 CURVE SMOOTH",
"788 449 OFFCURVE",
"780 449 OFFCURVE",
"774 454 CURVE SMOOTH",
"750 474 OFFCURVE",
"717 495 OFFCURVE",
"700 522 CURVE SMOOTH",
"675 557 OFFCURVE",
"623 664 OFFCURVE",
"592 684 CURVE",
"619 722 OFFCURVE",
"665 716 OFFCURVE",
"704 725 CURVE SMOOTH",
"755 733 OFFCURVE",
"796 778 OFFCURVE",
"828 817 CURVE SMOOTH",
"839 832 OFFCURVE",
"855 909 OFFCURVE",
"854 928 CURVE",
"843 925 OFFCURVE",
"834 921 OFFCURVE",
"822 921 CURVE SMOOTH",
"795 921 OFFCURVE",
"724 958 OFFCURVE",
"706 979 CURVE",
"741 1031 OFFCURVE",
"779 1140 OFFCURVE",
"849 1140 CURVE SMOOTH",
"902 1140 OFFCURVE",
"950 1114 OFFCURVE",
"1001 1114 CURVE SMOOTH",
"1097 1114 OFFCURVE",
"1146 1188 OFFCURVE",
"1182 1271 CURVE SMOOTH",
"1190 1289 OFFCURVE",
"1200 1315 OFFCURVE",
"1200 1335 CURVE SMOOTH",
"1200 1340 OFFCURVE",
"1200 1347 OFFCURVE",
"1196 1350 CURVE",
"1188 1352 LINE",
"1173 1330 OFFCURVE",
"1152 1311 OFFCURVE",
"1125 1311 CURVE SMOOTH",
"1019 1311 OFFCURVE",
"955 1552 OFFCURVE",
"813 1552 CURVE SMOOTH",
"673 1552 OFFCURVE",
"620 1322 OFFCURVE",
"538 1322 CURVE SMOOTH",
"473 1322 OFFCURVE",
"446 1419 OFFCURVE",
"446 1472 CURVE SMOOTH",
"446 1478 OFFCURVE",
"447 1498 OFFCURVE",
"449 1502 CURVE SMOOTH",
"455 1517 OFFCURVE",
"540 1591 OFFCURVE",
"559 1614 CURVE SMOOTH",
"588 1646 OFFCURVE",
"609 1696 OFFCURVE",
"626 1737 CURVE SMOOTH",
"633 1754 OFFCURVE",
"643 1778 OFFCURVE",
"643 1798 CURVE SMOOTH",
"643 1802 OFFCURVE",
"643 1809 OFFCURVE",
"638 1811 CURVE",
"629 1810 LINE",
"616 1785 OFFCURVE",
"582 1742 OFFCURVE",
"551 1742 CURVE SMOOTH",
"504 1742 OFFCURVE",
"486 1816 OFFCURVE",
"433 1816 CURVE SMOOTH",
"341 1816 OFFCURVE",
"279 1549 OFFCURVE",
"208 1549 CURVE SMOOTH",
"186 1549 OFFCURVE",
"173 1588 OFFCURVE",
"170 1606 CURVE",
"208 1647 OFFCURVE",
"224 1672 OFFCURVE",
"242 1727 CURVE SMOOTH",
"253 1760 OFFCURVE",
"260 1800 OFFCURVE",
"274 1831 CURVE SMOOTH",
"283 1851 OFFCURVE",
"295 1851 OFFCURVE",
"314 1851 CURVE",
"352 1967 LINE",
"338 1985 OFFCURVE",
"320 2002 OFFCURVE",
"296 2002 CURVE SMOOTH",
"224 2002 OFFCURVE",
"192 1849 OFFCURVE",
"134 1849 CURVE SMOOTH",
"77 1849 OFFCURVE",
"83 1986 OFFCURVE",
"41 1986 CURVE SMOOTH",
"23 1986 OFFCURVE",
"0 1897 OFFCURVE",
"0 1879 CURVE SMOOTH",
"0 1875 OFFCURVE",
"2 1872 OFFCURVE",
"5 1870 CURVE",
"40 1871 OFFCURVE",
"39 1732 OFFCURVE",
"99 1732 CURVE SMOOTH",
"162 1732 OFFCURVE",
"200 1885 OFFCURVE",
"262 1885 CURVE SMOOTH",
"264 1885 OFFCURVE",
"267 1884 OFFCURVE",
"269 1884 CURVE",
"251 1845 OFFCURVE",
"243 1793 OFFCURVE",
"224 1755 CURVE SMOOTH",
"208 1724 OFFCURVE",
"180 1699 OFFCURVE",
"163 1668 CURVE SMOOTH",
"142 1626 OFFCURVE",
"125 1574 OFFCURVE",
"125 1528 CURVE SMOOTH",
"125 1500 OFFCURVE",
"136 1437 OFFCURVE",
"171 1437 CURVE SMOOTH",
"256 1437 OFFCURVE",
"322 1700 OFFCURVE",
"397 1700 CURVE SMOOTH",
"437 1700 OFFCURVE",
"457 1650 OFFCURVE",
"489 1633 CURVE",
"433 1574 OFFCURVE",
"402 1459 OFFCURVE",
"402 1378 CURVE SMOOTH",
"402 1322 OFFCURVE",
"426 1205 OFFCURVE",
"498 1205 CURVE SMOOTH",
"603 1205 OFFCURVE",
"643 1436 OFFCURVE",
"778 1436 CURVE SMOOTH",
"876 1436 OFFCURVE",
"931 1322 OFFCURVE",
"989 1257 CURVE",
"973 1265 OFFCURVE",
"923 1273 OFFCURVE",
"904 1273 CURVE SMOOTH",
"791 1273 OFFCURVE",
"759 1084 OFFCURVE",
"673 1029 CURVE",
"661 1003 OFFCURVE",
"636 954 OFFCURVE",
"636 925 CURVE SMOOTH",
"636 895 OFFCURVE",
"675 849 OFFCURVE",
"700 837 CURVE",
"608 829 OFFCURVE",
"578 740 OFFCURVE",
"549 660 CURVE SMOOTH",
"541 637 OFFCURVE",
"524 598 OFFCURVE",
"524 574 CURVE SMOOTH",
"524 570 OFFCURVE",
"524 563 OFFCURVE",
"529 563 CURVE SMOOTH",
"535 563 OFFCURVE",
"541 570 OFFCURVE",
"547 570 CURVE SMOOTH",
"566 570 OFFCURVE",
"643 432 OFFCURVE",
"660 407 CURVE SMOOTH",
"679 380 OFFCURVE",
"698 364 OFFCURVE",
"725 347 CURVE SMOOTH",
"737 338 OFFCURVE",
"744 331 OFFCURVE",
"760 331 CURVE SMOOTH",
"778 331 OFFCURVE",
"795 336 OFFCURVE",
"812 343 CURVE",
"781 313 OFFCURVE",
"758 303 OFFCURVE",
"715 303 CURVE SMOOTH",
"650 303 OFFCURVE",
"595 455 OFFCURVE",
"538 455 CURVE SMOOTH",
"499 455 OFFCURVE",
"482 370 OFFCURVE",
"462 342 CURVE SMOOTH",
"455 331 OFFCURVE",
"441 324 OFFCURVE",
"435 315 CURVE SMOOTH",
"421 294 OFFCURVE",
"398 239 OFFCURVE",
"398 213 CURVE SMOOTH",
"398 209 OFFCURVE",
"455 54 OFFCURVE",
"460 42 CURVE",
"404 59 OFFCURVE",
"360 175 OFFCURVE",
"295 175 CURVE SMOOTH",
"252 175 OFFCURVE",
"222 117 OFFCURVE",
"206 82 CURVE SMOOTH",
"169 2 OFFCURVE",
"147 -91 OFFCURVE",
"147 -181 CURVE SMOOTH",
"147 -191 OFFCURVE",
"145 -218 OFFCURVE",
"152 -222 CURVE",
"162 -218 OFFCURVE",
"176 -182 OFFCURVE",
"202 -182 CURVE SMOOTH",
"236 -182 OFFCURVE",
"257 -236 OFFCURVE",
"281 -254 CURVE",
"275 -256 OFFCURVE",
"268 -256 OFFCURVE",
"262 -256 CURVE SMOOTH",
"243 -256 OFFCURVE",
"232 -246 OFFCURVE",
"218 -246 CURVE SMOOTH",
"143 -246 OFFCURVE",
"107 -460 OFFCURVE",
"41 -460 CURVE SMOOTH",
"24 -460 OFFCURVE",
"0 -549 OFFCURVE",
"0 -565 CURVE SMOOTH",
"0 -570 OFFCURVE",
"2 -574 OFFCURVE",
"4 -577 CURVE",
"8 -579 OFFCURVE",
"12 -580 OFFCURVE",
"16 -580 CURVE"
);
}
);
width = 1200;
}
);
note = uniE0C1;
},
{
color = 2;
glyphname = uniE0C2.stypo;
lastChange = "2020-07-01 16:07:40 +0000";
layers = (
{
layerId = "F8C3375C-B372-4BAE-A3FB-5A8DC7FA7AB9";
paths = (
{
closed = 1;
nodes = (
"1199 1688 LINE",
"1200 1776 OFFCURVE",
"1200 1850 OFFCURVE",
"1200 1910 CURVE SMOOTH",
"1200 1938 OFFCURVE",
"1200 1961 OFFCURVE",
"1200 1984 CURVE",
"1189 1982 OFFCURVE",
"1182 1980 OFFCURVE",
"1178 1969 CURVE SMOOTH",
"1174 1958 OFFCURVE",
"1164 1928 OFFCURVE",
"1158 1906 CURVE",
"1140 1859 OFFCURVE",
"1122 1843 OFFCURVE",
"1102 1843 CURVE SMOOTH",
"1096 1843 OFFCURVE",
"1091 1844 OFFCURVE",
"1085 1846 CURVE SMOOTH",
"1068 1853 OFFCURVE",
"1048 1878 OFFCURVE",
"1034 1899 CURVE SMOOTH",
"1027 1907 OFFCURVE",
"1019 1921 OFFCURVE",
"1010 1935 CURVE SMOOTH",
"984 1980 OFFCURVE",
"959 2002 OFFCURVE",
"934 2002 CURVE SMOOTH",
"915 2002 OFFCURVE",
"897 1988 OFFCURVE",
"879 1966 CURVE",
"899 1969 OFFCURVE",
"915 1955 OFFCURVE",
"929 1934 CURVE SMOOTH",
"942 1916 OFFCURVE",
"959 1859 OFFCURVE",
"970 1825 CURVE",
"970 1827 OFFCURVE",
"974 1813 OFFCURVE",
"984 1779 CURVE SMOOTH",
"988 1768 OFFCURVE",
"999 1749 OFFCURVE",
"1018 1725 CURVE SMOOTH",
"1038 1701 OFFCURVE",
"1051 1682 OFFCURVE",
"1057 1670 CURVE SMOOTH",
"1066 1651 OFFCURVE",
"1071 1633 OFFCURVE",
"1071 1614 CURVE SMOOTH",
"1071 1603 OFFCURVE",
"1070 1592 OFFCURVE",
"1067 1581 CURVE SMOOTH",
"1055 1541 OFFCURVE",
"1042 1529 OFFCURVE",
"1026 1529 CURVE SMOOTH",
"1021 1529 OFFCURVE",
"1016 1531 OFFCURVE",
"1010 1533 CURVE SMOOTH",
"1003 1535 OFFCURVE",
"995 1541 OFFCURVE",
"986 1552 CURVE SMOOTH",
"964 1579 LINE SMOOTH",
"946 1600 OFFCURVE",
"903 1682 OFFCURVE",
"892 1702 CURVE SMOOTH",
"854 1774 OFFCURVE",
"826 1806 OFFCURVE",
"793 1806 CURVE SMOOTH",
"773 1806 OFFCURVE",
"752 1794 OFFCURVE",
"730 1767 CURVE SMOOTH",
"708 1741 OFFCURVE",
"688 1729 OFFCURVE",
"669 1729 CURVE SMOOTH",
"638 1729 OFFCURVE",
"610 1761 OFFCURVE",
"578 1810 CURVE",
"595 1768 OFFCURVE",
"612 1737 OFFCURVE",
"633 1712 CURVE SMOOTH",
"643 1699 OFFCURVE",
"652 1689 OFFCURVE",
"660 1681 CURVE SMOOTH",
"668 1675 OFFCURVE",
"679 1665 OFFCURVE",
"693 1651 CURVE SMOOTH",
"707 1639 OFFCURVE",
"719 1627 OFFCURVE",
"726 1619 CURVE",
"763 1586 OFFCURVE",
"783 1526 OFFCURVE",
"783 1461 CURVE SMOOTH",
"783 1384 OFFCURVE",
"755 1315 OFFCURVE",
"711 1294 CURVE SMOOTH",
"703 1289 OFFCURVE",
"695 1287 OFFCURVE",
"687 1287 CURVE SMOOTH",
"656 1287 OFFCURVE",
"622 1319 OFFCURVE",
"596 1357 CURVE SMOOTH",
"564 1400 OFFCURVE",
"522 1465 OFFCURVE",
"489 1492 CURVE SMOOTH",
"459 1517 OFFCURVE",
"429 1529 OFFCURVE",
"398 1529 CURVE SMOOTH",
"342 1529 OFFCURVE",
"286 1489 OFFCURVE",
"228 1410 CURVE SMOOTH",
"191 1359 OFFCURVE",
"169 1330 OFFCURVE",
"136 1302 CURVE SMOOTH",
"115 1283 OFFCURVE",
"95 1276 OFFCURVE",
"79 1276 CURVE SMOOTH",
"54 1276 OFFCURVE",
"26 1290 OFFCURVE",
"0 1328 CURVE",
"34 1249 OFFCURVE",
"75 1211 OFFCURVE",
"115 1207 CURVE",
"119 1206 OFFCURVE",
"125 1206 OFFCURVE",
"130 1206 CURVE SMOOTH",
"165 1206 OFFCURVE",
"201 1218 OFFCURVE",
"238 1227 CURVE SMOOTH",
"259 1233 OFFCURVE",
"278 1237 OFFCURVE",
"297 1237 CURVE SMOOTH",
"319 1237 OFFCURVE",
"340 1232 OFFCURVE",
"364 1217 CURVE SMOOTH",
"385 1200 OFFCURVE",
"405 1176 OFFCURVE",
"423 1143 CURVE SMOOTH",
"434 1125 OFFCURVE",
"468 1063 OFFCURVE",
"479 1047 CURVE SMOOTH",
"499 1020 OFFCURVE",
"515 998 OFFCURVE",
"539 983 CURVE",
"533 966 LINE SMOOTH",
"516 927 OFFCURVE",
"488 908 OFFCURVE",
"464 895 CURVE SMOOTH",
"456 892 OFFCURVE",
"448 888 OFFCURVE",
"439 885 CURVE SMOOTH",
"429 882 OFFCURVE",
"422 880 OFFCURVE",
"418 876 CURVE",
"408 870 OFFCURVE",
"399 868 OFFCURVE",
"388 868 CURVE SMOOTH",
"377 868 OFFCURVE",
"365 870 OFFCURVE",
"353 877 CURVE",
"399 819 OFFCURVE",
"431 792 OFFCURVE",
"475 785 CURVE SMOOTH",
"491 783 OFFCURVE",
"514 782 OFFCURVE",
"529 780 CURVE SMOOTH",
"541 778 OFFCURVE",
"564 771 OFFCURVE",
"577 761 CURVE SMOOTH",
"590 747 OFFCURVE",
"607 731 OFFCURVE",
"622 700 CURVE SMOOTH",
"630 683 OFFCURVE",
"637 664 OFFCURVE",
"644 642 CURVE SMOOTH",
"654 616 LINE",
"640 622 LINE SMOOTH",
"624 629 OFFCURVE",
"595 585 OFFCURVE",
"562 527 CURVE SMOOTH",
"541 489 OFFCURVE",
"526 464 OFFCURVE",
"518 452 CURVE SMOOTH",
"510 439 OFFCURVE",
"442 384 OFFCURVE",
"440 380 CURVE",
"434 376 OFFCURVE",
"426 374 OFFCURVE",
"416 374 CURVE SMOOTH",
"376 374 OFFCURVE",
"305 406 OFFCURVE",
"232 453 CURVE",
"295 377 LINE SMOOTH",
"310 358 OFFCURVE",
"342 321 OFFCURVE",
"358 304 CURVE SMOOTH",
"388 271 OFFCURVE",
"431 227 OFFCURVE",
"454 227 CURVE SMOOTH",
"461 227 OFFCURVE",
"478 221 OFFCURVE",
"496 221 CURVE SMOOTH",
"501 221 OFFCURVE",
"506 222 OFFCURVE",
"512 223 CURVE SMOOTH",
"523 226 OFFCURVE",
"534 231 OFFCURVE",
"546 242 CURVE SMOOTH",
"563 257 OFFCURVE",
"589 289 OFFCURVE",
"609 313 CURVE SMOOTH",
"618 324 OFFCURVE",
"628 334 OFFCURVE",
"639 346 CURVE SMOOTH",
"656 363 OFFCURVE",
"674 378 OFFCURVE",
"689 378 CURVE SMOOTH",
"697 378 OFFCURVE",
"704 374 OFFCURVE",
"709 363 CURVE SMOOTH",
"725 327 OFFCURVE",
"735 302 OFFCURVE",
"750 277 CURVE SMOOTH",
"761 258 OFFCURVE",
"770 249 OFFCURVE",
"786 235 CURVE",
"780 221 LINE SMOOTH",
"766 191 OFFCURVE",
"749 137 OFFCURVE",
"739 105 CURVE SMOOTH",
"729 71 OFFCURVE",
"709 36 OFFCURVE",
"684 25 CURVE SMOOTH",
"674 21 OFFCURVE",
"664 18 OFFCURVE",
"653 18 CURVE SMOOTH",
"630 18 OFFCURVE",
"604 30 OFFCURVE",
"576 51 CURVE",
"622 -22 OFFCURVE",
"692 -53 OFFCURVE",
"752 -53 CURVE SMOOTH",
"773 -53 OFFCURVE",
"803 -32 OFFCURVE",
"826 -4 CURVE SMOOTH",
"837 9 OFFCURVE",
"850 23 OFFCURVE",
"863 36 CURVE SMOOTH",
"891 66 OFFCURVE",
"912 87 OFFCURVE",
"941 87 CURVE SMOOTH",
"953 87 OFFCURVE",
"965 81 OFFCURVE",
"975 69 CURVE SMOOTH",
"1012 31 OFFCURVE",
"1050 -70 OFFCURVE",
"1048 -186 CURVE SMOOTH",
"1048 -205 LINE",
"1027 -176 OFFCURVE",
"1010 -164 OFFCURVE",
"994 -164 CURVE SMOOTH",
"975 -164 OFFCURVE",
"956 -183 OFFCURVE",
"932 -218 CURVE SMOOTH",
"913 -246 OFFCURVE",
"892 -258 OFFCURVE",
"862 -271 CURVE SMOOTH",
"847 -277 OFFCURVE",
"836 -281 OFFCURVE",
"829 -286 CURVE",
"846 -295 OFFCURVE",
"870 -311 OFFCURVE",
"887 -325 CURVE SMOOTH",
"896 -332 OFFCURVE",
"905 -339 OFFCURVE",
"916 -346 CURVE SMOOTH",
"936 -358 OFFCURVE",
"951 -368 OFFCURVE",
"970 -368 CURVE SMOOTH",
"981 -368 OFFCURVE",
"992 -363 OFFCURVE",
"1001 -356 CURVE SMOOTH",
"1005 -354 OFFCURVE",
"1009 -353 OFFCURVE",
"1013 -353 CURVE SMOOTH",
"1034 -353 OFFCURVE",
"1059 -384 OFFCURVE",
"1081 -426 CURVE SMOOTH",
"1095 -452 OFFCURVE",
"1108 -476 OFFCURVE",
"1121 -502 CURVE SMOOTH",
"1144 -546 OFFCURVE",
"1169 -580 OFFCURVE",
"1190 -580 CURVE SMOOTH",
"1193 -580 OFFCURVE",
"1196 -580 OFFCURVE",
"1199 -578 CURVE",
"1198 -369 OFFCURVE",
"1197 987 OFFCURVE",
"1197 1441 CURVE SMOOTH",
"1197 1477 OFFCURVE",
"1198 1561 OFFCURVE",
"1199 1688 CURVE"
);
}
);
width = 1200;
}
);
note = uniE0C2;
},
{
color = 2;
glyphname = uniE0C3.stypo;
lastChange = "2020-07-01 16:07:45 +0000";
layers = (
{
layerId = "F8C3375C-B372-4BAE-A3FB-5A8DC7FA7AB9";
paths = (
{
closed = 1;
nodes = (
"1185 -580 LINE",
"1189 -580 OFFCURVE",
"1193 -579 OFFCURVE",
"1197 -577 CURVE",
"1199 -574 OFFCURVE",
"1200 -569 OFFCURVE",
"1200 -565 CURVE SMOOTH",
"1200 -539 OFFCURVE",
"1181 -461 OFFCURVE",
"1154 -461 CURVE SMOOTH",
"1106 -461 OFFCURVE",
"1052 -247 OFFCURVE",
"983 -247 CURVE SMOOTH",
"969 -247 OFFCURVE",
"957 -255 OFFCURVE",
"939 -255 CURVE SMOOTH",
"933 -255 OFFCURVE",
"926 -255 OFFCURVE",
"920 -254 CURVE",
"943 -237 OFFCURVE",
"966 -181 OFFCURVE",
"998 -181 CURVE SMOOTH",
"1024 -181 OFFCURVE",
"1039 -218 OFFCURVE",
"1049 -222 CURVE",
"1050 -222 LINE",
"1056 -217 OFFCURVE",
"1054 -199 OFFCURVE",
"1054 -193 CURVE SMOOTH",
"1054 -181 LINE SMOOTH",
"1054 -93 OFFCURVE",
"1031 2 OFFCURVE",
"995 83 CURVE SMOOTH",
"979 117 OFFCURVE",
"948 175 OFFCURVE",
"905 175 CURVE SMOOTH",
"845 175 OFFCURVE",
"796 61 OFFCURVE",
"741 42 CURVE",
"746 52 OFFCURVE",
"803 211 OFFCURVE",
"803 213 CURVE SMOOTH",
"803 242 OFFCURVE",
"780 290 OFFCURVE",
"766 315 CURVE",
"752 327 OFFCURVE",
"738 338 OFFCURVE",
"731 355 CURVE SMOOTH",
"719 383 OFFCURVE",
"696 455 OFFCURVE",
"662 455 CURVE SMOOTH",
"607 455 OFFCURVE",
"552 303 OFFCURVE",
"485 303 CURVE SMOOTH",
"443 303 OFFCURVE",
"420 314 OFFCURVE",
"389 342 CURVE",
"405 336 OFFCURVE",
"423 332 OFFCURVE",
"440 332 CURVE SMOOTH",
"531 332 OFFCURVE",
"620 570 OFFCURVE",
"653 570 CURVE SMOOTH",
"657 570 OFFCURVE",
"666 563 OFFCURVE",
"672 562 CURVE",
"675 564 OFFCURVE",
"677 570 OFFCURVE",
"677 574 CURVE SMOOTH",
"677 624 OFFCURVE",
"614 763 OFFCURVE",
"578 805 CURVE SMOOTH",
"558 826 OFFCURVE",
"530 835 OFFCURVE",
"501 838 CURVE",
"526 848 OFFCURVE",
"565 897 OFFCURVE",
"565 925 CURVE SMOOTH",
"565 954 OFFCURVE",
"540 1005 OFFCURVE",
"527 1029 CURVE",
"442 1088 OFFCURVE",
"411 1273 OFFCURVE",
"298 1273 CURVE SMOOTH",
"268 1273 OFFCURVE",
"240 1268 OFFCURVE",
"212 1257 CURVE",
"270 1323 OFFCURVE",
"325 1436 OFFCURVE",
"423 1436 CURVE SMOOTH",
"559 1436 OFFCURVE",
"598 1206 OFFCURVE",
"703 1206 CURVE SMOOTH",
"775 1206 OFFCURVE",
"799 1323 OFFCURVE",
"799 1378 CURVE SMOOTH",
"799 1455 OFFCURVE",
"767 1578 OFFCURVE",
"711 1634 CURVE",
"742 1650 OFFCURVE",
"765 1700 OFFCURVE",
"803 1700 CURVE SMOOTH",
"878 1700 OFFCURVE",
"947 1438 OFFCURVE",
"1023 1438 CURVE SMOOTH",
"1032 1438 OFFCURVE",
"1040 1442 OFFCURVE",
"1047 1450 CURVE",
"1047 1450 OFFCURVE",
"1047 1449 OFFCURVE",
"1048 1449 CURVE SMOOTH",
"1062 1449 OFFCURVE",
"1076 1513 OFFCURVE",
"1076 1528 CURVE SMOOTH",
"1076 1574 OFFCURVE",
"1059 1627 OFFCURVE",
"1038 1668 CURVE SMOOTH",
"1021 1700 OFFCURVE",
"993 1723 OFFCURVE",
"976 1755 CURVE SMOOTH",
"960 1786 OFFCURVE",
"948 1847 OFFCURVE",
"932 1884 CURVE",
"939 1885 LINE",
"1002 1885 OFFCURVE",
"1038 1732 OFFCURVE",
"1101 1732 CURVE SMOOTH",
"1153 1732 OFFCURVE",
"1160 1830 OFFCURVE",
"1180 1862 CURVE SMOOTH",
"1185 1869 OFFCURVE",
"1188 1869 OFFCURVE",
"1196 1869 CURVE",
"1199 1872 OFFCURVE",
"1200 1876 OFFCURVE",
"1200 1879 CURVE SMOOTH",
"1200 1898 OFFCURVE",
"1179 1986 OFFCURVE",
"1160 1986 CURVE SMOOTH",
"1117 1986 OFFCURVE",
"1124 1850 OFFCURVE",
"1067 1850 CURVE SMOOTH",
"1009 1850 OFFCURVE",
"976 2002 OFFCURVE",
"904 2002 CURVE SMOOTH",
"881 2002 OFFCURVE",
"862 1984 OFFCURVE",
"849 1967 CURVE",
"887 1852 LINE",
"906 1852 OFFCURVE",
"917 1853 OFFCURVE",
"926 1831 CURVE SMOOTH",
"965 1738 OFFCURVE",
"954 1690 OFFCURVE",
"1031 1605 CURVE",
"1026 1587 OFFCURVE",
"1018 1551 OFFCURVE",
"993 1551 CURVE SMOOTH",
"922 1551 OFFCURVE",
"859 1816 OFFCURVE",
"768 1816 CURVE SMOOTH",
"715 1816 OFFCURVE",
"696 1742 OFFCURVE",
"650 1742 CURVE SMOOTH",
"619 1742 OFFCURVE",
"586 1784 OFFCURVE",
"572 1810 CURVE",
"563 1811 LINE",
"558 1807 OFFCURVE",
"558 1802 OFFCURVE",
"558 1798 CURVE SMOOTH",
"558 1778 OFFCURVE",
"568 1754 OFFCURVE",
"575 1737 CURVE SMOOTH",
"593 1693 OFFCURVE",
"612 1649 OFFCURVE",
"642 1614 CURVE SMOOTH",
"662 1588 OFFCURVE",
"746 1519 OFFCURVE",
"752 1501 CURVE SMOOTH",
"754 1496 OFFCURVE",
"754 1480 OFFCURVE",
"754 1472 CURVE SMOOTH",
"754 1420 OFFCURVE",
"728 1323 OFFCURVE",
"664 1323 CURVE SMOOTH",
"580 1323 OFFCURVE",
"528 1552 OFFCURVE",
"388 1552 CURVE SMOOTH",
"246 1552 OFFCURVE",
"181 1312 OFFCURVE",
"78 1312 CURVE SMOOTH",
"51 1312 OFFCURVE",
"28 1329 OFFCURVE",
"13 1352 CURVE",
"5 1351 LINE",
"1 1347 OFFCURVE",
"0 1340 OFFCURVE",
"0 1335 CURVE SMOOTH",
"0 1316 OFFCURVE",
"12 1288 OFFCURVE",
"19 1271 CURVE SMOOTH",
"53 1192 OFFCURVE",
"102 1115 OFFCURVE",
"194 1115 CURVE SMOOTH",
"245 1115 OFFCURVE",
"293 1140 OFFCURVE",
"343 1140 CURVE SMOOTH",
"430 1140 OFFCURVE",
"451 1039 OFFCURVE",
"495 980 CURVE",
"476 958 OFFCURVE",
"406 921 OFFCURVE",
"379 921 CURVE SMOOTH",
"367 921 OFFCURVE",
"357 925 OFFCURVE",
"346 928 CURVE",
"350 901 OFFCURVE",
"358 838 OFFCURVE",
"373 817 CURVE SMOOTH",
"492 667 OFFCURVE",
"558 756 OFFCURVE",
"609 684 CURVE",
"576 666 OFFCURVE",
"527 557 OFFCURVE",
"501 522 CURVE SMOOTH",
"483 497 OFFCURVE",
"451 475 OFFCURVE",
"427 454 CURVE SMOOTH",
"421 450 OFFCURVE",
"413 450 OFFCURVE",
"406 450 CURVE SMOOTH",
"358 450 OFFCURVE",
"271 498 OFFCURVE",
"230 524 CURVE",
"241 486 OFFCURVE",
"249 449 OFFCURVE",
"256 410 CURVE",
"261 408 OFFCURVE",
"320 336 OFFCURVE",
"329 326 CURVE SMOOTH",
"379 265 OFFCURVE",
"434 186 OFFCURVE",
"518 186 CURVE SMOOTH",
"584 186 OFFCURVE",
"659 335 OFFCURVE",
"704 335 CURVE SMOOTH",
"706 335 OFFCURVE",
"707 334 OFFCURVE",
"709 334 CURVE",
"719 314 OFFCURVE",
"728 290 OFFCURVE",
"740 270 CURVE",
"722 215 OFFCURVE",
"704 111 OFFCURVE",
"635 111 CURVE SMOOTH",
"608 111 OFFCURVE",
"583 123 OFFCURVE",
"562 139 CURVE",
"562 107 OFFCURVE",
"566 61 OFFCURVE",
"584 33 CURVE SMOOTH",
"627 -31 OFFCURVE",
"686 -75 OFFCURVE",
"763 -75 CURVE SMOOTH",
"831 -75 OFFCURVE",
"888 55 OFFCURVE",
"948 55 CURVE SMOOTH",
"1001 55 OFFCURVE",
"1010 -46 OFFCURVE",
"1010 -85 CURVE SMOOTH",
"1010 -95 LINE",
"998 -80 OFFCURVE",
"981 -64 OFFCURVE",
"961 -64 CURVE SMOOTH",
"936 -64 OFFCURVE",
"913 -98 OFFCURVE",
"900 -116 CURVE SMOOTH",
"872 -157 OFFCURVE",
"841 -162 OFFCURVE",
"801 -182 CURVE",
"837 -299 LINE",
"864 -303 OFFCURVE",
"923 -375 OFFCURVE",
"975 -375 CURVE SMOOTH",
"993 -375 OFFCURVE",
"1005 -363 OFFCURVE",
"1014 -363 CURVE SMOOTH",
"1066 -363 OFFCURVE",
"1117 -580 OFFCURVE",
"1185 -580 CURVE"
);
}
);
width = 1200;
}
);
note = uniE0C3;
},
{
color = 2;
glyphname = uniE0C4.stypo;
lastChange = "2020-07-01 16:07:52 +0000";
layers = (
{
layerId = "F8C3375C-B372-4BAE-A3FB-5A8DC7FA7AB9";
paths = (
{
closed = 1;
nodes = (
"485 1770 LINE",
"593 1770 LINE SMOOTH",
"597 1770 OFFCURVE",
"602 1777 OFFCURVE",
"602 1785 CURVE SMOOTH",
"602 1985 LINE SMOOTH",
"602 1994 OFFCURVE",
"598 2002 OFFCURVE",
"593 2002 CURVE SMOOTH",
"485 2002 LINE SMOOTH",
"481 2002 OFFCURVE",
"476 1995 OFFCURVE",
"476 1985 CURVE SMOOTH",
"476 1785 LINE SMOOTH",
"476 1778 OFFCURVE",
"480 1770 OFFCURVE",
"485 1770 CURVE"
);
},
{
closed = 1;
nodes = (
"1197 1992 LINE",
"1089 1992 LINE SMOOTH",
"1087 1992 OFFCURVE",
"1086 1988 OFFCURVE",
"1086 1985 CURVE SMOOTH",
"1086 1785 LINE SMOOTH",
"1086 1781 OFFCURVE",
"1087 1780 OFFCURVE",
"1089 1780 CURVE SMOOTH",
"1197 1780 LINE SMOOTH",
"1199 1780 OFFCURVE",
"1200 1781 OFFCURVE",
"1200 1785 CURVE SMOOTH",
"1200 1985 LINE SMOOTH",
"1200 1988 OFFCURVE",
"1199 1992 OFFCURVE",
"1197 1992 CURVE"
);
},
{
closed = 1;
nodes = (
"0 1985 LINE",
"0 1785 LINE",
"108 1785 LINE",
"108 1985 LINE",
"0 1985 LINE"
);
},
{
closed = 1;
nodes = (
"165 1985 LINE",
"165 1785 LINE",
"273 1785 LINE",
"273 1985 LINE",
"165 1985 LINE"
);
},
{
closed = 1;
nodes = (
"323 1985 LINE",
"323 1785 LINE",
"431 1785 LINE",
"431 1985 LINE",
"323 1985 LINE"
);
},
{
closed = 1;
nodes = (
"745 1785 LINE",
"745 1985 LINE",
"637 1985 LINE",
"637 1785 LINE",
"745 1785 LINE"
);
},
{
closed = 1;
nodes = (
"900 1785 LINE",
"900 1985 LINE",
"792 1985 LINE",
"792 1785 LINE",
"900 1785 LINE"
);
},
{
closed = 1;
nodes = (
"1194 1980 LINE",
"1194 1790 LINE",
"1092 1790 LINE",
"1092 1980 LINE",
"1194 1980 LINE"
);
},
{
closed = 1;
nodes = (
"494 1801 LINE",
"494 1970 LINE",
"585 1970 LINE",
"585 1801 LINE",
"494 1801 LINE"
);
},
{
closed = 1;
nodes = (
"1197 1714 LINE",
"1089 1714 LINE SMOOTH",
"1087 1714 OFFCURVE",
"1086 1713 OFFCURVE",
"1086 1709 CURVE SMOOTH",
"1086 1510 LINE SMOOTH",
"1086 1505 OFFCURVE",
"1087 1503 OFFCURVE",
"1089 1503 CURVE SMOOTH",
"1197 1503 LINE SMOOTH",
"1199 1503 OFFCURVE",
"1200 1505 OFFCURVE",
"1200 1510 CURVE SMOOTH",
"1200 1709 LINE SMOOTH",
"1200 1713 OFFCURVE",
"1199 1714 OFFCURVE",
"1197 1714 CURVE"
);
},
{
closed = 1;
nodes = (
"0 1709 LINE",
"0 1510 LINE",
"108 1510 LINE",
"108 1709 LINE",
"0 1709 LINE"
);
},
{
closed = 1;
nodes = (
"165 1709 LINE",
"165 1510 LINE",
"273 1510 LINE",
"273 1709 LINE",
"165 1709 LINE"
);
},
{
closed = 1;
nodes = (
"323 1709 LINE",
"323 1510 LINE",
"431 1510 LINE",
"431 1709 LINE",
"323 1709 LINE"
);
},
{
closed = 1;
nodes = (
"596 1510 LINE",
"596 1709 LINE",
"487 1709 LINE",
"487 1510 LINE",
"596 1510 LINE"
);
},
{
closed = 1;
nodes = (
"900 1510 LINE",
"900 1709 LINE",
"792 1709 LINE",
"792 1510 LINE",
"900 1510 LINE"
);
},
{
closed = 1;
nodes = (
"1194 1703 LINE",
"1194 1515 LINE",
"1092 1515 LINE",
"1092 1703 LINE",
"1194 1703 LINE"
);
},
{
closed = 1;
nodes = (
"745 1469 LINE",
"637 1469 LINE SMOOTH",
"632 1469 OFFCURVE",
"625 1460 OFFCURVE",
"625 1448 CURVE SMOOTH",
"625 1248 LINE SMOOTH",
"625 1238 OFFCURVE",
"630 1227 OFFCURVE",
"637 1227 CURVE SMOOTH",
"745 1227 LINE SMOOTH",
"751 1227 OFFCURVE",
"757 1236 OFFCURVE",
"757 1248 CURVE SMOOTH",
"757 1448 LINE SMOOTH",
"757 1457 OFFCURVE",
"752 1469 OFFCURVE",
"745 1469 CURVE"
);
},
{
closed = 1;
nodes = (
"0 1448 LINE",
"0 1248 LINE",
"108 1248 LINE",
"108 1448 LINE",
"0 1448 LINE"
);
},
{
closed = 1;
nodes = (
"165 1448 LINE",
"165 1248 LINE",
"273 1248 LINE",
"273 1448 LINE",
"165 1448 LINE"
);
},
{
closed = 1;
nodes = (
"323 1448 LINE",
"323 1248 LINE",
"431 1248 LINE",
"431 1448 LINE",
"323 1448 LINE"
);
},
{
closed = 1;
nodes = (
"487 1448 LINE",
"487 1248 LINE",
"596 1248 LINE",
"596 1448 LINE",
"487 1448 LINE"
);
},
{
closed = 1;
nodes = (
"734 1426 LINE",
"734 1271 LINE",
"649 1271 LINE",
"649 1426 LINE",
"734 1426 LINE"
);
},
{
closed = 1;
nodes = (
"745 1224 LINE",
"637 1224 LINE SMOOTH",
"632 1224 OFFCURVE",
"625 1215 OFFCURVE",
"625 1202 CURVE SMOOTH",
"625 1000 LINE SMOOTH",
"625 992 OFFCURVE",
"630 980 OFFCURVE",
"637 980 CURVE SMOOTH",
"745 980 LINE SMOOTH",
"751 980 OFFCURVE",
"757 989 OFFCURVE",
"757 1000 CURVE SMOOTH",
"757 1202 LINE SMOOTH",
"757 1211 OFFCURVE",
"752 1224 OFFCURVE",
"745 1224 CURVE"
);
},
{
closed = 1;
nodes = (
"0 1202 LINE",
"0 1000 LINE",
"108 1000 LINE",
"108 1202 LINE",
"0 1202 LINE"
);
},
{
closed = 1;
nodes = (
"165 1202 LINE",
"165 1000 LINE",
"273 1000 LINE",
"273 1202 LINE",
"165 1202 LINE"
);
},
{
closed = 1;
nodes = (
"323 1202 LINE",
"323 1000 LINE",
"431 1000 LINE",
"431 1202 LINE",
"323 1202 LINE"
);
},
{
closed = 1;
nodes = (
"734 1178 LINE",
"734 1023 LINE",
"649 1023 LINE",
"649 1178 LINE",
"734 1178 LINE"
);
},
{
closed = 1;
nodes = (
"596 975 LINE",
"487 975 LINE SMOOTH",
"480 975 OFFCURVE",
"473 965 OFFCURVE",
"473 948 CURVE SMOOTH",
"473 749 LINE SMOOTH",
"473 735 OFFCURVE",
"479 721 OFFCURVE",
"487 721 CURVE SMOOTH",
"596 721 LINE SMOOTH",
"603 721 OFFCURVE",
"610 731 OFFCURVE",
"610 749 CURVE SMOOTH",
"610 948 LINE SMOOTH",
"610 961 OFFCURVE",
"604 975 OFFCURVE",
"596 975 CURVE"
);
},
{
closed = 1;
nodes = (
"900 954 LINE",
"792 954 LINE SMOOTH",
"790 954 OFFCURVE",
"789 952 OFFCURVE",
"789 948 CURVE SMOOTH",
"789 749 LINE SMOOTH",
"789 744 OFFCURVE",
"790 742 OFFCURVE",
"792 742 CURVE SMOOTH",
"900 742 LINE SMOOTH",
"902 742 OFFCURVE",
"903 744 OFFCURVE",
"903 749 CURVE SMOOTH",
"903 948 LINE SMOOTH",
"903 952 OFFCURVE",
"902 954 OFFCURVE",
"900 954 CURVE"
);
},
{
closed = 1;
nodes = (
"0 948 LINE",
"0 749 LINE",
"108 749 LINE",
"108 948 LINE",
"0 948 LINE"
);
},
{
closed = 1;
nodes = (
"165 948 LINE",
"165 749 LINE",
"273 749 LINE",
"273 948 LINE",
"165 948 LINE"
);
},
{
closed = 1;
nodes = (
"323 948 LINE",
"323 749 LINE",
"431 749 LINE",
"431 948 LINE",
"323 948 LINE"
);
},
{
closed = 1;
nodes = (
"745 749 LINE",
"745 948 LINE",
"637 948 LINE",
"637 749 LINE",
"745 749 LINE"
);
},
{
closed = 1;
nodes = (
"897 943 LINE",
"897 755 LINE",
"795 755 LINE",
"795 943 LINE",
"897 943 LINE"
);
},
{
closed = 1;
nodes = (
"581 921 LINE",
"581 775 LINE",
"502 775 LINE",
"502 921 LINE",
"581 921 LINE"
);
},
{
closed = 1;
nodes = (
"0 693 LINE",
"0 495 LINE",
"108 495 LINE",
"108 693 LINE",
"0 693 LINE"
);
},
{
closed = 1;
nodes = (
"165 693 LINE",
"165 495 LINE",
"273 495 LINE",
"273 693 LINE",
"165 693 LINE"
);
},
{
closed = 1;
nodes = (
"323 693 LINE",
"323 495 LINE",
"431 495 LINE",
"431 693 LINE",
"323 693 LINE"
);
},
{
closed = 1;
nodes = (
"596 495 LINE",
"596 693 LINE",
"487 693 LINE",
"487 495 LINE",
"596 495 LINE"
);
},
{
closed = 1;
nodes = (
"637 693 LINE",
"637 495 LINE",
"745 495 LINE",
"745 693 LINE",
"637 693 LINE"
);
},
{
closed = 1;
nodes = (
"745 457 LINE",
"637 457 LINE SMOOTH",
"632 457 OFFCURVE",
"625 449 OFFCURVE",
"625 435 CURVE SMOOTH",
"625 235 LINE SMOOTH",
"625 226 OFFCURVE",
"630 215 OFFCURVE",
"637 215 CURVE SMOOTH",
"745 215 LINE SMOOTH",
"751 215 OFFCURVE",
"757 223 OFFCURVE",
"757 235 CURVE SMOOTH",
"757 435 LINE SMOOTH",
"757 446 OFFCURVE",
"752 457 OFFCURVE",
"745 457 CURVE"
);
},
{
closed = 1;
nodes = (
"1047 441 LINE",
"939 441 LINE SMOOTH",
"938 441 OFFCURVE",
"936 438 OFFCURVE",
"936 435 CURVE SMOOTH",
"936 235 LINE SMOOTH",
"936 231 OFFCURVE",
"938 230 OFFCURVE",
"939 230 CURVE SMOOTH",
"1047 230 LINE SMOOTH",
"1049 230 OFFCURVE",
"1050 231 OFFCURVE",
"1050 235 CURVE SMOOTH",
"1050 435 LINE SMOOTH",
"1050 438 OFFCURVE",
"1049 441 OFFCURVE",
"1047 441 CURVE"
);
},
{
closed = 1;
nodes = (
"0 435 LINE",
"0 235 LINE",
"108 235 LINE",
"108 435 LINE",
"0 435 LINE"
);
},
{
closed = 1;
nodes = (
"165 435 LINE",
"165 235 LINE",
"273 235 LINE",
"273 435 LINE",
"165 435 LINE"
);
},
{
closed = 1;
nodes = (
"1045 429 LINE",
"1045 241 LINE",
"942 241 LINE",
"942 429 LINE",
"1045 429 LINE"
);
},
{
closed = 1;
nodes = (
"734 413 LINE",
"734 257 LINE",
"649 257 LINE",
"649 413 LINE",
"734 413 LINE"
);
},
{
closed = 1;
nodes = (
"596 172 LINE",
"487 172 LINE SMOOTH",
"486 172 OFFCURVE",
"485 170 OFFCURVE",
"485 165 CURVE SMOOTH",
"485 -34 LINE SMOOTH",
"485 -37 OFFCURVE",
"486 -39 OFFCURVE",
"487 -39 CURVE SMOOTH",
"596 -39 LINE SMOOTH",
"597 -39 OFFCURVE",
"599 -37 OFFCURVE",
"599 -34 CURVE SMOOTH",
"599 165 LINE SMOOTH",
"599 170 OFFCURVE",
"597 172 OFFCURVE",
"596 172 CURVE"
);
},
{
closed = 1;
nodes = (
"900 172 LINE",
"792 172 LINE SMOOTH",
"790 172 OFFCURVE",
"789 170 OFFCURVE",
"789 165 CURVE SMOOTH",
"789 -34 LINE SMOOTH",
"789 -37 OFFCURVE",
"790 -39 OFFCURVE",
"792 -39 CURVE SMOOTH",
"900 -39 LINE SMOOTH",
"902 -39 OFFCURVE",
"903 -37 OFFCURVE",
"903 -34 CURVE SMOOTH",
"903 165 LINE SMOOTH",
"903 170 OFFCURVE",
"902 172 OFFCURVE",
"900 172 CURVE"
);
},
{
closed = 1;
nodes = (
"0 165 LINE",
"0 -34 LINE",
"108 -34 LINE",
"108 165 LINE",
"0 165 LINE"
);
},
{
closed = 1;
nodes = (
"165 165 LINE",
"165 -34 LINE",
"273 -34 LINE",
"273 165 LINE",
"165 165 LINE"
);
},
{
closed = 1;
nodes = (
"323 165 LINE",
"323 -34 LINE",
"431 -34 LINE",
"431 165 LINE",
"323 165 LINE"
);
},
{
closed = 1;
nodes = (
"593 160 LINE",
"593 -29 LINE",
"490 -29 LINE",
"490 160 LINE",
"593 160 LINE"
);
},
{
closed = 1;
nodes = (
"897 160 LINE",
"897 -29 LINE",
"795 -29 LINE",
"795 160 LINE",
"897 160 LINE"
);
},
{
closed = 1;
nodes = (
"0 -103 LINE",
"0 -302 LINE",
"108 -302 LINE",
"108 -103 LINE",
"0 -103 LINE"
);
},
{
closed = 1;
nodes = (
"165 -103 LINE",
"165 -302 LINE",
"273 -302 LINE",
"273 -103 LINE",
"165 -103 LINE"
);
},
{
closed = 1;
nodes = (
"323 -103 LINE",
"323 -302 LINE",
"431 -302 LINE",
"431 -103 LINE",
"323 -103 LINE"
);
},
{
closed = 1;
nodes = (
"596 -369 LINE",
"487 -369 LINE SMOOTH",
"486 -369 OFFCURVE",
"485 -371 OFFCURVE",
"485 -374 CURVE SMOOTH",
"485 -575 LINE SMOOTH",
"485 -578 OFFCURVE",
"486 -580 OFFCURVE",
"487 -580 CURVE SMOOTH",
"596 -580 LINE SMOOTH",
"597 -580 OFFCURVE",
"599 -578 OFFCURVE",
"599 -575 CURVE SMOOTH",
"599 -374 LINE SMOOTH",
"599 -371 OFFCURVE",
"597 -369 OFFCURVE",
"596 -369 CURVE"
);
},
{
closed = 1;
nodes = (
"0 -374 LINE",
"0 -575 LINE",
"108 -575 LINE",
"108 -374 LINE",
"0 -374 LINE"
);
},
{
closed = 1;
nodes = (
"165 -374 LINE",
"165 -575 LINE",
"273 -575 LINE",
"273 -374 LINE",
"165 -374 LINE"
);
},
{
closed = 1;
nodes = (
"593 -379 LINE",
"593 -570 LINE",
"490 -570 LINE",
"490 -379 LINE",
"593 -379 LINE"
);
}
);
width = 1200;
}
);
note = uniE0C4;
},
{
color = 2;
glyphname = uniE0C5.stypo;
lastChange = "2020-07-01 16:07:59 +0000";
layers = (
{
layerId = "F8C3375C-B372-4BAE-A3FB-5A8DC7FA7AB9";
paths = (
{
closed = 1;
nodes = (
"607 1770 LINE",
"715 1770 LINE SMOOTH",
"720 1770 OFFCURVE",
"724 1778 OFFCURVE",
"724 1786 CURVE SMOOTH",
"724 1985 LINE SMOOTH",
"724 1995 OFFCURVE",
"719 2002 OFFCURVE",
"715 2002 CURVE SMOOTH",
"607 2002 LINE SMOOTH",
"602 2002 OFFCURVE",
"598 1994 OFFCURVE",
"598 1985 CURVE SMOOTH",
"598 1786 LINE SMOOTH",
"598 1777 OFFCURVE",
"603 1770 OFFCURVE",
"607 1770 CURVE"
);
},
{
closed = 1;
nodes = (
"111 1992 LINE",
"3 1992 LINE SMOOTH",
"1 1992 OFFCURVE",
"0 1988 OFFCURVE",
"0 1985 CURVE SMOOTH",
"0 1786 LINE SMOOTH",
"0 1783 OFFCURVE",
"1 1780 OFFCURVE",
"3 1780 CURVE SMOOTH",
"111 1780 LINE SMOOTH",
"113 1780 OFFCURVE",
"114 1783 OFFCURVE",
"114 1786 CURVE SMOOTH",
"114 1985 LINE SMOOTH",
"114 1988 OFFCURVE",
"113 1992 OFFCURVE",
"111 1992 CURVE"
);
},
{
closed = 1;
nodes = (
"408 1786 LINE",
"408 1985 LINE",
"300 1985 LINE",
"300 1786 LINE",
"408 1786 LINE"
);
},
{
closed = 1;
nodes = (
"563 1786 LINE",
"563 1985 LINE",
"455 1985 LINE",
"455 1786 LINE",
"563 1786 LINE"
);
},
{
closed = 1;
nodes = (
"769 1985 LINE",
"769 1786 LINE",
"877 1786 LINE",
"877 1985 LINE",
"769 1985 LINE"
);
},
{
closed = 1;
nodes = (
"927 1985 LINE",
"927 1786 LINE",
"1035 1786 LINE",
"1035 1985 LINE",
"927 1985 LINE"
);
},
{
closed = 1;
nodes = (
"1200 1985 LINE",
"1092 1985 LINE",
"1092 1786 LINE",
"1200 1786 LINE",
"1200 1985 LINE"
);
},
{
closed = 1;
nodes = (
"108 1980 LINE",
"108 1791 LINE",
"6 1791 LINE",
"6 1980 LINE",
"108 1980 LINE"
);
},
{
closed = 1;
nodes = (
"615 1801 LINE",
"615 1970 LINE",
"706 1970 LINE",
"706 1801 LINE",
"615 1801 LINE"
);
},
{
closed = 1;
nodes = (
"111 1715 LINE",
"3 1715 LINE SMOOTH",
"1 1715 OFFCURVE",
"0 1713 OFFCURVE",
"0 1709 CURVE SMOOTH",
"0 1510 LINE SMOOTH",
"0 1505 OFFCURVE",
"1 1503 OFFCURVE",
"3 1503 CURVE SMOOTH",
"111 1503 LINE SMOOTH",
"113 1503 OFFCURVE",
"114 1505 OFFCURVE",
"114 1510 CURVE SMOOTH",
"114 1709 LINE SMOOTH",
"114 1713 OFFCURVE",
"113 1715 OFFCURVE",
"111 1715 CURVE"
);
},
{
closed = 1;
nodes = (
"408 1510 LINE",
"408 1709 LINE",
"300 1709 LINE",
"300 1510 LINE",
"408 1510 LINE"
);
},
{
closed = 1;
nodes = (
"713 1510 LINE",
"713 1709 LINE",
"604 1709 LINE",
"604 1510 LINE",
"713 1510 LINE"
);
},
{
closed = 1;
nodes = (
"769 1709 LINE",
"769 1510 LINE",
"877 1510 LINE",
"877 1709 LINE",
"769 1709 LINE"
);
},
{
closed = 1;
nodes = (
"927 1709 LINE",
"927 1510 LINE",
"1035 1510 LINE",
"1035 1709 LINE",
"927 1709 LINE"
);
},
{
closed = 1;
nodes = (
"1092 1709 LINE",
"1092 1510 LINE",
"1200 1510 LINE",
"1200 1709 LINE",
"1092 1709 LINE"
);
},
{
closed = 1;
nodes = (
"108 1703 LINE",
"108 1515 LINE",
"6 1515 LINE",
"6 1703 LINE",
"108 1703 LINE"
);
},
{
closed = 1;
nodes = (
"563 1469 LINE",
"455 1469 LINE SMOOTH",
"448 1469 OFFCURVE",
"443 1457 OFFCURVE",
"443 1449 CURVE SMOOTH",
"443 1248 LINE SMOOTH",
"443 1235 OFFCURVE",
"449 1226 OFFCURVE",
"455 1226 CURVE SMOOTH",
"563 1226 LINE SMOOTH",
"570 1226 OFFCURVE",
"575 1238 OFFCURVE",
"575 1248 CURVE SMOOTH",
"575 1449 LINE SMOOTH",
"575 1460 OFFCURVE",
"568 1469 OFFCURVE",
"563 1469 CURVE"
);
},
{
closed = 1;
nodes = (
"604 1449 LINE",
"604 1248 LINE",
"713 1248 LINE",
"713 1449 LINE",
"604 1449 LINE"
);
},
{
closed = 1;
nodes = (
"769 1449 LINE",
"769 1248 LINE",
"877 1248 LINE",
"877 1449 LINE",
"769 1449 LINE"
);
},
{
closed = 1;
nodes = (
"927 1449 LINE",
"927 1248 LINE",
"1035 1248 LINE",
"1035 1449 LINE",
"927 1449 LINE"
);
},
{
closed = 1;
nodes = (
"1092 1449 LINE",
"1092 1248 LINE",
"1200 1248 LINE",
"1200 1449 LINE",
"1092 1449 LINE"
);
},
{
closed = 1;
nodes = (
"551 1426 LINE",
"551 1270 LINE",
"466 1270 LINE",
"466 1426 LINE",
"551 1426 LINE"
);
},
{
closed = 1;
nodes = (
"563 1224 LINE",
"455 1224 LINE SMOOTH",
"448 1224 OFFCURVE",
"443 1211 OFFCURVE",
"443 1201 CURVE SMOOTH",
"443 1000 LINE SMOOTH",
"443 989 OFFCURVE",
"449 980 OFFCURVE",
"455 980 CURVE SMOOTH",
"563 980 LINE SMOOTH",
"570 980 OFFCURVE",
"575 992 OFFCURVE",
"575 1000 CURVE SMOOTH",
"575 1201 LINE SMOOTH",
"575 1214 OFFCURVE",
"568 1224 OFFCURVE",
"563 1224 CURVE"
);
},
{
closed = 1;
nodes = (
"769 1201 LINE",
"769 1000 LINE",
"877 1000 LINE",
"877 1201 LINE",
"769 1201 LINE"
);
},
{
closed = 1;
nodes = (
"927 1201 LINE",
"927 1000 LINE",
"1035 1000 LINE",
"1035 1201 LINE",
"927 1201 LINE"
);
},
{
closed = 1;
nodes = (
"1092 1201 LINE",
"1092 1000 LINE",
"1200 1000 LINE",
"1200 1201 LINE",
"1092 1201 LINE"
);
},
{
closed = 1;
nodes = (
"551 1180 LINE",
"551 1023 LINE",
"466 1023 LINE",
"466 1180 LINE",
"551 1180 LINE"
);
},
{
closed = 1;
nodes = (
"713 975 LINE",
"604 975 LINE SMOOTH",
"596 975 OFFCURVE",
"590 961 OFFCURVE",
"590 948 CURVE SMOOTH",
"590 748 LINE SMOOTH",
"590 732 OFFCURVE",
"597 721 OFFCURVE",
"604 721 CURVE SMOOTH",
"713 721 LINE SMOOTH",
"721 721 OFFCURVE",
"727 735 OFFCURVE",
"727 748 CURVE SMOOTH",
"727 948 LINE SMOOTH",
"727 964 OFFCURVE",
"720 975 OFFCURVE",
"713 975 CURVE"
);
},
{
closed = 1;
nodes = (
"408 954 LINE",
"300 954 LINE SMOOTH",
"298 954 OFFCURVE",
"297 952 OFFCURVE",
"297 948 CURVE SMOOTH",
"297 748 LINE SMOOTH",
"297 744 OFFCURVE",
"298 742 OFFCURVE",
"300 742 CURVE SMOOTH",
"408 742 LINE SMOOTH",
"410 742 OFFCURVE",
"411 744 OFFCURVE",
"411 748 CURVE SMOOTH",
"411 948 LINE SMOOTH",
"411 952 OFFCURVE",
"410 954 OFFCURVE",
"408 954 CURVE"
);
},
{
closed = 1;
nodes = (
"563 748 LINE",
"563 948 LINE",
"455 948 LINE",
"455 748 LINE",
"563 748 LINE"
);
},
{
closed = 1;
nodes = (
"769 948 LINE",
"769 748 LINE",
"877 748 LINE",
"877 948 LINE",
"769 948 LINE"
);
},
{
closed = 1;
nodes = (
"927 948 LINE",
"927 748 LINE",
"1035 748 LINE",
"1035 948 LINE",
"927 948 LINE"
);
},
{
closed = 1;
nodes = (
"1092 948 LINE",
"1092 748 LINE",
"1200 748 LINE",
"1200 948 LINE",
"1092 948 LINE"
);
},
{
closed = 1;
nodes = (
"405 943 LINE",
"405 755 LINE",
"303 755 LINE",
"303 943 LINE",
"405 943 LINE"
);
},
{
closed = 1;
nodes = (
"698 921 LINE",
"698 775 LINE",
"619 775 LINE",
"619 921 LINE",
"698 921 LINE"
);
},
{
closed = 1;
nodes = (
"455 694 LINE",
"455 497 LINE",
"563 497 LINE",
"563 694 LINE",
"455 694 LINE"
);
},
{
closed = 1;
nodes = (
"713 497 LINE",
"713 694 LINE",
"604 694 LINE",
"604 497 LINE",
"713 497 LINE"
);
},
{
closed = 1;
nodes = (
"769 694 LINE",
"769 497 LINE",
"877 497 LINE",
"877 694 LINE",
"769 694 LINE"
);
},
{
closed = 1;
nodes = (
"927 694 LINE",
"927 497 LINE",
"1035 497 LINE",
"1035 694 LINE",
"927 694 LINE"
);
},
{
closed = 1;
nodes = (
"1092 694 LINE",
"1092 497 LINE",
"1200 497 LINE",
"1200 694 LINE",
"1092 694 LINE"
);
},
{
closed = 1;
nodes = (
"563 458 LINE",
"455 458 LINE SMOOTH",
"448 458 OFFCURVE",
"443 446 OFFCURVE",
"443 435 CURVE SMOOTH",
"443 235 LINE SMOOTH",
"443 223 OFFCURVE",
"449 214 OFFCURVE",
"455 214 CURVE SMOOTH",
"563 214 LINE SMOOTH",
"570 214 OFFCURVE",
"575 226 OFFCURVE",
"575 235 CURVE SMOOTH",
"575 435 LINE SMOOTH",
"575 449 OFFCURVE",
"568 458 OFFCURVE",
"563 458 CURVE"
);
},
{
closed = 1;
nodes = (
"261 441 LINE",
"153 441 LINE SMOOTH",
"151 441 OFFCURVE",
"150 438 OFFCURVE",
"150 435 CURVE SMOOTH",
"150 235 LINE SMOOTH",
"150 231 OFFCURVE",
"151 230 OFFCURVE",
"153 230 CURVE SMOOTH",
"261 230 LINE SMOOTH",
"262 230 OFFCURVE",
"264 231 OFFCURVE",
"264 235 CURVE SMOOTH",
"264 435 LINE SMOOTH",
"264 438 OFFCURVE",
"262 441 OFFCURVE",
"261 441 CURVE"
);
},
{
closed = 1;
nodes = (
"927 435 LINE",
"927 235 LINE",
"1035 235 LINE",
"1035 435 LINE",
"927 435 LINE"
);
},
{
closed = 1;
nodes = (
"1092 435 LINE",
"1092 235 LINE",
"1200 235 LINE",
"1200 435 LINE",
"1092 435 LINE"
);
},
{
closed = 1;
nodes = (
"258 430 LINE",
"258 241 LINE",
"155 241 LINE",
"155 430 LINE",
"258 430 LINE"
);
},
{
closed = 1;
nodes = (
"551 413 LINE",
"551 257 LINE",
"466 257 LINE",
"466 413 LINE",
"551 413 LINE"
);
},
{
closed = 1;
nodes = (
"408 172 LINE",
"300 172 LINE SMOOTH",
"298 172 OFFCURVE",
"297 170 OFFCURVE",
"297 166 CURVE SMOOTH",
"297 -34 LINE SMOOTH",
"297 -37 OFFCURVE",
"298 -39 OFFCURVE",
"300 -39 CURVE SMOOTH",
"408 -39 LINE SMOOTH",
"410 -39 OFFCURVE",
"411 -37 OFFCURVE",
"411 -34 CURVE SMOOTH",
"411 166 LINE SMOOTH",
"411 170 OFFCURVE",
"410 172 OFFCURVE",
"408 172 CURVE"
);
},
{
closed = 1;
nodes = (
"713 172 LINE",
"604 172 LINE SMOOTH",
"603 172 OFFCURVE",
"601 170 OFFCURVE",
"601 166 CURVE SMOOTH",
"601 -34 LINE SMOOTH",
"601 -37 OFFCURVE",
"603 -39 OFFCURVE",
"604 -39 CURVE SMOOTH",
"713 -39 LINE SMOOTH",
"714 -39 OFFCURVE",
"715 -37 OFFCURVE",
"715 -34 CURVE SMOOTH",
"715 166 LINE SMOOTH",
"715 170 OFFCURVE",
"714 172 OFFCURVE",
"713 172 CURVE"
);
},
{
closed = 1;
nodes = (
"769 166 LINE",
"769 -34 LINE",
"877 -34 LINE",
"877 166 LINE",
"769 166 LINE"
);
},
{
closed = 1;
nodes = (
"927 166 LINE",
"927 -34 LINE",
"1035 -34 LINE",
"1035 166 LINE",
"927 166 LINE"
);
},
{
closed = 1;
nodes = (
"1092 166 LINE",
"1092 -34 LINE",
"1200 -34 LINE",
"1200 166 LINE",
"1092 166 LINE"
);
},
{
closed = 1;
nodes = (
"405 161 LINE",
"405 -29 LINE",
"303 -29 LINE",
"303 161 LINE",
"405 161 LINE"
);
},
{
closed = 1;
nodes = (
"710 161 LINE",
"710 -29 LINE",
"607 -29 LINE",
"607 161 LINE",
"710 161 LINE"
);
},
{
closed = 1;
nodes = (
"769 -103 LINE",
"769 -302 LINE",
"877 -302 LINE",
"877 -103 LINE",
"769 -103 LINE"
);
},
{
closed = 1;
nodes = (
"927 -103 LINE",
"927 -302 LINE",
"1035 -302 LINE",
"1035 -103 LINE",
"927 -103 LINE"
);
},
{
closed = 1;
nodes = (
"1092 -103 LINE",
"1092 -302 LINE",
"1200 -302 LINE",
"1200 -103 LINE",
"1092 -103 LINE"
);
},
{
closed = 1;
nodes = (
"713 -369 LINE",
"604 -369 LINE SMOOTH",
"603 -369 OFFCURVE",
"601 -371 OFFCURVE",
"601 -374 CURVE SMOOTH",
"601 -575 LINE SMOOTH",
"601 -578 OFFCURVE",
"603 -580 OFFCURVE",
"604 -580 CURVE SMOOTH",
"713 -580 LINE SMOOTH",
"714 -580 OFFCURVE",
"715 -578 OFFCURVE",
"715 -575 CURVE SMOOTH",
"715 -374 LINE SMOOTH",
"715 -371 OFFCURVE",
"714 -369 OFFCURVE",
"713 -369 CURVE"
);
},
{
closed = 1;
nodes = (
"927 -374 LINE",
"927 -575 LINE",
"1035 -575 LINE",
"1035 -374 LINE",
"927 -374 LINE"
);
},
{
closed = 1;
nodes = (
"1092 -374 LINE",
"1092 -575 LINE",
"1200 -575 LINE",
"1200 -374 LINE",
"1092 -374 LINE"
);
},
{
closed = 1;
nodes = (
"710 -379 LINE",
"710 -570 LINE",
"607 -570 LINE",
"607 -379 LINE",
"710 -379 LINE"
);
}
);
width = 1200;
}
);
note = uniE0C5;
},
